<svg id="Grupo_984028" data-name="Grupo 984028" xmlns="http://www.w3.org/2000/svg" xmlns:xlink="http://www.w3.org/1999/xlink" width="139.783" height="227.161" viewBox="0 0 139.783 227.161">
  <defs>
    <clipPath id="clip-path">
      <rect id="Rectángulo_344806" data-name="Rectángulo 344806" width="139.783" height="227.161" fill="none"/>
    </clipPath>
  </defs>
  <g id="Grupo_984027" data-name="Grupo 984027" clip-path="url(#clip-path)">
    <path id="Trazado_720904" data-name="Trazado 720904" d="M49.339,151.34s16.2,74.965,89.849,13.515" transform="translate(-19.304 -59.212)" fill="none" stroke="#bbb3c1" stroke-miterlimit="10" stroke-width="2.899"/>
    <path id="Trazado_720905" data-name="Trazado 720905" d="M43.713,140.257,36.635,110.93l3.433-.819,7.078,29.328a1.714,1.714,0,0,1-1.269,2.065l-.1.023a1.714,1.714,0,0,1-2.065-1.269" transform="translate(-14.334 -43.081)" fill="#6d655f"/>
    <path id="Trazado_720906" data-name="Trazado 720906" d="M30.036,109.9l.614,2.212a1.169,1.169,0,0,0,.78.8c1.343.421,4.743,1.035,9.109-1.489a1.175,1.175,0,0,0,.578-1.2l-.356-2.241Z" transform="translate(-11.752 -42.25)" fill="#4d4640"/>
    <path id="Trazado_720907" data-name="Trazado 720907" d="M40.757,107.426c.154.861-2.122,1.989-5.084,2.518s-5.488.259-5.641-.6,2.122-1.989,5.084-2.518,5.487-.259,5.641.6" transform="translate(-11.747 -41.689)" fill="#2f2b29"/>
    <path id="Trazado_720908" data-name="Trazado 720908" d="M24.968,67.649,10.95,5.288,5.839,4.8,6.008,3.04l6.382.614,14.3,63.608a.579.579,0,0,1-.438.692l-.59.134a.58.58,0,0,1-.693-.438" transform="translate(-2.285 -1.189)" fill="#4d4640"/>
    <path id="Trazado_720909" data-name="Trazado 720909" d="M1.57.451,3.65.02A.958.958,0,0,1,4.421.2c.6.454,1.641,1.6,1.4,4.034a.959.959,0,0,1-.706.831l-2.181.578Z" transform="translate(-0.614 0)" fill="#4d4640"/>
    <path id="Trazado_720910" data-name="Trazado 720910" d="M3.126,2.924c.376,1.432.015,2.769-.807,2.984S.526,5.138.149,3.706.135.937.957.722s1.793.77,2.169,2.2" transform="translate(0 -0.271)" fill="#2f2b29"/>
    <path id="Trazado_720911" data-name="Trazado 720911" d="M50.234,140.2l2.484-10.113,20.236,14,12.792-12.653,7.324,7.4L78.2,153.536a5.206,5.206,0,0,1-4.9,1.354Z" transform="translate(-19.654 -50.896)" fill="#e6aa97"/>
    <path id="Trazado_720912" data-name="Trazado 720912" d="M43.771,137.218a8.063,8.063,0,1,1,3.792-10.753,8.062,8.062,0,0,1-3.792,10.753" transform="translate(-12.609 -47.686)" fill="#e6aa97"/>
    <path id="Trazado_720913" data-name="Trazado 720913" d="M106.206,136.081l-9.912-9.842a1.757,1.757,0,0,1-.009-2.485l17.2-17.318A7.507,7.507,0,0,1,124.1,106.4l.684.679a9.013,9.013,0,0,1,.044,12.746l-16.135,16.249a1.757,1.757,0,0,1-2.485.009" transform="translate(-37.472 -40.776)" fill="#2f2f67"/>
    <path id="Trazado_720914" data-name="Trazado 720914" d="M130.009,101.31h-2.733a9.468,9.468,0,0,0-7.3,3.793c-2.594,3.405-3.86,9.2.58,20.531Z" transform="translate(-46.019 -39.637)" fill="#e5ad39"/>
    <path id="Trazado_720915" data-name="Trazado 720915" d="M191.038,160.023h-8.979A14.358,14.358,0,0,1,167.7,145.665V100.621a14.358,14.358,0,0,1,14.358-14.359h8.979A14.358,14.358,0,0,1,205.4,100.621v45.045a14.358,14.358,0,0,1-14.358,14.358" transform="translate(-65.613 -33.75)" fill="#e08263"/>
    <path id="Trazado_720916" data-name="Trazado 720916" d="M199.275,77.9H186.032a2.727,2.727,0,0,0,0,5.455h13.243a2.727,2.727,0,0,0,0-5.455" transform="translate(-71.718 -30.477)" fill="#e5ad39"/>
    <rect id="Rectángulo_344799" data-name="Rectángulo 344799" width="37.695" height="25.978" transform="translate(102.088 75.063)" fill="#fff"/>
    <path id="Trazado_720917" data-name="Trazado 720917" d="M118.6,350.041l8.434-.055.807,12.083-24.567.158a4.279,4.279,0,0,1,3.3-3.846l11.875-2.9Z" transform="translate(-40.405 -136.933)" fill="#211e21"/>
    <rect id="Rectángulo_344800" data-name="Rectángulo 344800" width="24.567" height="1.867" transform="translate(62.867 225.294) rotate(-0.368)" fill="#fff"/>
    <path id="Trazado_720918" data-name="Trazado 720918" d="M135.758,357.111a1.839,1.839,0,1,1-1.851-1.827,1.84,1.84,0,0,1,1.851,1.827" transform="translate(-51.676 -139.006)" fill="#fff"/>
    <path id="Trazado_720919" data-name="Trazado 720919" d="M169.5,349.8l8.434-.055,1.361,12.083-24.549.158a4.278,4.278,0,0,1,3.3-3.846l11.875-2.9Z" transform="translate(-60.544 -136.837)" fill="#211e21"/>
    <rect id="Rectángulo_344801" data-name="Rectángulo 344801" width="24.549" height="1.867" transform="translate(94.201 225.145) rotate(-0.368)" fill="#fff"/>
    <path id="Trazado_720920" data-name="Trazado 720920" d="M187.231,356.866a1.839,1.839,0,1,1-1.852-1.827,1.84,1.84,0,0,1,1.852,1.827" transform="translate(-71.815 -138.91)" fill="#fff"/>
    <rect id="Rectángulo_344802" data-name="Rectángulo 344802" width="31.929" height="14.247" transform="translate(77.996 116.074)" fill="#363039"/>
    <path id="Trazado_720921" data-name="Trazado 720921" d="M171.425,214.08l1.48,36.4,8.165,46.472H167.439l-8.046-44.436-2.206-38.434Z" transform="translate(-61.499 -83.759)" fill="#363039"/>
    <path id="Trazado_720922" data-name="Trazado 720922" d="M138.449,214.08l-7.388,36.4,4.322,46.472H121.751l-3.632-44.436,6.092-38.434Z" transform="translate(-46.214 -83.759)" fill="#363039"/>
    <rect id="Rectángulo_344803" data-name="Rectángulo 344803" width="19.328" height="23.965" transform="translate(86.961 36.899)" fill="#cc806f"/>
    <path id="Trazado_720923" data-name="Trazado 720923" d="M133.59,25.547V42.326s-7.143,9.3-1.163,16.778,15.781,4.817,19.935,2.325,6.312-12.957,3.987-17.941l-.368-18.849Z" transform="translate(-50.879 -9.64)" fill="#e6aa97"/>
    <path id="Trazado_720924" data-name="Trazado 720924" d="M148.067,40.379H145.2a1.571,1.571,0,0,1,0-3.143h2.866a1.571,1.571,0,0,1,0,3.143" transform="translate(-56.196 -14.569)" fill="#363039"/>
    <path id="Trazado_720925" data-name="Trazado 720925" d="M136.375,40.379h-1.433a1.571,1.571,0,0,1,0-3.143h1.433a1.571,1.571,0,0,1,0,3.143" transform="translate(-52.182 -14.569)" fill="#363039"/>
    <path id="Trazado_720926" data-name="Trazado 720926" d="M148.568,45.565a.992.992,0,1,1-.992-.992.992.992,0,0,1,.992.992" transform="translate(-57.351 -17.439)" fill="#363039"/>
    <path id="Trazado_720927" data-name="Trazado 720927" d="M139.113,45.565a.992.992,0,1,1-.992-.992.992.992,0,0,1,.992.992" transform="translate(-53.652 -17.439)" fill="#363039"/>
    <path id="Trazado_720928" data-name="Trazado 720928" d="M125.987,16.606h0a6.167,6.167,0,0,0,6.167,6.167h11.434V35.147a2.961,2.961,0,0,0,2.961,2.961h9.79V25.92a9.314,9.314,0,0,0-9.314-9.314Z" transform="translate(-49.293 -6.497)" fill="#363039"/>
    <path id="Trazado_720929" data-name="Trazado 720929" d="M165.194,18.825a.976.976,0,0,1-.715-1.641c1.536-1.653-.071-4.019-.088-4.043A.976.976,0,0,1,166,12.031c.877,1.266,1.986,4.251-.088,6.483a.974.974,0,0,1-.715.312" transform="translate(-64.251 -4.542)" fill="#363039"/>
    <path id="Trazado_720930" data-name="Trazado 720930" d="M165.194,22.063a.976.976,0,0,1-.668-1.689,11.345,11.345,0,0,1,5.137-2.306.976.976,0,0,1,.324,1.925,9.49,9.49,0,0,0-4.125,1.8.974.974,0,0,1-.668.264" transform="translate(-64.251 -7.064)" fill="#363039"/>
    <path id="Trazado_720931" data-name="Trazado 720931" d="M135.295,144.635h15.768a14.969,14.969,0,0,0,14.97-14.969V112.209a12.226,12.226,0,0,0-12.227-12.226H135.295A13.914,13.914,0,0,0,121.38,113.9v16.823a13.915,13.915,0,0,0,13.915,13.915" transform="translate(-47.49 -39.119)" fill="#3f3f80"/>
    <rect id="Rectángulo_344804" data-name="Rectángulo 344804" width="32.338" height="21.25" transform="translate(77.996 93.893)" fill="#3f3f80"/>
    <path id="Trazado_720932" data-name="Trazado 720932" d="M159.777,193.662H128.15a2.485,2.485,0,0,1-2.485-2.485v-1.164a2.485,2.485,0,0,1,2.485-2.485h31.627a2.485,2.485,0,0,1,2.485,2.485v1.164a2.485,2.485,0,0,1-2.485,2.485" transform="translate(-49.167 -73.371)" fill="#211e21"/>
    <path id="Trazado_720933" data-name="Trazado 720933" d="M176.486,50.157A4.657,4.657,0,1,1,171.83,45.5a4.656,4.656,0,0,1,4.656,4.656" transform="translate(-65.407 -17.802)" fill="#e6aa97"/>
    <path id="Trazado_720934" data-name="Trazado 720934" d="M174.187,49.472s-3.056.938-1.474,4.479" transform="translate(-67.396 -19.356)" fill="none" stroke="#cc806f" stroke-linecap="round" stroke-linejoin="round" stroke-width="1.406"/>
    <path id="Trazado_720935" data-name="Trazado 720935" d="M171.885,192.762l-8.049-6.607,21.914-26.7-5.892-17,9.839-3.411,6.847,19.756a5.207,5.207,0,0,1-.895,5.008Z" transform="translate(-64.101 -54.402)" fill="#e6aa97"/>
    <path id="Trazado_720936" data-name="Trazado 720936" d="M170.883,214.527a8.063,8.063,0,1,1-8.062-8.062,8.062,8.062,0,0,1,8.062,8.062" transform="translate(-60.549 -80.78)" fill="#e6aa97"/>
    <path id="Trazado_720937" data-name="Trazado 720937" d="M198.469,132.054l-13.157,4.692a1.757,1.757,0,0,1-2.245-1.065l-8.2-22.988a7.507,7.507,0,0,1,4.549-9.591l.908-.324a9.013,9.013,0,0,1,11.516,5.462l7.692,21.569a1.757,1.757,0,0,1-1.065,2.245" transform="translate(-68.247 -40.006)" fill="#2f2f67"/>
    <path id="Trazado_720938" data-name="Trazado 720938" d="M143.911,194.876h-3.379a4.418,4.418,0,0,1,0-8.835h3.379a4.418,4.418,0,1,1,0,8.835" transform="translate(-53.255 -72.789)" fill="#e7e4ee"/>
    <path id="Trazado_720939" data-name="Trazado 720939" d="M162.752,46.2s-1.07,8.274-8.247,9.3" transform="translate(-60.45 -18.077)" fill="none" stroke="#363039" stroke-miterlimit="10" stroke-width="3.014"/>
    <path id="Trazado_720940" data-name="Trazado 720940" d="M133.97,59.634a6.582,6.582,0,0,1-1.113-1.94,3.188,3.188,0,0,1,1.279-3.675l.489-.326-.195.678a4.84,4.84,0,0,0,.972,4.117Z" transform="translate(-51.914 -21.007)" fill="#363039"/>
    <path id="Trazado_720941" data-name="Trazado 720941" d="M131.377,57.783l5.04-8.97a1.829,1.829,0,0,1,3.331.2c.716,1.909,1.839,5.484,4.027,6.069,10.782,2.882,9.912,4.563,9.912,4.563l-8.34,13.724s-7.234,1.876-12.4-3.055Z" transform="translate(-51.402 -18.715)" fill="#9f98a5"/>
    <path id="Trazado_720942" data-name="Trazado 720942" d="M160.875,66.211l-.055-1.336L158,63.991l0,.008a6.858,6.858,0,0,0-1.787-.494c-4.146-.54-7.992,2.751-8.591,7.351a8.313,8.313,0,0,0,4.408,8.713l0,0,.131.051c.194.085.391.164.595.231l3.752,1.157-.472-.892a8.294,8.294,0,0,0,6.6-7.31,8.782,8.782,0,0,0-1.755-6.6" transform="translate(-57.724 -24.824)" fill="#58535b"/>
    <path id="Trazado_720943" data-name="Trazado 720943" d="M167.922,74.517c-.6,4.6-4.446,7.891-8.591,7.351s-7.022-4.706-6.423-9.306,4.446-7.89,8.592-7.351,7.021,4.706,6.422,9.306" transform="translate(-59.795 -25.491)" fill="#6d6871"/>
    <path id="Trazado_720944" data-name="Trazado 720944" d="M166.8,76.4a4.356,4.356,0,1,1-3.676-5.325A4.588,4.588,0,0,1,166.8,76.4" transform="translate(-61.88 -27.797)" fill="#58535b"/>
    <path id="Trazado_720945" data-name="Trazado 720945" d="M123.69,64.346l5.025-.169s3.135,3.606,2.314,13.254a2.279,2.279,0,0,1-1.957,2.076l-3.488.2Z" transform="translate(-48.394 -25.109)" fill="#58535b"/>
    <path id="Trazado_720946" data-name="Trazado 720946" d="M122.885,64.512c.734,1.046,3.559,5.8,1.859,15.192-.022.125-.125.071-.25.044-3.025-.642-4.523-11.105-1.851-15.191.061-.094.176-.138.241-.046" transform="translate(-47.442 -25.22)" fill="#6d6871"/>
    <path id="Trazado_720947" data-name="Trazado 720947" d="M145.861,51.956l-.1,5.631a1.667,1.667,0,0,0,1.745,1.723l8.784-.36-5.338-2.078a6.92,6.92,0,0,1-3.547-2.912Z" transform="translate(-57.029 -20.328)" fill="#908896"/>
    <path id="Trazado_720948" data-name="Trazado 720948" d="M123.812,73.877c.22,2.549-.051,4.654-.6,4.7s-1.18-1.981-1.4-4.53.051-4.654.6-4.7,1.18,1.98,1.4,4.53" transform="translate(-47.628 -27.132)" fill="#58535b"/>
    <path id="Trazado_720949" data-name="Trazado 720949" d="M120.469,345.177h17.175l-.987-7.835H119.93Z" transform="translate(-46.923 -131.986)" fill="#554d5b"/>
    <path id="Trazado_720950" data-name="Trazado 720950" d="M169.575,345.177h16.837l-1.019-7.835H168.136Z" transform="translate(-65.784 -131.986)" fill="#554d5b"/>
    <path id="Trazado_720951" data-name="Trazado 720951" d="M161.282,98.01V94.942H147.445L143.99,124.03,143.4,94.942h-6.081l.089,3.5.6,32.093H152.3l2.663-26.522Z" transform="translate(-53.726 -37.146)" fill="#3f3f80"/>
    <path id="Trazado_720952" data-name="Trazado 720952" d="M151.029,99.983l-3.09,20.726-.527-20.726Z" transform="translate(-57.675 -39.118)" fill="#e7e4ee"/>
    <rect id="Rectángulo_344805" data-name="Rectángulo 344805" width="8.667" height="2.202" transform="translate(76.23 75.651)" fill="#e7e4ee"/>
    <path id="Trazado_720953" data-name="Trazado 720953" d="M181.7,101.885s-10.942,5.278-2.644,24.316c0,0-8.63-6.715-6.165-18a4.253,4.253,0,0,1,.133-.467c.335-.961,1.683-4.424,4.174-6.084a2.727,2.727,0,0,1,2.41-.3Z" transform="translate(-67.472 -39.595)" fill="#e5ad39"/>
  </g>
</svg>
