<svg xmlns="http://www.w3.org/2000/svg" xmlns:xlink="http://www.w3.org/1999/xlink" width="217" height="232.294" viewBox="0 0 217 232.294">
  <defs>
    <clipPath id="clip-path">
      <rect id="Rectángulo_345006" data-name="Rectángulo 345006" width="148.811" height="232.294" fill="none"/>
    </clipPath>
    <clipPath id="clip-path-3">
      <rect id="Rectángulo_344978" data-name="Rectángulo 344978" width="131.244" height="232.294" fill="none"/>
    </clipPath>
    <clipPath id="clip-path-4">
      <rect id="Rectángulo_344979" data-name="Rectángulo 344979" width="103.365" height="232.294" fill="none"/>
    </clipPath>
    <clipPath id="clip-path-5">
      <rect id="Rectángulo_344980" data-name="Rectángulo 344980" width="18.389" height="22.103" fill="none"/>
    </clipPath>
    <clipPath id="clip-path-6">
      <rect id="Rectángulo_344981" data-name="Rectángulo 344981" width="1.825" height="1.825" fill="none"/>
    </clipPath>
    <clipPath id="clip-path-7">
      <rect id="Rectángulo_344982" data-name="Rectángulo 344982" width="0.557" height="0.557" fill="none"/>
    </clipPath>
    <clipPath id="clip-path-8">
      <rect id="Rectángulo_344983" data-name="Rectángulo 344983" width="1.025" height="1.025" fill="none"/>
    </clipPath>
    <clipPath id="clip-path-9">
      <rect id="Rectángulo_344984" data-name="Rectángulo 344984" width="0.313" height="0.313" fill="none"/>
    </clipPath>
    <clipPath id="clip-path-18">
      <rect id="Rectángulo_344993" data-name="Rectángulo 344993" width="2.239" height="2.239" fill="none"/>
    </clipPath>
    <clipPath id="clip-path-19">
      <rect id="Rectángulo_344994" data-name="Rectángulo 344994" width="0.683" height="0.683" fill="none"/>
    </clipPath>
    <clipPath id="clip-path-20">
      <rect id="Rectángulo_344995" data-name="Rectángulo 344995" width="1.257" height="1.258" fill="none"/>
    </clipPath>
    <clipPath id="clip-path-21">
      <rect id="Rectángulo_344996" data-name="Rectángulo 344996" width="0.384" height="0.384" fill="none"/>
    </clipPath>
    <clipPath id="clip-path-22">
      <rect id="Rectángulo_344997" data-name="Rectángulo 344997" width="1.502" height="1.502" fill="none"/>
    </clipPath>
    <clipPath id="clip-path-23">
      <rect id="Rectángulo_344998" data-name="Rectángulo 344998" width="0.458" height="0.458" fill="none"/>
    </clipPath>
    <clipPath id="clip-path-24">
      <rect id="Rectángulo_344999" data-name="Rectángulo 344999" width="0.843" height="0.843" fill="none"/>
    </clipPath>
    <clipPath id="clip-path-25">
      <rect id="Rectángulo_345000" data-name="Rectángulo 345000" width="0.257" height="0.257" fill="none"/>
    </clipPath>
  </defs>
  <g id="Grupo_984342" data-name="Grupo 984342" transform="translate(-944 -9039.521)">
    <circle id="Elipse_5884" data-name="Elipse 5884" cx="108.5" cy="108.5" r="108.5" transform="translate(944 9049)" fill="#06d1d1"/>
    <g id="Grupo_984284" data-name="Grupo 984284" transform="translate(978.094 9039.521)">
      <g id="Grupo_984283" data-name="Grupo 984283" clip-path="url(#clip-path)">
        <g id="Grupo_984282" data-name="Grupo 984282">
          <g id="Grupo_984281" data-name="Grupo 984281" clip-path="url(#clip-path)">
            <g id="Grupo_984202" data-name="Grupo 984202" transform="translate(11.727)" style="mix-blend-mode: screen;isolation: isolate">
              <g id="Grupo_984201" data-name="Grupo 984201">
                <g id="Grupo_984200" data-name="Grupo 984200" clip-path="url(#clip-path-3)">
                  <path id="Trazado_722318" data-name="Trazado 722318" d="M109.963,0h-38.2C66.075,145.881,25.241,232.294,25.241,232.294H156.484S115.651,145.881,109.963,0" transform="translate(-25.241)" fill="#65a8df"/>
                </g>
              </g>
            </g>
            <g id="Grupo_984205" data-name="Grupo 984205" transform="translate(25.667)" style="mix-blend-mode: screen;isolation: isolate">
              <g id="Grupo_984204" data-name="Grupo 984204">
                <g id="Grupo_984203" data-name="Grupo 984203" clip-path="url(#clip-path-4)">
                  <path id="Trazado_722319" data-name="Trazado 722319" d="M116.156,0H97.7C94.951,145.881,55.245,232.294,55.245,232.294H158.609S118.9,145.881,116.156,0" transform="translate(-55.245)" fill="#65a8df"/>
                </g>
              </g>
            </g>
            <path id="Trazado_722320" data-name="Trazado 722320" d="M63.745,162.6s-1.942-7.864-4.508-12.714-5.191-8.9,1.75-9.185,12.519,12.379,12.519,12.379l5.47,1.606L80.5,104.609a4.051,4.051,0,0,1,8.087-.206l2.568,31.5,4.9-35.8a5.131,5.131,0,0,1,10.2,1.078l-2.65,35.516,6.113-30.853a4.11,4.11,0,0,1,8.122,1.192l-3.153,32.75,7.69-22.8a3.665,3.665,0,0,1,7.069,1.88l-5.6,28.394s-1.479,25.177-4.371,33.612-5.711,8.757-5.711,8.757l-5.281,93.891H67.271l13.958-96.584s-8.791-7.045-11.43-12.7S63.745,162.6,63.745,162.6" transform="translate(-30.272 -51.221)" fill="#f0aa65"/>
            <g id="Grupo_984208" data-name="Grupo 984208" transform="translate(48.704 100.124)" opacity="0.5" style="mix-blend-mode: multiply;isolation: isolate">
              <g id="Grupo_984207" data-name="Grupo 984207">
                <g id="Grupo_984206" data-name="Grupo 984206" clip-path="url(#clip-path-5)">
                  <path id="Trazado_722321" data-name="Trazado 722321" d="M104.832,218.854s18.468,5.77,17.765,18.76c0,0,5.751-11.461-17.664-22.1Z" transform="translate(-104.832 -215.512)" fill="#f0aa65"/>
                </g>
              </g>
            </g>
            <path id="Trazado_722322" data-name="Trazado 722322" d="M103.513,214.112s-4.133-6.967-7.991-10.868-7.544-7.024-.98-9.3,15.563,8.232,15.563,8.232l5.7-.043-13.015-48.383a4.051,4.051,0,0,1,7.682-2.535l11.563,29.409-5.656-35.686a5.13,5.13,0,0,1,10.075-1.917l7.73,34.766-3.067-31.3a4.11,4.11,0,0,1,8.12-1.207l6.449,32.263.769-24.053a3.665,3.665,0,0,1,7.31-.243l2.847,28.8s5.862,24.529,5.532,33.44-2.936,10.035-2.936,10.035l17.909,81.2H134.03l-6.748-74.37s-10.451-4.2-14.612-8.852-9.157-9.385-9.157-9.385" transform="translate(-48.691 -74.425)" fill="#f7bd84"/>
            <path id="Trazado_722323" data-name="Trazado 722323" d="M260.731,188.367a1.576,1.576,0,1,1-1.576-1.576,1.576,1.576,0,0,1,1.576,1.576" transform="translate(-137.911 -100.01)" fill="#fff"/>
            <path id="Trazado_722324" data-name="Trazado 722324" d="M108.748,88.683a1.576,1.576,0,1,1-1.576-1.576,1.576,1.576,0,0,1,1.576,1.576" transform="translate(-56.537 -46.638)" fill="#fff"/>
            <path id="Trazado_722325" data-name="Trazado 722325" d="M192.79,82.723a1.576,1.576,0,1,1-1.576-1.576,1.576,1.576,0,0,1,1.576,1.576" transform="translate(-101.534 -43.447)" fill="#fff"/>
            <path id="Trazado_722326" data-name="Trazado 722326" d="M224.124,116.39a1.576,1.576,0,1,1-1.576-1.576,1.576,1.576,0,0,1,1.576,1.576" transform="translate(-118.311 -61.473)" fill="#fff"/>
            <path id="Trazado_722327" data-name="Trazado 722327" d="M48.231,225.367a1.576,1.576,0,1,1-1.576-1.576,1.576,1.576,0,0,1,1.576,1.576" transform="translate(-24.136 -119.82)" fill="#fff"/>
            <path id="Trazado_722328" data-name="Trazado 722328" d="M250.28,168.895a3.562,3.562,0,1,1-3.562-3.562,3.562,3.562,0,0,1,3.562,3.562" transform="translate(-130.188 -88.521)" fill="#fff"/>
            <path id="Trazado_722329" data-name="Trazado 722329" d="M89.28,94.895a3.562,3.562,0,1,1-3.562-3.562,3.562,3.562,0,0,1,3.562,3.562" transform="translate(-43.987 -48.901)" fill="#fff"/>
            <path id="Trazado_722330" data-name="Trazado 722330" d="M175.755,91.562A3.562,3.562,0,1,1,172.193,88a3.562,3.562,0,0,1,3.562,3.562" transform="translate(-90.287 -47.116)" fill="#fff"/>
            <path id="Trazado_722331" data-name="Trazado 722331" d="M38.78,203.895a3.562,3.562,0,1,1-3.562-3.562,3.562,3.562,0,0,1,3.562,3.562" transform="translate(-16.949 -107.261)" fill="#fff"/>
            <path id="Trazado_722332" data-name="Trazado 722332" d="M122.333,215.164c-.047-.056-.1-.107-.147-.159a6.946,6.946,0,0,0-7.2-10.85,4.786,4.786,0,0,0-9.426-.545,3.309,3.309,0,0,0-3.341,1.683,4.062,4.062,0,0,0-3.5,6.363,4.323,4.323,0,0,0,.383,7.965,4.33,4.33,0,0,0,6.612,5.336c.075-.063.143-.13.213-.2a4.323,4.323,0,0,0,6.966,2.233,4.386,4.386,0,0,0,.52-.523,4.985,4.985,0,1,0,8.138-5.694c-.071-.085-.148-.162-.223-.241a3.539,3.539,0,0,0,1-5.372" transform="translate(-51.539 -107.021)" fill="#fff"/>
            <path id="Trazado_722333" data-name="Trazado 722333" d="M211.393,253.232A5.081,5.081,0,0,0,219.357,252c.116.052.232.105.353.15a5.4,5.4,0,0,0,6.123-8.393,5.556,5.556,0,0,0-1.888-10.278,4.53,4.53,0,0,0-3.571-8.322,4.08,4.08,0,0,0-7.052-2.9,6.365,6.365,0,0,0-.62-.266A6.279,6.279,0,0,0,205,224.957c-.184-.085-.374-.164-.57-.234a6.358,6.358,0,0,0-4.461,11.9,5.628,5.628,0,0,0,2.326,10.085,5.643,5.643,0,0,0,9.1,6.519" transform="translate(-104.914 -118.311)" fill="#fff"/>
            <path id="Trazado_722334" data-name="Trazado 722334" d="M158.707,179.858a2.725,2.725,0,0,0,3.018,3.094c.013.067.026.134.045.2a2.9,2.9,0,0,0,5.572.057,2.981,2.981,0,0,0,3.9-4.028,2.43,2.43,0,0,0,2.519-4.152,2.189,2.189,0,0,0-.93-3.983,3.412,3.412,0,0,0-.077-.354,3.368,3.368,0,0,0-3.7-2.439c-.02-.107-.045-.214-.076-.322a3.41,3.41,0,0,0-6.587,1.763,3.028,3.028,0,0,0-3.855,3.686,3.078,3.078,0,0,0,.177.473,3.076,3.076,0,0,0-.422.081,3.029,3.029,0,0,0,.413,5.923" transform="translate(-83.562 -88.593)" fill="#fff"/>
            <path id="Trazado_722335" data-name="Trazado 722335" d="M221.645,139.355s3.825-10.606,10.54-9.171c4.451.952,3.79,8.283-1.226,7.9-3.567-.275-6.7-1.244-9.315,1.275" transform="translate(-118.671 -69.63)" fill="#fff"/>
            <path id="Trazado_722336" data-name="Trazado 722336" d="M83.571,294.232s-7.206-8.672-13.032-5.036c-3.861,2.409-.176,8.58,3.84,7.007,3.331-1.305,5.877-3.45,9.192-1.971" transform="translate(-36.894 -154.362)" fill="#fff"/>
            <path id="Trazado_722337" data-name="Trazado 722337" d="M69.434,129.8s-4-12.732-12.014-11.363c-5.31.906-5.085,9.243,1.061,9.4,4.233.107,7.985-1.142,10.953,1.966" transform="translate(-28.72 -63.357)" fill="#fff"/>
            <path id="Trazado_722338" data-name="Trazado 722338" d="M123.5,77.651s4.282-12.64-2.993-16.264c-4.822-2.4-9.559,4.461-4.689,8.213,3.355,2.585,7.12,3.79,7.682,8.05" transform="translate(-60.915 -32.6)" fill="#fff"/>
            <path id="Trazado_722339" data-name="Trazado 722339" d="M197.454,115.577s-1.344-8.013,3.381-9.484a2.892,2.892,0,0,1,2.02,5.392c-2.268,1.227-4.648,1.586-5.4,4.091" transform="translate(-105.625 -56.731)" fill="#fff"/>
            <path id="Trazado_722340" data-name="Trazado 722340" d="M61.633,163.148s-6.333-7.121-11.151-3.885c-3.193,2.145-1.021,7.448,3.442,5.81,2.839-1.041,4.866-3.08,7.709-1.925" transform="translate(-26.216 -84.82)" fill="#fff"/>
            <path id="Trazado_722341" data-name="Trazado 722341" d="M248.479,248.191s10.365-8.406,16.291-2.843c3.927,3.687-1.129,10.783-6.073,7.25-3.446-2.462-6.028-5.36-10.218-4.408" transform="translate(-133.038 -130.343)" fill="#fff"/>
            <path id="Trazado_722342" data-name="Trazado 722342" d="M28.266,261.769a4.2,4.2,0,1,1-2.569-5.353,4.2,4.2,0,0,1,2.569,5.353" transform="translate(-10.764 -137.16)" fill="#84e7f4"/>
            <line id="Línea_2993" data-name="Línea 2993" x1="1.995" y1="4.159" transform="translate(10.971 116.433)" fill="none" stroke="#84e7f4" stroke-miterlimit="10" stroke-width="1.937"/>
            <line id="Línea_2994" data-name="Línea 2994" y1="4.173" x2="1.467" transform="translate(14.69 116.149)" fill="none" stroke="#84e7f4" stroke-miterlimit="10" stroke-width="1.937"/>
            <line id="Línea_2995" data-name="Línea 2995" y1="2.015" x2="3.649" transform="translate(16.277 119.898)" fill="none" stroke="#84e7f4" stroke-miterlimit="10" stroke-width="1.937"/>
            <line id="Línea_2996" data-name="Línea 2996" x2="4.173" y2="1.467" transform="translate(15.966 124.268)" fill="none" stroke="#84e7f4" stroke-miterlimit="10" stroke-width="1.937"/>
            <line id="Línea_2997" data-name="Línea 2997" x2="1.72" y2="3.585" transform="translate(14.621 126.06)" fill="none" stroke="#84e7f4" stroke-miterlimit="10" stroke-width="1.937"/>
            <line id="Línea_2998" data-name="Línea 2998" x1="1.492" y2="4.244" transform="translate(10.839 126.13)" fill="none" stroke="#84e7f4" stroke-miterlimit="10" stroke-width="1.937"/>
            <line id="Línea_2999" data-name="Línea 2999" x1="3.227" y2="1.548" transform="translate(7.135 124.722)" fill="none" stroke="#84e7f4" stroke-miterlimit="10" stroke-width="1.937"/>
            <line id="Línea_3000" data-name="Línea 3000" x1="3.785" y1="1.33" transform="translate(6.372 120.697)" fill="none" stroke="#84e7f4" stroke-miterlimit="10" stroke-width="1.937"/>
            <path id="Trazado_722343" data-name="Trazado 722343" d="M35.036,246.828a1.606,1.606,0,1,1-.983-2.047,1.606,1.606,0,0,1,.983,2.047" transform="translate(-17.088 -131.01)" fill="#84e7f4"/>
            <path id="Trazado_722344" data-name="Trazado 722344" d="M22.683,246.934a1.606,1.606,0,1,1-.983-2.047,1.606,1.606,0,0,1,.983,2.047" transform="translate(-10.474 -131.066)" fill="#84e7f4"/>
            <path id="Trazado_722345" data-name="Trazado 722345" d="M11.93,257.41a1.606,1.606,0,1,1-.983-2.047,1.606,1.606,0,0,1,.983,2.047" transform="translate(-4.717 -136.675)" fill="#84e7f4"/>
            <path id="Trazado_722346" data-name="Trazado 722346" d="M12.688,271.475a1.606,1.606,0,1,1-.983-2.047,1.606,1.606,0,0,1,.983,2.047" transform="translate(-5.122 -144.206)" fill="#84e7f4"/>
            <path id="Trazado_722347" data-name="Trazado 722347" d="M22.226,281.328a1.606,1.606,0,1,1-.983-2.047,1.606,1.606,0,0,1,.983,2.047" transform="translate(-10.229 -149.481)" fill="#84e7f4"/>
            <path id="Trazado_722348" data-name="Trazado 722348" d="M35.673,279.9a1.606,1.606,0,1,1-.983-2.047,1.606,1.606,0,0,1,.983,2.047" transform="translate(-17.429 -148.715)" fill="#84e7f4"/>
            <path id="Trazado_722349" data-name="Trazado 722349" d="M45.412,270.033a1.606,1.606,0,1,1-.983-2.047,1.606,1.606,0,0,1,.983,2.047" transform="translate(-22.643 -143.434)" fill="#84e7f4"/>
            <path id="Trazado_722350" data-name="Trazado 722350" d="M44.53,255.183a1.606,1.606,0,1,1-.983-2.047,1.606,1.606,0,0,1,.983,2.047" transform="translate(-22.171 -135.483)" fill="#84e7f4"/>
            <g id="Grupo_984211" data-name="Grupo 984211" transform="translate(11.96 119.606)" opacity="0.5" style="mix-blend-mode: screen;isolation: isolate">
              <g id="Grupo_984210" data-name="Grupo 984210">
                <g id="Grupo_984209" data-name="Grupo 984209" clip-path="url(#clip-path-6)">
                  <path id="Trazado_722351" data-name="Trazado 722351" d="M27.517,258.66a.912.912,0,1,1-.558-1.163.912.912,0,0,1,.558,1.163" transform="translate(-25.744 -257.445)" fill="#84e7f4"/>
                </g>
              </g>
            </g>
            <g id="Grupo_984214" data-name="Grupo 984214" transform="translate(12.42 119.851)" opacity="0.5" style="mix-blend-mode: screen;isolation: isolate">
              <g id="Grupo_984213" data-name="Grupo 984213">
                <g id="Grupo_984212" data-name="Grupo 984212" clip-path="url(#clip-path-7)">
                  <path id="Trazado_722352" data-name="Trazado 722352" d="M27.274,258.343a.278.278,0,1,1-.171-.355.279.279,0,0,1,.171.355" transform="translate(-26.733 -257.972)" fill="#84e7f4"/>
                </g>
              </g>
            </g>
            <g id="Grupo_984217" data-name="Grupo 984217" transform="translate(10.646 120.702)" opacity="0.5" style="mix-blend-mode: screen;isolation: isolate">
              <g id="Grupo_984216" data-name="Grupo 984216">
                <g id="Grupo_984215" data-name="Grupo 984215" clip-path="url(#clip-path-8)">
                  <path id="Trazado_722353" data-name="Trazado 722353" d="M23.6,260.8a.512.512,0,1,1,.3-.658.512.512,0,0,1-.3.658" transform="translate(-22.914 -259.803)" fill="#84e7f4"/>
                </g>
              </g>
            </g>
            <g id="Grupo_984220" data-name="Grupo 984220" transform="translate(11.108 120.843)" opacity="0.5" style="mix-blend-mode: screen;isolation: isolate">
              <g id="Grupo_984219" data-name="Grupo 984219">
                <g id="Grupo_984218" data-name="Grupo 984218" clip-path="url(#clip-path-9)">
                  <path id="Trazado_722354" data-name="Trazado 722354" d="M24.118,260.41a.156.156,0,1,1,.092-.2.156.156,0,0,1-.092.2" transform="translate(-23.908 -260.107)" fill="#84e7f4"/>
                </g>
              </g>
            </g>
            <path id="Trazado_722355" data-name="Trazado 722355" d="M123.882,390.247a4.2,4.2,0,1,1-2.569-5.353,4.2,4.2,0,0,1,2.569,5.353" transform="translate(-61.958 -205.949)" fill="#84e7f4"/>
            <line id="Línea_3001" data-name="Línea 3001" x1="1.995" y1="4.159" transform="translate(55.393 176.122)" fill="none" stroke="#84e7f4" stroke-miterlimit="10" stroke-width="1.937"/>
            <line id="Línea_3002" data-name="Línea 3002" y1="4.173" x2="1.467" transform="translate(59.112 175.839)" fill="none" stroke="#84e7f4" stroke-miterlimit="10" stroke-width="1.937"/>
            <line id="Línea_3003" data-name="Línea 3003" y1="2.016" x2="3.649" transform="translate(60.699 179.587)" fill="none" stroke="#84e7f4" stroke-miterlimit="10" stroke-width="1.937"/>
            <line id="Línea_3004" data-name="Línea 3004" x2="4.173" y2="1.467" transform="translate(60.388 183.957)" fill="none" stroke="#84e7f4" stroke-miterlimit="10" stroke-width="1.937"/>
            <line id="Línea_3005" data-name="Línea 3005" x2="1.72" y2="3.585" transform="translate(59.043 185.75)" fill="none" stroke="#84e7f4" stroke-miterlimit="10" stroke-width="1.937"/>
            <line id="Línea_3006" data-name="Línea 3006" x1="1.492" y2="4.244" transform="translate(55.261 185.819)" fill="none" stroke="#84e7f4" stroke-miterlimit="10" stroke-width="1.937"/>
            <line id="Línea_3007" data-name="Línea 3007" x1="3.227" y2="1.548" transform="translate(51.558 184.412)" fill="none" stroke="#84e7f4" stroke-miterlimit="10" stroke-width="1.937"/>
            <line id="Línea_3008" data-name="Línea 3008" x1="3.785" y1="1.33" transform="translate(50.794 180.387)" fill="none" stroke="#84e7f4" stroke-miterlimit="10" stroke-width="1.937"/>
            <path id="Trazado_722356" data-name="Trazado 722356" d="M130.652,375.306a1.606,1.606,0,1,1-.983-2.047,1.606,1.606,0,0,1,.983,2.047" transform="translate(-68.282 -199.798)" fill="#84e7f4"/>
            <path id="Trazado_722357" data-name="Trazado 722357" d="M118.3,375.412a1.606,1.606,0,1,1-.983-2.047,1.606,1.606,0,0,1,.983,2.047" transform="translate(-61.667 -199.855)" fill="#84e7f4"/>
            <path id="Trazado_722358" data-name="Trazado 722358" d="M107.546,385.888a1.606,1.606,0,1,1-.983-2.047,1.606,1.606,0,0,1,.983,2.047" transform="translate(-55.91 -205.464)" fill="#84e7f4"/>
            <path id="Trazado_722359" data-name="Trazado 722359" d="M108.3,399.954a1.606,1.606,0,1,1-.983-2.047,1.606,1.606,0,0,1,.983,2.047" transform="translate(-56.316 -212.995)" fill="#84e7f4"/>
            <path id="Trazado_722360" data-name="Trazado 722360" d="M117.842,409.806a1.606,1.606,0,1,1-.983-2.047,1.606,1.606,0,0,1,.983,2.047" transform="translate(-61.423 -218.27)" fill="#84e7f4"/>
            <path id="Trazado_722361" data-name="Trazado 722361" d="M131.289,408.374a1.606,1.606,0,1,1-.983-2.047,1.606,1.606,0,0,1,.983,2.047" transform="translate(-68.623 -217.503)" fill="#84e7f4"/>
            <path id="Trazado_722362" data-name="Trazado 722362" d="M141.028,398.511a1.606,1.606,0,1,1-.983-2.047,1.606,1.606,0,0,1,.983,2.047" transform="translate(-73.837 -212.222)" fill="#84e7f4"/>
            <path id="Trazado_722363" data-name="Trazado 722363" d="M140.146,383.661a1.606,1.606,0,1,1-.983-2.047,1.606,1.606,0,0,1,.983,2.047" transform="translate(-73.365 -204.271)" fill="#84e7f4"/>
            <g id="Grupo_984223" data-name="Grupo 984223" transform="translate(56.382 179.295)" opacity="0.5" style="mix-blend-mode: screen;isolation: isolate">
              <g id="Grupo_984222" data-name="Grupo 984222">
                <g id="Grupo_984221" data-name="Grupo 984221" clip-path="url(#clip-path-6)">
                  <path id="Trazado_722364" data-name="Trazado 722364" d="M123.133,387.138a.912.912,0,1,1-.558-1.163.912.912,0,0,1,.558,1.163" transform="translate(-121.36 -385.923)" fill="#84e7f4"/>
                </g>
              </g>
            </g>
            <g id="Grupo_984226" data-name="Grupo 984226" transform="translate(56.842 179.54)" opacity="0.5" style="mix-blend-mode: screen;isolation: isolate">
              <g id="Grupo_984225" data-name="Grupo 984225">
                <g id="Grupo_984224" data-name="Grupo 984224" clip-path="url(#clip-path-7)">
                  <path id="Trazado_722365" data-name="Trazado 722365" d="M122.89,386.821a.278.278,0,1,1-.171-.355.279.279,0,0,1,.171.355" transform="translate(-122.349 -386.45)" fill="#84e7f4"/>
                </g>
              </g>
            </g>
            <g id="Grupo_984229" data-name="Grupo 984229" transform="translate(55.068 180.391)" opacity="0.5" style="mix-blend-mode: screen;isolation: isolate">
              <g id="Grupo_984228" data-name="Grupo 984228">
                <g id="Grupo_984227" data-name="Grupo 984227" clip-path="url(#clip-path-8)">
                  <path id="Trazado_722366" data-name="Trazado 722366" d="M119.22,389.275a.512.512,0,1,1,.3-.658.512.512,0,0,1-.3.658" transform="translate(-118.53 -388.281)" fill="#84e7f4"/>
                </g>
              </g>
            </g>
            <g id="Grupo_984232" data-name="Grupo 984232" transform="translate(55.529 180.532)" opacity="0.5" style="mix-blend-mode: screen;isolation: isolate">
              <g id="Grupo_984231" data-name="Grupo 984231">
                <g id="Grupo_984230" data-name="Grupo 984230" clip-path="url(#clip-path-9)">
                  <path id="Trazado_722367" data-name="Trazado 722367" d="M119.735,388.888a.156.156,0,1,1,.092-.2.156.156,0,0,1-.092.2" transform="translate(-119.524 -388.585)" fill="#84e7f4"/>
                </g>
              </g>
            </g>
            <path id="Trazado_722368" data-name="Trazado 722368" d="M293.249,299.607a4.2,4.2,0,1,0-1.922-5.618,4.2,4.2,0,0,0,1.922,5.618" transform="translate(-155.749 -156.146)" fill="#bbf484"/>
            <line id="Línea_3009" data-name="Línea 3009" x1="1.493" y1="4.364" transform="translate(136.422 133.053)" fill="none" stroke="#bbf484" stroke-miterlimit="10" stroke-width="1.937"/>
            <line id="Línea_3010" data-name="Línea 3010" x1="3.972" y1="1.947" transform="translate(132.525 136.487)" fill="none" stroke="#bbf484" stroke-miterlimit="10" stroke-width="1.937"/>
            <line id="Línea_3011" data-name="Línea 3011" x1="4.015" y2="1.122" transform="translate(132.467 140.68)" fill="none" stroke="#bbf484" stroke-miterlimit="10" stroke-width="1.937"/>
            <line id="Línea_3012" data-name="Línea 3012" x1="1.947" y2="3.972" transform="translate(136.408 142.141)" fill="none" stroke="#bbf484" stroke-miterlimit="10" stroke-width="1.937"/>
            <line id="Línea_3013" data-name="Línea 3013" x2="1.287" y2="3.762" transform="translate(140.571 142.475)" fill="none" stroke="#bbf484" stroke-miterlimit="10" stroke-width="1.937"/>
            <line id="Línea_3014" data-name="Línea 3014" x2="4.04" y2="1.98" transform="translate(142.252 140.919)" fill="none" stroke="#bbf484" stroke-miterlimit="10" stroke-width="1.937"/>
            <line id="Línea_3015" data-name="Línea 3015" y1="1.159" x2="3.386" transform="translate(142.668 137.377)" fill="none" stroke="#bbf484" stroke-miterlimit="10" stroke-width="1.937"/>
            <line id="Línea_3016" data-name="Línea 3016" y1="3.602" x2="1.765" transform="translate(140.925 132.868)" fill="none" stroke="#bbf484" stroke-miterlimit="10" stroke-width="1.937"/>
            <path id="Trazado_722369" data-name="Trazado 722369" d="M280.968,292.465a1.605,1.605,0,1,0-.735-2.149,1.606,1.606,0,0,0,.735,2.149" transform="translate(-149.952 -154.957)" fill="#bbf484"/>
            <path id="Trazado_722370" data-name="Trazado 722370" d="M289.849,283.877a1.606,1.606,0,1,0-.735-2.149,1.606,1.606,0,0,0,.735,2.149" transform="translate(-154.707 -150.359)" fill="#bbf484"/>
            <path id="Trazado_722371" data-name="Trazado 722371" d="M304.861,283.805a1.606,1.606,0,1,0-.735-2.149,1.606,1.606,0,0,0,.735,2.149" transform="translate(-162.745 -150.321)" fill="#bbf484"/>
            <path id="Trazado_722372" data-name="Trazado 722372" d="M314.184,294.365a1.606,1.606,0,1,0-.735-2.149,1.606,1.606,0,0,0,.735,2.149" transform="translate(-167.736 -155.975)" fill="#bbf484"/>
            <path id="Trazado_722373" data-name="Trazado 722373" d="M314.293,308.077a1.606,1.606,0,1,0-.735-2.149,1.606,1.606,0,0,0,.735,2.149" transform="translate(-167.795 -163.316)" fill="#bbf484"/>
            <path id="Trazado_722374" data-name="Trazado 722374" d="M303.7,316.486a1.606,1.606,0,1,0-.735-2.149,1.606,1.606,0,0,0,.735,2.149" transform="translate(-162.124 -167.819)" fill="#bbf484"/>
            <path id="Trazado_722375" data-name="Trazado 722375" d="M289.843,316.284a1.606,1.606,0,1,0-.735-2.149,1.606,1.606,0,0,0,.735,2.149" transform="translate(-154.704 -167.71)" fill="#bbf484"/>
            <path id="Trazado_722376" data-name="Trazado 722376" d="M280.058,305.078a1.606,1.606,0,1,0-.735-2.149,1.606,1.606,0,0,0,.735,2.149" transform="translate(-149.465 -161.711)" fill="#bbf484"/>
            <g id="Grupo_984235" data-name="Grupo 984235" transform="translate(137.018 136.386)" opacity="0.5" style="mix-blend-mode: screen;isolation: isolate">
              <g id="Grupo_984234" data-name="Grupo 984234">
                <g id="Grupo_984233" data-name="Grupo 984233" clip-path="url(#clip-path-6)">
                  <path id="Trazado_722377" data-name="Trazado 722377" d="M295.434,295.3a.912.912,0,1,0-.418-1.22.912.912,0,0,0,.418,1.22" transform="translate(-294.924 -293.564)" fill="#bbf484"/>
                </g>
              </g>
            </g>
            <g id="Grupo_984238" data-name="Grupo 984238" transform="translate(137.504 136.621)" opacity="0.5" style="mix-blend-mode: screen;isolation: isolate">
              <g id="Grupo_984237" data-name="Grupo 984237">
                <g id="Grupo_984236" data-name="Grupo 984236" clip-path="url(#clip-path-7)">
                  <path id="Trazado_722378" data-name="Trazado 722378" d="M296.125,294.6a.278.278,0,1,0-.128-.372.277.277,0,0,0,.128.372" transform="translate(-295.969 -294.068)" fill="#bbf484"/>
                </g>
              </g>
            </g>
            <g id="Grupo_984241" data-name="Grupo 984241" transform="translate(139.128 136.08)" opacity="0.5" style="mix-blend-mode: screen;isolation: isolate">
              <g id="Grupo_984240" data-name="Grupo 984240">
                <g id="Grupo_984239" data-name="Grupo 984239" clip-path="url(#clip-path-8)">
                  <path id="Trazado_722379" data-name="Trazado 722379" d="M300.189,293.883a.512.512,0,1,0-.678-.256.513.513,0,0,0,.678.256" transform="translate(-299.465 -292.904)" fill="#bbf484"/>
                </g>
              </g>
            </g>
            <g id="Grupo_984244" data-name="Grupo 984244" transform="translate(139.258 136.357)" opacity="0.5" style="mix-blend-mode: screen;isolation: isolate">
              <g id="Grupo_984243" data-name="Grupo 984243">
                <g id="Grupo_984242" data-name="Grupo 984242" clip-path="url(#clip-path-9)">
                  <path id="Trazado_722380" data-name="Trazado 722380" d="M299.966,293.8a.156.156,0,1,0-.207-.078.156.156,0,0,0,.207.078" transform="translate(-299.745 -293.5)" fill="#bbf484"/>
                </g>
              </g>
            </g>
            <path id="Trazado_722381" data-name="Trazado 722381" d="M17.285,351.569a5.151,5.151,0,1,0-2.359-6.892,5.151,5.151,0,0,0,2.359,6.892" transform="translate(-7.709 -182.999)" fill="#bbf484"/>
            <line id="Línea_3017" data-name="Línea 3017" x1="1.832" y1="5.354" transform="translate(8.253 155.8)" fill="none" stroke="#bbf484" stroke-miterlimit="10" stroke-width="2.376"/>
            <line id="Línea_3018" data-name="Línea 3018" x1="4.873" y1="2.388" transform="translate(3.474 160.014)" fill="none" stroke="#bbf484" stroke-miterlimit="10" stroke-width="2.376"/>
            <line id="Línea_3019" data-name="Línea 3019" x1="4.926" y2="1.376" transform="translate(3.402 165.158)" fill="none" stroke="#bbf484" stroke-miterlimit="10" stroke-width="2.376"/>
            <line id="Línea_3020" data-name="Línea 3020" x1="2.388" y2="4.873" transform="translate(8.237 166.95)" fill="none" stroke="#bbf484" stroke-miterlimit="10" stroke-width="2.376"/>
            <line id="Línea_3021" data-name="Línea 3021" x2="1.58" y2="4.615" transform="translate(13.343 167.36)" fill="none" stroke="#bbf484" stroke-miterlimit="10" stroke-width="2.376"/>
            <line id="Línea_3022" data-name="Línea 3022" x2="4.956" y2="2.429" transform="translate(15.406 165.452)" fill="none" stroke="#bbf484" stroke-miterlimit="10" stroke-width="2.376"/>
            <line id="Línea_3023" data-name="Línea 3023" y1="1.422" x2="4.154" transform="translate(15.917 161.105)" fill="none" stroke="#bbf484" stroke-miterlimit="10" stroke-width="2.376"/>
            <line id="Línea_3024" data-name="Línea 3024" y1="4.419" x2="2.165" transform="translate(13.778 155.574)" fill="none" stroke="#bbf484" stroke-miterlimit="10" stroke-width="2.376"/>
            <path id="Trazado_722382" data-name="Trazado 722382" d="M2.219,342.807a1.97,1.97,0,1,0-.9-2.636,1.97,1.97,0,0,0,.9,2.636" transform="translate(-0.597 -181.54)" fill="#bbf484"/>
            <path id="Trazado_722383" data-name="Trazado 722383" d="M13.115,332.271a1.97,1.97,0,1,0-.9-2.636,1.97,1.97,0,0,0,.9,2.636" transform="translate(-6.431 -175.899)" fill="#bbf484"/>
            <path id="Trazado_722384" data-name="Trazado 722384" d="M31.532,332.184a1.97,1.97,0,1,0-.9-2.636,1.97,1.97,0,0,0,.9,2.636" transform="translate(-16.292 -175.853)" fill="#bbf484"/>
            <path id="Trazado_722385" data-name="Trazado 722385" d="M42.969,345.138a1.97,1.97,0,1,0-.9-2.636,1.97,1.97,0,0,0,.9,2.636" transform="translate(-22.415 -182.788)" fill="#bbf484"/>
            <path id="Trazado_722386" data-name="Trazado 722386" d="M43.1,361.961a1.97,1.97,0,1,0-.9-2.636,1.97,1.97,0,0,0,.9,2.636" transform="translate(-22.487 -191.796)" fill="#bbf484"/>
            <path id="Trazado_722387" data-name="Trazado 722387" d="M30.11,372.277a1.97,1.97,0,1,0-.9-2.636,1.97,1.97,0,0,0,.9,2.636" transform="translate(-15.531 -197.319)" fill="#bbf484"/>
            <path id="Trazado_722388" data-name="Trazado 722388" d="M13.108,372.028a1.97,1.97,0,1,0-.9-2.636,1.97,1.97,0,0,0,.9,2.636" transform="translate(-6.427 -197.186)" fill="#bbf484"/>
            <path id="Trazado_722389" data-name="Trazado 722389" d="M1.1,358.281a1.97,1.97,0,1,0-.9-2.636,1.97,1.97,0,0,0,.9,2.636" transform="translate(0 -189.826)" fill="#bbf484"/>
            <g id="Grupo_984247" data-name="Grupo 984247" transform="translate(8.985 159.89)" opacity="0.5" style="mix-blend-mode: screen;isolation: isolate">
              <g id="Grupo_984246" data-name="Grupo 984246">
                <g id="Grupo_984245" data-name="Grupo 984245" clip-path="url(#clip-path-18)">
                  <path id="Trazado_722390" data-name="Trazado 722390" d="M19.967,346.279a1.119,1.119,0,1,0-.512-1.5,1.119,1.119,0,0,0,.512,1.5" transform="translate(-19.34 -344.155)" fill="#bbf484"/>
                </g>
              </g>
            </g>
            <g id="Grupo_984250" data-name="Grupo 984250" transform="translate(9.581 160.178)" opacity="0.5" style="mix-blend-mode: screen;isolation: isolate">
              <g id="Grupo_984249" data-name="Grupo 984249">
                <g id="Grupo_984248" data-name="Grupo 984248" clip-path="url(#clip-path-19)">
                  <path id="Trazado_722391" data-name="Trazado 722391" d="M20.814,345.421a.341.341,0,1,0-.157-.457.341.341,0,0,0,.157.457" transform="translate(-20.622 -344.773)" fill="#bbf484"/>
                </g>
              </g>
            </g>
            <g id="Grupo_984253" data-name="Grupo 984253" transform="translate(11.574 159.514)" opacity="0.5" style="mix-blend-mode: screen;isolation: isolate">
              <g id="Grupo_984252" data-name="Grupo 984252">
                <g id="Grupo_984251" data-name="Grupo 984251" clip-path="url(#clip-path-20)">
                  <path id="Trazado_722392" data-name="Trazado 722392" d="M25.8,344.547a.629.629,0,1,0-.831-.315.629.629,0,0,0,.831.315" transform="translate(-24.912 -343.345)" fill="#bbf484"/>
                </g>
              </g>
            </g>
            <g id="Grupo_984256" data-name="Grupo 984256" transform="translate(11.733 159.854)" opacity="0.5" style="mix-blend-mode: screen;isolation: isolate">
              <g id="Grupo_984255" data-name="Grupo 984255">
                <g id="Grupo_984254" data-name="Grupo 984254" clip-path="url(#clip-path-21)">
                  <path id="Trazado_722393" data-name="Trazado 722393" d="M25.526,344.443a.192.192,0,1,0-.254-.1.192.192,0,0,0,.254.1" transform="translate(-25.255 -344.077)" fill="#bbf484"/>
                </g>
              </g>
            </g>
            <path id="Trazado_722394" data-name="Trazado 722394" d="M271.735,201.57A3.454,3.454,0,1,0,274.1,197.3a3.454,3.454,0,0,0-2.368,4.273" transform="translate(-145.418 -105.563)" fill="#dc84f4"/>
            <line id="Línea_3025" data-name="Línea 3025" y1="3.319" x2="1.84" transform="translate(130.236 89.607)" fill="none" stroke="#dc84f4" stroke-miterlimit="10" stroke-width="1.593"/>
            <line id="Línea_3026" data-name="Línea 3026" x1="1.004" y1="3.498" transform="translate(127.83 89.124)" fill="none" stroke="#dc84f4" stroke-miterlimit="10" stroke-width="1.593"/>
            <line id="Línea_3027" data-name="Línea 3027" x1="2.9" y1="1.831" transform="translate(124.554 92.021)" fill="none" stroke="#dc84f4" stroke-miterlimit="10" stroke-width="1.593"/>
            <line id="Línea_3028" data-name="Línea 3028" x1="3.498" y2="1.004" transform="translate(124.097 95.801)" fill="none" stroke="#dc84f4" stroke-miterlimit="10" stroke-width="1.593"/>
            <line id="Línea_3029" data-name="Línea 3029" x1="1.586" y2="2.861" transform="translate(127.028 97.337)" fill="none" stroke="#dc84f4" stroke-miterlimit="10" stroke-width="1.593"/>
            <line id="Línea_3030" data-name="Línea 3030" x2="1.02" y2="3.558" transform="translate(130.49 97.505)" fill="none" stroke="#dc84f4" stroke-miterlimit="10" stroke-width="1.593"/>
            <line id="Línea_3031" data-name="Línea 3031" x2="2.575" y2="1.427" transform="translate(132.175 96.444)" fill="none" stroke="#dc84f4" stroke-miterlimit="10" stroke-width="1.593"/>
            <line id="Línea_3032" data-name="Línea 3032" y1="0.91" x2="3.172" transform="translate(132.474 93.331)" fill="none" stroke="#dc84f4" stroke-miterlimit="10" stroke-width="1.593"/>
            <path id="Trazado_722395" data-name="Trazado 722395" d="M271.954,189.121a1.321,1.321,0,1,0,.906-1.634,1.321,1.321,0,0,0-.906,1.634" transform="translate(-145.579 -100.355)" fill="#dc84f4"/>
            <path id="Trazado_722396" data-name="Trazado 722396" d="M282.095,189.8A1.321,1.321,0,1,0,283,188.17a1.321,1.321,0,0,0-.905,1.634" transform="translate(-151.009 -100.72)" fill="#dc84f4"/>
            <path id="Trazado_722397" data-name="Trazado 722397" d="M290.421,198.926a1.321,1.321,0,1,0,.905-1.634,1.321,1.321,0,0,0-.905,1.634" transform="translate(-155.467 -105.605)" fill="#dc84f4"/>
            <path id="Trazado_722398" data-name="Trazado 722398" d="M289.119,210.442a1.321,1.321,0,1,0,.905-1.634,1.321,1.321,0,0,0-.905,1.634" transform="translate(-154.77 -111.77)" fill="#dc84f4"/>
            <path id="Trazado_722399" data-name="Trazado 722399" d="M280.81,218.074a1.321,1.321,0,1,0,.905-1.634,1.321,1.321,0,0,0-.905,1.634" transform="translate(-150.321 -115.857)" fill="#dc84f4"/>
            <path id="Trazado_722400" data-name="Trazado 722400" d="M269.835,216.249a1.321,1.321,0,1,0,.905-1.634,1.321,1.321,0,0,0-.905,1.634" transform="translate(-144.445 -114.879)" fill="#dc84f4"/>
            <path id="Trazado_722401" data-name="Trazado 722401" d="M262.312,207.679a1.321,1.321,0,1,0,.905-1.634,1.321,1.321,0,0,0-.905,1.634" transform="translate(-140.417 -110.291)" fill="#dc84f4"/>
            <path id="Trazado_722402" data-name="Trazado 722402" d="M263.753,195.525a1.321,1.321,0,1,0,.905-1.634,1.321,1.321,0,0,0-.905,1.634" transform="translate(-141.189 -103.784)" fill="#dc84f4"/>
            <g id="Grupo_984259" data-name="Grupo 984259" transform="translate(129.565 92.12)" opacity="0.5" style="mix-blend-mode: screen;isolation: isolate">
              <g id="Grupo_984258" data-name="Grupo 984258">
                <g id="Grupo_984257" data-name="Grupo 984257" clip-path="url(#clip-path-22)">
                  <path id="Trazado_722403" data-name="Trazado 722403" d="M278.911,199.239a.751.751,0,1,0,.514-.928.751.751,0,0,0-.514.928" transform="translate(-278.882 -198.282)" fill="#dc84f4"/>
                </g>
              </g>
            </g>
            <g id="Grupo_984262" data-name="Grupo 984262" transform="translate(130.249 92.33)" opacity="0.5" style="mix-blend-mode: screen;isolation: isolate">
              <g id="Grupo_984261" data-name="Grupo 984261">
                <g id="Grupo_984260" data-name="Grupo 984260" clip-path="url(#clip-path-23)">
                  <path id="Trazado_722404" data-name="Trazado 722404" d="M280.363,199.027a.229.229,0,1,0,.157-.283.229.229,0,0,0-.157.283" transform="translate(-280.354 -198.735)" fill="#dc84f4"/>
                </g>
              </g>
            </g>
            <g id="Grupo_984265" data-name="Grupo 984265" transform="translate(131.269 93.103)" opacity="0.5" style="mix-blend-mode: screen;isolation: isolate">
              <g id="Grupo_984264" data-name="Grupo 984264">
                <g id="Grupo_984263" data-name="Grupo 984263" clip-path="url(#clip-path-24)">
                  <path id="Trazado_722405" data-name="Trazado 722405" d="M282.8,201.206a.422.422,0,1,0-.217-.555.422.422,0,0,0,.217.555" transform="translate(-282.549 -200.398)" fill="#dc84f4"/>
                </g>
              </g>
            </g>
            <g id="Grupo_984268" data-name="Grupo 984268" transform="translate(131.486 93.214)" opacity="0.5" style="mix-blend-mode: screen;isolation: isolate">
              <g id="Grupo_984267" data-name="Grupo 984267">
                <g id="Grupo_984266" data-name="Grupo 984266" clip-path="url(#clip-path-25)">
                  <path id="Trazado_722406" data-name="Trazado 722406" d="M283.092,200.884a.129.129,0,1,0-.066-.17.128.128,0,0,0,.066.17" transform="translate(-283.015 -200.638)" fill="#dc84f4"/>
                </g>
              </g>
            </g>
            <path id="Trazado_722407" data-name="Trazado 722407" d="M227.91,340.6a3.454,3.454,0,1,0,2.368-4.273,3.454,3.454,0,0,0-2.368,4.273" transform="translate(-121.953 -180)" fill="#dc84f4"/>
            <line id="Línea_3033" data-name="Línea 3033" y1="3.319" x2="1.84" transform="translate(109.875 154.198)" fill="none" stroke="#dc84f4" stroke-miterlimit="10" stroke-width="1.593"/>
            <line id="Línea_3034" data-name="Línea 3034" x1="1.004" y1="3.498" transform="translate(107.469 153.715)" fill="none" stroke="#dc84f4" stroke-miterlimit="10" stroke-width="1.593"/>
            <line id="Línea_3035" data-name="Línea 3035" x1="2.9" y1="1.831" transform="translate(104.193 156.612)" fill="none" stroke="#dc84f4" stroke-miterlimit="10" stroke-width="1.593"/>
            <line id="Línea_3036" data-name="Línea 3036" x1="3.498" y2="1.004" transform="translate(103.736 160.392)" fill="none" stroke="#dc84f4" stroke-miterlimit="10" stroke-width="1.593"/>
            <line id="Línea_3037" data-name="Línea 3037" x1="1.586" y2="2.861" transform="translate(106.667 161.929)" fill="none" stroke="#dc84f4" stroke-miterlimit="10" stroke-width="1.593"/>
            <line id="Línea_3038" data-name="Línea 3038" x2="1.02" y2="3.558" transform="translate(110.13 162.096)" fill="none" stroke="#dc84f4" stroke-miterlimit="10" stroke-width="1.593"/>
            <line id="Línea_3039" data-name="Línea 3039" x2="2.575" y2="1.427" transform="translate(111.815 161.035)" fill="none" stroke="#dc84f4" stroke-miterlimit="10" stroke-width="1.593"/>
            <line id="Línea_3040" data-name="Línea 3040" y1="0.91" x2="3.172" transform="translate(112.113 157.922)" fill="none" stroke="#dc84f4" stroke-miterlimit="10" stroke-width="1.593"/>
            <path id="Trazado_722408" data-name="Trazado 722408" d="M228.129,328.149a1.321,1.321,0,1,0,.905-1.634,1.321,1.321,0,0,0-.905,1.634" transform="translate(-122.115 -174.793)" fill="#dc84f4"/>
            <path id="Trazado_722409" data-name="Trazado 722409" d="M238.27,328.832a1.321,1.321,0,1,0,.906-1.634,1.321,1.321,0,0,0-.906,1.634" transform="translate(-127.545 -175.158)" fill="#dc84f4"/>
            <path id="Trazado_722410" data-name="Trazado 722410" d="M246.6,337.955a1.321,1.321,0,1,0,.906-1.634,1.321,1.321,0,0,0-.906,1.634" transform="translate(-132.003 -180.042)" fill="#dc84f4"/>
            <path id="Trazado_722411" data-name="Trazado 722411" d="M245.294,349.471a1.321,1.321,0,1,0,.905-1.634,1.321,1.321,0,0,0-.905,1.634" transform="translate(-131.305 -186.208)" fill="#dc84f4"/>
            <path id="Trazado_722412" data-name="Trazado 722412" d="M236.985,357.1a1.321,1.321,0,1,0,.905-1.634,1.321,1.321,0,0,0-.905,1.634" transform="translate(-126.857 -190.294)" fill="#dc84f4"/>
            <path id="Trazado_722413" data-name="Trazado 722413" d="M226.01,355.277a1.321,1.321,0,1,0,.905-1.634,1.321,1.321,0,0,0-.905,1.634" transform="translate(-120.981 -189.317)" fill="#dc84f4"/>
            <path id="Trazado_722414" data-name="Trazado 722414" d="M218.488,346.708a1.321,1.321,0,1,0,.905-1.634,1.321,1.321,0,0,0-.905,1.634" transform="translate(-116.953 -184.729)" fill="#dc84f4"/>
            <path id="Trazado_722415" data-name="Trazado 722415" d="M219.928,334.553a1.321,1.321,0,1,0,.905-1.634,1.321,1.321,0,0,0-.905,1.634" transform="translate(-117.724 -178.221)" fill="#dc84f4"/>
            <g id="Grupo_984271" data-name="Grupo 984271" transform="translate(109.205 156.711)" opacity="0.5" style="mix-blend-mode: screen;isolation: isolate">
              <g id="Grupo_984270" data-name="Grupo 984270">
                <g id="Grupo_984269" data-name="Grupo 984269" clip-path="url(#clip-path-22)">
                  <path id="Trazado_722416" data-name="Trazado 722416" d="M235.086,338.269a.751.751,0,1,0,.514-.928.751.751,0,0,0-.514.928" transform="translate(-235.057 -337.311)" fill="#dc84f4"/>
                </g>
              </g>
            </g>
            <g id="Grupo_984274" data-name="Grupo 984274" transform="translate(109.889 156.921)" opacity="0.5" style="mix-blend-mode: screen;isolation: isolate">
              <g id="Grupo_984273" data-name="Grupo 984273">
                <g id="Grupo_984272" data-name="Grupo 984272" clip-path="url(#clip-path-23)">
                  <path id="Trazado_722417" data-name="Trazado 722417" d="M236.538,338.056a.229.229,0,1,0,.157-.283.229.229,0,0,0-.157.283" transform="translate(-236.529 -337.764)" fill="#dc84f4"/>
                </g>
              </g>
            </g>
            <g id="Grupo_984277" data-name="Grupo 984277" transform="translate(110.909 157.694)" opacity="0.5" style="mix-blend-mode: screen;isolation: isolate">
              <g id="Grupo_984276" data-name="Grupo 984276">
                <g id="Grupo_984275" data-name="Grupo 984275" clip-path="url(#clip-path-24)">
                  <path id="Trazado_722418" data-name="Trazado 722418" d="M238.978,340.235a.422.422,0,1,0-.217-.555.422.422,0,0,0,.217.555" transform="translate(-238.725 -339.427)" fill="#dc84f4"/>
                </g>
              </g>
            </g>
            <g id="Grupo_984280" data-name="Grupo 984280" transform="translate(111.125 157.805)" opacity="0.5" style="mix-blend-mode: screen;isolation: isolate">
              <g id="Grupo_984279" data-name="Grupo 984279">
                <g id="Grupo_984278" data-name="Grupo 984278" clip-path="url(#clip-path-25)">
                  <path id="Trazado_722419" data-name="Trazado 722419" d="M239.267,339.913a.129.129,0,1,0-.066-.17.129.129,0,0,0,.066.17" transform="translate(-239.19 -339.666)" fill="#dc84f4"/>
                </g>
              </g>
            </g>
          </g>
        </g>
      </g>
    </g>
  </g>
</svg>
