<svg id="Grupo_983986" data-name="Grupo 983986" xmlns="http://www.w3.org/2000/svg" xmlns:xlink="http://www.w3.org/1999/xlink" width="175.714" height="224.463" viewBox="0 0 175.714 224.463">
  <defs>
    <clipPath id="clip-path">
      <rect id="Rectángulo_344761" data-name="Rectángulo 344761" width="175.714" height="224.463" fill="none"/>
    </clipPath>
  </defs>
  <g id="Grupo_983985" data-name="Grupo 983985" clip-path="url(#clip-path)">
    <path id="Trazado_720803" data-name="Trazado 720803" d="M26.292,110.188c13.238,7.642,34.767,7.6,48.088-.088s13.388-20.12.152-27.763-34.769-7.6-48.088.088-13.39,20.122-.152,27.763" transform="translate(21.381 99.854)" fill="#eaeaea"/>
    <path id="Trazado_720804" data-name="Trazado 720804" d="M32.23,81.112s-1.368,2.368-1.292,3.411,3.455,3.759,4.567,4.79,3.929,4.717,4.337,6.251,3.512,6.87,8.825,5.467c3.342-.882,2.478-5.283,2.374-6.654s-3.671-6.414-5.1-6.976-2.384-3.514-2.8-5.569-10.919-.721-10.919-.721" transform="translate(40.31 105.141)" fill="#37310e"/>
    <path id="Trazado_720805" data-name="Trazado 720805" d="M32.01,79.776l.622,7s1.783,4.85,2.165,6.766.675,4.017-.569,5.007-4.212.721-6.974-.792-4.076-3.395-4.682-6.861-1.324-5.944-1.456-6.559.7-6.184.7-6.184Z" transform="translate(27.499 101.837)" fill="#37310e"/>
    <path id="Trazado_720806" data-name="Trazado 720806" d="M47.046,44.109s4.661,43.208,3.993,49.085-3.07,23.59-3.655,30.253-.274,9.373-.5,9.866-6.253,2.319-9.839,1.223a7.191,7.191,0,0,1-4.572-4.574s1.442-21.027,1.027-25.734-3.4-23.959-3.243-30.67S27.784,47.37,32.04,44.832s15.007-.723,15.007-.723" transform="translate(38.565 56.659)" fill="#1e8439"/>
    <path id="Trazado_720807" data-name="Trazado 720807" d="M45.48,45.371s-2.011,8.894-1.1,15.258A50.708,50.708,0,0,1,43.8,78.192c-.739,3.381-4.889,19.042-5.226,22.558S34.3,128.191,34.1,129.944s-6.011,2.872-7.941,2.653-4.371-1.386-5.2-3.434.468-32.268,1.271-35.529c1.621-6.584-.576-15.785-1.1-27.314-.327-7.13-2.335-15.078.815-22.271s23.54,1.322,23.54,1.322" transform="translate(26.313 53.635)" fill="#1e9e39"/>
    <path id="Trazado_720808" data-name="Trazado 720808" d="M31.592,21.334l5.17,8.031a49.173,49.173,0,0,1,3.855,8.176q1.351,3.244,2.718,6.481,2.736,6.488,5.491,12.969c1.267,3,6.755.818,8.809-.152.811-.385,1.9-.859,2.186-1.762.6-1.882-.562-3.977-1.032-5.755a66.716,66.716,0,0,0-2.236-6.877c-.755-1.953-1.568-3.881-2.374-5.811-.419-1-.836-1.992-1.241-2.994A10.109,10.109,0,0,1,51.815,30.8,51.038,51.038,0,0,0,49.5,25.18a39.4,39.4,0,0,0-3.369-5.074A13.211,13.211,0,0,0,38.846,15.1a7.884,7.884,0,0,0-3.425.085,9.306,9.306,0,0,0-2.577.539,3.858,3.858,0,0,0-2.163,3.413,4.483,4.483,0,0,0,.91,2.2" transform="translate(39.98 19.481)" fill="#d41d0b"/>
    <path id="Trazado_720809" data-name="Trazado 720809" d="M18.413,26.936c3.938-2.1,5.5-2.7,9.523-4.638,2.46-1.184,4.747-2.5,7.126-3.789,3.229-1.75,6.939-2.391,10.5-3.128,1.9-.394,3.1-.864,4.977-.256a25.9,25.9,0,0,1,5.587,2.6,7.145,7.145,0,0,1,1.679,1.32c.4.456.686.99,1.057,1.467.624.8,1.573,1.264,2.153,2.047a15.785,15.785,0,0,1,1.681,4.212c1.4,4.291,1.624,9.212,2.312,13.676.313,2.031.6,4.231-.375,6.041a17.784,17.784,0,0,1-2.216,2.722c-4.113,4.958-3.452,13.438-2,19.279,1.488,5.981,2.883,9.134,2.948,10.267S54.2,90.045,42.376,89.517s-16.149-1.9-18.266-3.328-1.34-14.383-2.036-17.683S22.45,52.7,20.269,49s-3.045-19.873-1.856-22.066" transform="translate(23.296 19.33)" fill="#ff2c17"/>
    <path id="Trazado_720810" data-name="Trazado 720810" d="M19.656,52.858c.781-1.578,3.883-.334,5.3-1.039,2.013-1,3.489-3.293,4.519-5.214a12.569,12.569,0,0,0,1.515-3.874c.157-.993.088-2.011.21-3.008a3.814,3.814,0,0,1,1.28-2.642c1.191-.9,2.913-.274,4.325-.788s2.752-1.285,4.205-1.665c2.858-.746,5.654-1.7,8.448-2.658q2.021-.694,4.044-1.384a16.719,16.719,0,0,0,3.015-1.255c1.644-.951,2.635-2.467,4.033-3.66a4.978,4.978,0,0,1,2,2.7c.3,1.2-.221,2.623-.173,3.862.076,1.939-.877,3.828-.928,5.774-.014.516-.041,1.032-.062,1.548q-.155,4-.313,8-.345,8.706-.686,17.416l-.035.894s.1,7.814-9.737,10.668a39.787,39.787,0,0,1-14.965.905c-3.888-.4-8.065-1.052-11.5-3.029a12.882,12.882,0,0,0-1.269-.569,4.093,4.093,0,0,1-.714-.387c-1.062-.746-1.191-2.112-1.276-3.3-.226-3.144-.55-6.278-.875-9.415q-.231-2.27-.468-4.539a6.044,6.044,0,0,1,.1-3.339" transform="translate(25.233 33.453)" fill="#1e8439"/>
    <path id="Trazado_720811" data-name="Trazado 720811" d="M26.635,40.079C43.141,38.955,46.13,35.2,49.9,31.82l.385,15.311C46.552,50.825,42.9,54.4,27.091,55.565Z" transform="translate(34.707 41.463)" fill="#1e9e39"/>
    <path id="Trazado_720812" data-name="Trazado 720812" d="M6.046,134.584A31.647,31.647,0,0,1,0,133.966l1.147-5.9c5.511,1.071,9.82.477,13.169-1.813,7.519-5.138,9.919-18.328,12.462-32.289,1.707-9.39,3.473-19.1,7.011-26.914l.127-.279c6.607-14.6,12.434-23.314,47.411-18.669l-.795,5.963C48.212,49.771,44.894,57.1,39.4,69.248l-.129.281c-3.229,7.142-4.929,16.478-6.573,25.509-2.773,15.235-5.391,29.624-14.984,36.179a20.218,20.218,0,0,1-11.665,3.367" transform="translate(0 61.045)" fill="#e5ab1f"/>
    <path id="Trazado_720813" data-name="Trazado 720813" d="M38.857,33.365a16.32,16.32,0,0,1,.967,4.127c.1,3.293,1.43,6.555,1.145,9.848a2.584,2.584,0,0,1-.21.924c-.433.88-6.278,2.333-6.294,2.142-.44-5.408-.8-10.64-2.462-15.852-.511-1.608-1.179-3.144-1.628-4.749-.456-1.633-1.43-2.37-2.524-3.637a13.588,13.588,0,0,0-5.53-4.014c-.958-.362-2.586-.292-3.379-.928-.438-.35,4.747-2.609,5.1-2.7,2.257-.6,4.56.472,6.251,1.928a36.961,36.961,0,0,1,6.426,7.315,15.572,15.572,0,0,1,1.958,4.942c.055.223.115.442.177.659" transform="translate(24.649 23.915)" fill="#3f9656"/>
    <path id="Trazado_720814" data-name="Trazado 720814" d="M36.741,49.045s-.048,3.542,2.628,4.447,3.535,2.462,4.671.368,0-10.739,0-10.739-5.771.569-7.3,5.923" transform="translate(47.876 56.19)" fill="#d41d0b"/>
    <path id="Trazado_720815" data-name="Trazado 720815" d="M49.817,44.318c.578.951.074,1.815-.212,2.75q-.542,1.786-1.064,3.574c-.643,2.176-1.292,4.438-1.868,6.58-.182.682.078.875-.064,1.536s-.511.219-.967.677a13.041,13.041,0,0,1-3.68,3.045c-1.336.6-3.349.184-4.5.138a6.24,6.24,0,0,1-3.7-1.773c-.59-.555-.979-1.034-.518-1.826a1.52,1.52,0,0,1,1.831-.751,9.96,9.96,0,0,0,3.48.645c1.875.263,2.939.343,3.358.028s1.223-1.737.97-2.163-.7-.14-1.38-.829a15.238,15.238,0,0,0-3.245-1.725c-.039-.016,1.617-2.812,1.741-2.992.873-1.257,2.25-1.813,3.275-2.877.486-.5.408-.785.633-1.416a5.327,5.327,0,0,1,1.354-1.863,5.274,5.274,0,0,1,2.181-1.5,2.108,2.108,0,0,1,2.374.742" transform="translate(43.054 56.657)" fill="#f7be96"/>
    <path id="Trazado_720816" data-name="Trazado 720816" d="M33.075,53.267c.532,1.806,2.02,2.156,3.326.785A6.545,6.545,0,0,0,37.8,48.3c-.532-1.8-2.02-2.156-3.326-.785a6.54,6.54,0,0,0-1.4,5.751" transform="translate(42.852 60.828)" fill="#b4bdc2"/>
    <path id="Trazado_720817" data-name="Trazado 720817" d="M33.787,53.422c.532,1.806,2.02,2.156,3.326.785a6.545,6.545,0,0,0,1.4-5.751c-.532-1.8-2.02-2.156-3.326-.785a6.538,6.538,0,0,0-1.4,5.751" transform="translate(43.78 61.03)" fill="#b4bdc2"/>
    <path id="Trazado_720818" data-name="Trazado 720818" d="M34.985,54.087l19.106,1.921.864-4.652s-15.744-4.219-18.173-4.323c-1.8-.076-4.491,4.473-1.8,7.054" transform="translate(44.102 61.285)" fill="#d1d6d9"/>
    <path id="Trazado_720819" data-name="Trazado 720819" d="M52.724,36.084a27.254,27.254,0,0,1-.935,8.2c-.509,1.935-1.059,3.855-1.621,5.774-1.281,4.355-2.651,8.685-4.067,13-.672,2.052-1.451,4.086-2.061,6.156,0,0,1.214-4.122-2.121-5.684-3.468-1.624-5.177.866-5.177.866q.663-3.538,1.32-7.08a65.367,65.367,0,0,0,.755-6.73A130.669,130.669,0,0,1,40.99,36.2a3.619,3.619,0,0,1,.387-1.2,3.463,3.463,0,0,1,.921-.91,13.715,13.715,0,0,1,4.523-2.462,6.265,6.265,0,0,1,5,.544,1.261,1.261,0,0,1,.438.4,1.474,1.474,0,0,1,.154.569c.122.974.235,1.962.306,2.95" transform="translate(47.876 40.842)" fill="#ff2c17"/>
    <path id="Trazado_720820" data-name="Trazado 720820" d="M47.441,44.168c.387-8.224.709-16.851-4.82-23.523-1.105-1.331-5.9-6.981-7.927-6.02-1.078.509-2.971.981-3.742,1.879a.517.517,0,0,0-.134.249c-.035.244.223.417.442.53a21.549,21.549,0,0,1,8.685,8.275c2.232,3.842,2.4,9,2.923,13.316.055.447.295,7.734.189,7.738.007,0,3.157-.127,4.385-2.444" transform="translate(40.153 18.915)" fill="#3f9656"/>
    <path id="Trazado_720821" data-name="Trazado 720821" d="M35.439,51.372a1.293,1.293,0,0,1,.366-1.281c.594-.525.212-.8.147-1.018a3.5,3.5,0,0,1,1.2-2.052c.691-.444,2.575-1.119,3.475-.424s1.37,1.737.491,2.757S39.608,50.5,38.949,51.3s-1.483,2.146-2.1,1.716-1.389-1.023-1.4-1.644" transform="translate(46.124 60.329)" fill="#fcd1b3"/>
    <path id="Trazado_720822" data-name="Trazado 720822" d="M31.449,43.643s.792,1.624,1.967,1.992a23.1,23.1,0,0,1,3.643,1.039c.979.5,2.068.818,3.019,1.419a18.767,18.767,0,0,1,2.655,1.437,3.78,3.78,0,0,0,1.032.636,2.911,2.911,0,0,1,.59.272.675.675,0,0,1,.322.534.638.638,0,0,1-.343.518,1.659,1.659,0,0,1-.624.173,7.333,7.333,0,0,1-2.4,0c-.719-.159-1.4-.567-2.1-.8-.424-.14-1.241-.456-1.667-.226a2.433,2.433,0,0,0-.765,1.117,10.857,10.857,0,0,0,.656,2.3,13.7,13.7,0,0,0,1.308,1.974,2.77,2.77,0,0,0,.806.924,10.935,10.935,0,0,0,1.453.474,1.7,1.7,0,0,1,.44.2,1.893,1.893,0,0,1,.412,1.992c-.081.286.184.511-.709.9a6.746,6.746,0,0,1-2.243.373c-.295.534-1.833.184-2.266.115a9.382,9.382,0,0,1-3.185-1.124c-.668-.382-1.2-.928-1.845-1.336a3.189,3.189,0,0,1-1.28-1.1c-.269-.5-1.847-5.389-2.515-6.7s-3.434-3.452-3.344-4.431,6.974-2.667,6.974-2.667" transform="translate(31.89 56.869)" fill="#f7be96"/>
    <path id="Trazado_720823" data-name="Trazado 720823" d="M15.556,42.872c.09-1.626-.03-8.047,1.543-13.8s2.683-8.155,3.938-8.818S26,21.345,27.345,26.44,28.8,35.1,29.262,41.117c.548,7.077-.841,18.464-.841,18.464s15.76,14.4,15.806,15.037-3.379.567-4.189,3.114a13.2,13.2,0,0,0-.223,5.594S18.605,68.408,17.191,65.235s-1.635-22.363-1.635-22.363" transform="translate(20.27 26.22)" fill="#ff412e"/>
    <path id="Trazado_720824" data-name="Trazado 720824" d="M41.157,22.451s-2.777,6-3.3,8.666-5.6,1.446-7.888.818S24.973,26.891,24.708,26a5.944,5.944,0,0,1,.136-2.439,8.522,8.522,0,0,0,1.64-7c-.905-4.067-1.126-4.832-1.126-4.832s8.01.631,8.362,1.089,7.437,9.634,7.437,9.634" transform="translate(32.078 15.282)" fill="#f7be96"/>
    <path id="Trazado_720825" data-name="Trazado 720825" d="M43.052,5.47a11.737,11.737,0,0,1,2.764,6.762,24.17,24.17,0,0,1-.1,7.9c-.189,1.161-.332,6.757-1.918,11.271s-1.9,4.079-5.159,4.023-8.079-3.666-9.519-5.629-2.073-7.936-2.632-9.18-2.768-8.185-.474-11.865,8.328-4.6,8.328-4.6Z" transform="translate(32.565 5.412)" fill="#fcd1b3"/>
    <path id="Trazado_720826" data-name="Trazado 720826" d="M35.646,12.374l-.965,6.1s-2.487,2.623-2.556,3.874-.1,1.836-.1,1.836l-1.718-.721s-.025-2.6-1.794-3.111-1.073,4.291-.562,5.615-.47,1.69-.47,1.69a18.607,18.607,0,0,1-4.1-12.024c.039-7.526,3.97-9.82,5.009-10.433s4.588-4.3,11.9-1.81,8.593,7.25,8.775,9.27a18.975,18.975,0,0,1-.831,5.391l-.438-4.581a13.086,13.086,0,0,1-5.2-.415c-3.217-.806-6.8-1.628-6.948-.677" transform="translate(30.461 3.296)" fill="#6a3120"/>
    <path id="Trazado_720827" data-name="Trazado 720827" d="M28.657,48.64s3.222,3.466,3.524,3.888a20.739,20.739,0,0,0,3.641,1.66s-2.727-1.412-3.3-1.679-3.5-4.051-3.5-4.051Z" transform="translate(37.342 63.144)" fill="#f4a974"/>
    <path id="Trazado_720828" data-name="Trazado 720828" d="M28.107,49.248s3.045,2.9,3.381,3.227a17.5,17.5,0,0,0,2.95,1.11l-.343.1s-2.3-.806-2.683-.963-3.342-3.208-3.342-3.208Z" transform="translate(36.577 64.173)" fill="#f4a974"/>
    <path id="Trazado_720829" data-name="Trazado 720829" d="M27.978,11.456a2.472,2.472,0,0,0-2.153-1.64c-1.564.012-1.552,1.718-1.14,2.775s1.439,4.316,2.034,4.615,1.3.668,1.67.17.078-2.835.058-3.307-.454-2.315-.468-2.614" transform="translate(31.858 12.791)" fill="#ffdec7"/>
    <path id="Trazado_720830" data-name="Trazado 720830" d="M58.376,16.159c-4.03,5.3-15.44,7.9-25.486,5.824s-14.926-8.065-10.9-13.362S37.434.717,47.48,2.8s14.924,8.063,10.9,13.36" transform="translate(26.817 2.713)" fill="#ffc45b"/>
    <path id="Trazado_720831" data-name="Trazado 720831" d="M49.205,3.3l-3.772.111A21.265,21.265,0,0,0,39.5,2.064,22.727,22.727,0,0,0,27.923,3.93l-3.68.111-.834,4.47a4.414,4.414,0,0,0-.134.714l-.009.046.007,0c-.311,3.768,4.574,7.137,11.587,7.75,7.584.663,14.774-2.149,16.057-6.278a4.2,4.2,0,0,0-.117-2.83l.009-.007Z" transform="translate(30.308 2.565)" fill="#f2a93f"/>
    <path id="Trazado_720832" data-name="Trazado 720832" d="M48.362,7.287c-1.149,3.521-7.543,5.993-14.281,5.518S22.812,9.1,23.961,5.576,31.5-.414,38.242.058s11.269,3.71,10.12,7.229" transform="translate(30.99 0)" fill="#ffd77e"/>
    <path id="Trazado_720833" data-name="Trazado 720833" d="M41.481,54.113c.472,1.6,1.792,1.912,2.95.7a5.8,5.8,0,0,0,1.244-5.1c-.472-1.6-1.792-1.912-2.95-.7a5.8,5.8,0,0,0-1.244,5.1" transform="translate(53.835 62.901)" fill="#b4bdc2"/>
    <path id="Trazado_720834" data-name="Trazado 720834" d="M42.109,54.264c.472,1.6,1.792,1.914,2.95.7a5.807,5.807,0,0,0,1.244-5.1c-.472-1.6-1.792-1.912-2.95-.7a5.8,5.8,0,0,0-1.244,5.1" transform="translate(54.652 63.098)" fill="#b4bdc2"/>
    <path id="Trazado_720835" data-name="Trazado 720835" d="M42.4,52.981c.327,1.112,1.246,1.329,2.05.484a4.03,4.03,0,0,0,.866-3.544c-.327-1.112-1.246-1.331-2.052-.486a4.042,4.042,0,0,0-.864,3.547" transform="translate(55.098 63.745)" fill="#6b7d87"/>
    <path id="Trazado_720836" data-name="Trazado 720836" d="M72.4,82.864a35.787,35.787,0,0,1,3.231,6.589c.62,2.1.672,4.367,1.543,6.377.861,1.99,2.363,3.59,2.725,5.744l1.458,8.687a66.979,66.979,0,0,1,1.119,9.3c.06,2.211-.1,4.422-.17,6.633a100.383,100.383,0,0,0,.569,13.362c.233,2.3.417,4.645.82,6.918.461,2.609-.223,7.319,2.814,8.7a6.785,6.785,0,0,0,2.573.431l3.683.131a4.641,4.641,0,0,0,2.008-.223c1.069-.456,1.633-1.612,2.494-2.391,1.389-1.257,3.413-1.426,5.175-2.068a7.687,7.687,0,0,0,5.159-6.078c.2-1.958-.668-3.466-1.1-5.29-.352-1.488-.5-3.054-.887-4.565-.808-3.1-1.764-6.085-2.308-9.261-1.089-6.382-1.458-12.858-2.487-19.249-.949-5.9-2.317-12.282-4.894-17.708-2.446-5.145-6.605-10.044-9.776-14.839a17.108,17.108,0,0,0-2.874-3.59,23.118,23.118,0,0,0-4.238-2.57c-4.049-2.2-7.017-5.649-10.467-8.625a34.835,34.835,0,0,0-3.717-3.061,20.75,20.75,0,0,0-3.5-1.709,102.094,102.094,0,0,0-11.589-3.9c-1.4-.38-5.919-1.534-6.888.263-1.294,2.4,5.576,4.03,6.856,4.984a19.237,19.237,0,0,1,2.034,2.008,23.239,23.239,0,0,0,7.45,4.555,20.332,20.332,0,0,1,6.244,3.6c3.9,3.775,3.867,9.949,6.006,14.938.279.652.6,1.287.935,1.914" transform="translate(55.66 65.011)" fill="#73d0ff"/>
    <path id="Trazado_720837" data-name="Trazado 720837" d="M96.3,88.788a14.227,14.227,0,0,0-3.954,1.234l-2.117,1.122a.7.7,0,0,0-.244.177.74.74,0,0,0-.06.555c.253,1.769.242,3.005-1.485,3.7-1.386.555-2.856.677-4.063,1.649a15.187,15.187,0,0,0-1.589,1.9,9.539,9.539,0,0,1-3.376,2.11q-2.432,1.078-4.859,2.158c-1.99.882-4.657,1.536-6.545-.039-1.4-1.172-.147-4.7-1.17-5.272a.64.64,0,0,0-.373-.041c-3.372.279-6.734.7-9.728,2.421a1.966,1.966,0,0,0-.947.91c-.295.785.479,1.624,1.3,1.8a8.461,8.461,0,0,0,2.506-.152,6.261,6.261,0,0,1,5.44,2.384,6.912,6.912,0,0,0,1.508,1.776,4.348,4.348,0,0,0,1.575.516q3.351.639,6.72,1.184a6.686,6.686,0,0,0,2.966.025,6.8,6.8,0,0,0,2.14-1.274q1.962-1.527,3.927-3.052a7.334,7.334,0,0,1,2.473-1.449,9.956,9.956,0,0,1,2.112-.21,14.083,14.083,0,0,0,8.5-3.459c1.023-.9,1.907-1.937,2.9-2.863a20.609,20.609,0,0,0,2.273-2.209,3.918,3.918,0,0,0,.947-2.936,3.582,3.582,0,0,0-2.731-2.7,10.377,10.377,0,0,0-4.046.039" transform="translate(72.608 115.408)" fill="#9ddeff"/>
  </g>
</svg>
