<svg xmlns="http://www.w3.org/2000/svg" xmlns:xlink="http://www.w3.org/1999/xlink" width="234.178" height="217" viewBox="0 0 234.178 217">
  <defs>
    <clipPath id="clip-path">
      <rect id="Rectángulo_345007" data-name="Rectángulo 345007" width="234.178" height="185.776" fill="none"/>
    </clipPath>
  </defs>
  <g id="Grupo_984343" data-name="Grupo 984343" transform="translate(-369.822 -9307)">
    <circle id="Elipse_5885" data-name="Elipse 5885" cx="108.5" cy="108.5" r="108.5" transform="translate(387 9307)" fill="#06d1d1"/>
    <g id="Grupo_984286" data-name="Grupo 984286" transform="translate(369.822 9319.379)">
      <g id="Grupo_984285" data-name="Grupo 984285" clip-path="url(#clip-path)">
        <path id="Trazado_722421" data-name="Trazado 722421" d="M198.658,0H134.672L90.01,57.376s-4.2,9.3-8.265,9.153-12.768.3-17.769,6S44.552,94.571,37.6,98.164,24.363,123.795,9.282,127.085c0,0-2.669,1.276-1.9,3.615.625,1.891,4.318,4.906,7.062,5.155,6.138.557,13.467-2.746,17.6-7.323,0,0,10.954-11.857,18.248-12.8,0,0,46.221,34.991,48.534,27.9,5.7-17.473,23.929-30.5,23.034-53.3Z" transform="translate(-2.096)" fill="#ffc08b"/>
        <path id="Trazado_722422" data-name="Trazado 722422" d="M15.8,176.194a1.871,1.871,0,0,0-.235-1.4,2.183,2.183,0,0,0-.9-.894S.7,178.056.286,178.333s-.466,1.043.441,2.133c.93,1.117,2.134,1.748,4.985,1.534,3.584-.269,9.2-2.828,10.084-5.806" transform="translate(0 -50.302)" fill="#ffe5cf"/>
        <path id="Trazado_722423" data-name="Trazado 722423" d="M45.045,199.817c-.868,1.674-1.408,2.721-1.408,2.721.439-.891.912-1.8,1.408-2.721" transform="translate(-12.622 -57.799)" fill="#f8a769"/>
        <path id="Trazado_722424" data-name="Trazado 722424" d="M63.743,159.642s5.338-10.668,9.316-10.272c4.92.49,4.774,4.3,8.276,5.25s4.633-4.984,8.359-3.745c4.774,1.589,3.1,4.377,5.886,4.773s3.745-5.653,9.634-3.9c4.71,1.4,3.5,5.569,4.532,5.648.36.028.638-2.229,3.344-2.709,2.087-.369,5.81.078,7,4.774a26.9,26.9,0,0,1-.724,14.087c-.477,1.433-2.63,7.4-3.028,8.6s-2.871,11.144-2.871,11.144L88.164,185.18,65.009,174.6s-3.894-9.149-1.266-14.962" transform="translate(-18.175 -43.203)" fill="#f8a769"/>
        <path id="Trazado_722425" data-name="Trazado 722425" d="M39.924,210.916a8.267,8.267,0,0,1-3.49-11.164l19.353-36.965c.164-.149.335-.287.493-.445l3.265-3.266c.224-.224.429-.461.63-.7a2.1,2.1,0,0,0,.775.009c2.726-.483,6.546.232,7.668,3.079-.082.229-.151.463-.213.7a1.543,1.543,0,0,0-.153.815c-.042.317-5.756,16-5.424,15.942.478-.08,8.155-12.145,9.042-13.995a6.448,6.448,0,0,0,.509-1.566,19.006,19.006,0,0,1,3.317-2.951l-24.607,47a8.28,8.28,0,0,1-11.167,3.5" transform="translate(-10.265 -45.774)" fill="#ffc08b"/>
        <path id="Trazado_722426" data-name="Trazado 722426" d="M68.612,157.62a30.133,30.133,0,0,0-4.5,4.37,51.361,51.361,0,0,0-4.434,6.61l2.614-5.027s3.4-4.4,4.878-5.346,1.439-.607,1.439-.607" transform="translate(-17.264 -45.576)" fill="#f8a769"/>
        <path id="Trazado_722427" data-name="Trazado 722427" d="M64.094,197.4c2.67-6.749,6.169-16.417,8.488-23.388,1.968-5.917,3.176-8.552,2.979-11.392s1.355-2.141,1.355-2.141c.574,4.972-8.336,26.552-13.019,37.458,0-.081.214-.459.2-.537" transform="translate(-18.483 -46.397)" fill="#f8a769"/>
        <path id="Trazado_722428" data-name="Trazado 722428" d="M57.877,163.691a10.735,10.735,0,0,1,1.5-2.525s3.319-3.909,6.032-5.1l-.148.3a1.381,1.381,0,0,1,.76-.125s.837,1.638-2.122,2.3c-2.4.534-11.923,16.821-18.285,28.628,3.236-6.247,11.016-21.25,12.259-23.471" transform="translate(-13.195 -45.143)" fill="#f8a769"/>
        <path id="Trazado_722429" data-name="Trazado 722429" d="M67.269,162.657a3.967,3.967,0,1,0,7.092,3.556l3.746-9a3.042,3.042,0,0,0-1.639-4.426,3.173,3.173,0,0,0-4.567,1.54Z" transform="translate(-19.336 -44.069)" fill="#ffe5cf"/>
        <path id="Trazado_722430" data-name="Trazado 722430" d="M64.079,215.485a8.264,8.264,0,0,1-4.143-10.936L77.062,166.53a1.683,1.683,0,0,0,1.67-.992,6.443,6.443,0,0,0,.509-1.565,20.967,20.967,0,0,1,3.854-3.338c2.24-.952,6.193.6,6.2,3.21a1.9,1.9,0,0,0,.189.822,27.742,27.742,0,0,0-.342,3.227,23.465,23.465,0,0,1-1.24,4.671c-.389,1.257-.688,2.538-.978,3.82-1.515,2.221-1.874,4.957-2.34,7.581-.239.633-.4,1.288-.713,1.918a.359.359,0,0,0,.254.506.716.716,0,0,0,.023.51c.208.392.805.051.6-.34.08.149.028.08.087-.069s.133-.3.207-.445q.241-.473.5-.938c.308-.555.645-1.1.922-1.67a.336.336,0,0,0-.028-.345c.345-.64.691-1.279,1.023-1.925a.328.328,0,0,0,.035-.178c.2-.264.387-.534.561-.817a.292.292,0,0,0-.06-.4c.355-.689.726-1.37,1.136-2.032.2-.323-.208-.613-.477-.456.461-1.158.913-2.318,1.371-3.479.731-1.594,1.41-3.213,2.014-4.861a18.372,18.372,0,0,0,1.409-2.7.333.333,0,0,0,.023-.124c1.159-1.208,2.205-2.512,3.306-3.77.009-.01.01-.021.018-.031.135-.074.269-.151.405-.225L75.02,211.331a8.279,8.279,0,0,1-10.941,4.154" transform="translate(-17.125 -46.384)" fill="#ffc08b"/>
        <path id="Trazado_722431" data-name="Trazado 722431" d="M88.752,161.526a30.092,30.092,0,0,0-4.23,4.628,51.137,51.137,0,0,0-4.037,6.859l2.315-5.173s3.132-4.589,4.552-5.625,1.4-.69,1.4-.69" transform="translate(-23.281 -46.707)" fill="#f8a769"/>
        <path id="Trazado_722432" data-name="Trazado 722432" d="M93.609,177.56c-2.765,10.3-7.473,26.039-9,29.872,0,0,13.7-36.969,12.532-43.637,0,0-1.589-.6-1.227,2.218s-.687,5.524-2.3,11.547" transform="translate(-24.473 -47.363)" fill="#f8a769"/>
        <path id="Trazado_722433" data-name="Trazado 722433" d="M78.876,167.956a10.777,10.777,0,0,1,1.35-2.608s3.083-4.1,5.721-5.45l-.13.307a1.385,1.385,0,0,1,.751-.168s.934,1.584-1.982,2.415c-2.367.675-10.908,17.494-16.563,29.656,2.861-6.428,9.742-21.863,10.853-24.152" transform="translate(-19.676 -46.252)" fill="#f8a769"/>
        <path id="Trazado_722434" data-name="Trazado 722434" d="M87.73,166.652a3.967,3.967,0,1,0,7.29,3.131l3.208-9.2a3.038,3.038,0,0,0-1.9-4.32,3.171,3.171,0,0,0-4.47,1.807Z" transform="translate(-25.283 -45.1)" fill="#ffe5cf"/>
        <path id="Trazado_722435" data-name="Trazado 722435" d="M89.444,216.579a8.267,8.267,0,0,1-4.665-10.725l15.137-38.424a.331.331,0,0,0,.19-.1,43.458,43.458,0,0,0,3.245-4.218.316.316,0,0,0,.065-.163c.972-.554,1.972-1.07,2.957-1.612a1.9,1.9,0,0,0,.96.22c3.005-.072,4.3,1.559,4.316,4.475a1.816,1.816,0,0,0,.52,1.309,16.707,16.707,0,0,0-.313,2.034.574.574,0,0,0,.07.335,28.3,28.3,0,0,0-.869,3.044c-.021.065-.036.131-.057.2a.6.6,0,0,0-.028.257,23.313,23.313,0,0,0-.394,2.725,17.726,17.726,0,0,1-1.166,3.858.344.344,0,0,0,.6.34,20.006,20.006,0,0,0,1.256-4.11q.38-1.22.765-2.437a.624.624,0,0,0,.22-.3c.182-.566.337-1.141.489-1.718a.54.54,0,0,0,.346-.34.567.567,0,0,0,.36-.409,23.276,23.276,0,0,1,.988-3.033,1.742,1.742,0,0,0,1.092-1.233,2.328,2.328,0,0,0,.284-.339c.936-1.375,1.307-2.606,3.057-3.114.2-.057.4-.1.595-.156L100.174,211.9a8.279,8.279,0,0,1-10.729,4.674" transform="translate(-24.356 -46.668)" fill="#ffc08b"/>
        <path id="Trazado_722436" data-name="Trazado 722436" d="M110.8,161.506a30.176,30.176,0,0,0-4,4.826,51.373,51.373,0,0,0-3.7,7.045l2.063-5.277s2.908-4.734,4.279-5.836,1.365-.758,1.365-.758" transform="translate(-29.821 -46.703)" fill="#f8a769"/>
        <path id="Trazado_722437" data-name="Trazado 722437" d="M116.8,177.21c-2.265,10.42-6.81,27.435-8.156,31.336,0,0,12.51-38.652,11.019-45.252,0,0-1.616-.53-1.119,2.272s-.419,5.551-1.745,11.644" transform="translate(-31.428 -47.223)" fill="#f8a769"/>
        <path id="Trazado_722438" data-name="Trazado 722438" d="M101.648,168.212a10.709,10.709,0,0,1,1.222-2.67s2.883-4.242,5.454-5.718l-.116.313a1.375,1.375,0,0,1,.742-.205s1.009,1.54-1.864,2.51c-2.332.788-10.056,18-15.12,30.414,2.549-6.556,8.68-22.3,9.682-24.644" transform="translate(-26.602 -46.231)" fill="#f8a769"/>
        <path id="Trazado_722439" data-name="Trazado 722439" d="M110.038,166.69a3.967,3.967,0,1,0,7.432,2.776l2.763-9.346a3.04,3.04,0,0,0-2.1-4.225,3.172,3.172,0,0,0-4.377,2.02Z" transform="translate(-31.756 -45.014)" fill="#ffe5cf"/>
        <path id="Trazado_722440" data-name="Trazado 722440" d="M115.11,214.75a7.44,7.44,0,0,1-5.08-9.22l8.842-30.52a.352.352,0,0,0,.063-.053,5.931,5.931,0,0,0,.93-1.85c.182-.4.356-.808.52-1.219a7.98,7.98,0,0,0,1.416-3.131c.1-.2.2-.408.284-.618a1.709,1.709,0,0,0,.831-1.113,2.211,2.211,0,0,0,.28-.334c.936-1.375,1.308-2.606,3.058-3.114a25.131,25.131,0,0,1,2.53-.568c.69.036,1.379.084,2.069.131.07.029.129.065.2.1a7.3,7.3,0,0,0-.254,3.517c-.009,0,.043-.031.125-.084a1.5,1.5,0,0,0,.036.284,9.67,9.67,0,0,0,.3,1.014,1.694,1.694,0,0,0,.227.443,22.616,22.616,0,0,0-.342,4.324c-.609,1.915-.256,3.787-.667,5.831-.518,2.57-1.224,5.076-1.63,7.672-.657,4.212-.846,6.858-1.963,12.351s-2.544,11.073-2.544,11.073a7.454,7.454,0,0,1-9.225,5.09" transform="translate(-31.742 -47.152)" fill="#ffc08b"/>
        <path id="Trazado_722441" data-name="Trazado 722441" d="M128.428,164.433a27.124,27.124,0,0,0-3.184,4.661,45.97,45.97,0,0,0-2.727,6.624l1.405-4.9s2.21-4.487,3.345-5.589,1.161-.794,1.161-.794" transform="translate(-35.439 -47.552)" fill="#f8a769"/>
        <path id="Trazado_722442" data-name="Trazado 722442" d="M136.267,177.894c-1.157,9.53-3.8,25.158-4.682,28.767,0,0,7.972-35.688,6.082-41.479,0,0-1.493-.338-.812,2.131s.09,5.01-.587,10.581" transform="translate(-38.062 -47.776)" fill="#f8a769"/>
        <path id="Trazado_722443" data-name="Trazado 722443" d="M114.9,193.81c1.559-5.471,5.087-17.833,6.3-21.867a.341.341,0,0,0,.407-.135c1.191-1.8,1.391-4,2.391-5.89a.257.257,0,0,0,.016-.054,13.274,13.274,0,0,1,2.78-3.028l-.077.291a1.246,1.246,0,0,1,.65-.246s1.031,1.294-1.461,2.4c-2.024.9-7.5,16.972-11,28.524" transform="translate(-33.235 -47.102)" fill="#f8a769"/>
        <path id="Trazado_722444" data-name="Trazado 722444" d="M128.192,169.159a3.571,3.571,0,1,0,6.895,1.864l1.692-8.606a2.736,2.736,0,0,0-2.238-3.61,2.858,2.858,0,0,0-3.756,2.176Z" transform="translate(-37.044 -45.894)" fill="#ffe5cf"/>
        <path id="Trazado_722445" data-name="Trazado 722445" d="M91.706,193.735s-5.838,17.216-6.96,21.444a2.683,2.683,0,0,0-.174.926c.359.277,6.734-16.717,8.965-22.449" transform="translate(-24.459 -56.017)" fill="#f8a769"/>
        <path id="Trazado_722446" data-name="Trazado 722446" d="M60.781,208.2c-.158.08,7.173-18.627,7.889-20.3s1.913-6.049,2.073-6.208,2.031-2.906,2.031-2.906l1.752-1.354a16.354,16.354,0,0,1,1.195-1.194c-.2.278-2.51,5.135-2.51,5.135l-8.405,17.792s-3.864,8.956-4.024,9.035" transform="translate(-17.581 -50.968)" fill="#f8a769"/>
        <path id="Trazado_722447" data-name="Trazado 722447" d="M169.454,0h-4.311c-14.55,19.095-49.868,65.147-53.077,66.529,0,0,10.113.94,18.387,12.4,0,0-1.738-8.381-12.859-14.682,0,0,36.5-49.22,51.861-64.245" transform="translate(-32.416)" fill="#f8a769"/>
        <path id="Trazado_722448" data-name="Trazado 722448" d="M205.448,0c-3.934,15.9-17.137,61.254-44.65,85.744,0,0-10.9-7.618-17.266-3.8,0,0,11.478-.24,17.753,8.391L238.08,0Z" transform="translate(-41.518)" fill="#f8a769"/>
        <path id="Trazado_722449" data-name="Trazado 722449" d="M193.85,220.4c5.488.584,10.3-2.421,10.759-6.709s-3.621-8.238-9.107-8.821L91.464,193.8c-5.486-.585-10.3,2.418-10.759,6.707s3.619,8.237,9.107,8.821Z" transform="translate(-23.334 -56.039)" fill="#ff699b"/>
        <path id="Trazado_722450" data-name="Trazado 722450" d="M168.741,201.654l51.76,5.507c5.485.582,9.562,4.532,9.107,8.82s-5.272,7.293-10.759,6.709l-51.758-5.505Z" transform="translate(-48.332 -58.33)" fill="#be1e2d"/>
        <path id="Trazado_722451" data-name="Trazado 722451" d="M261.22,167.721s-19.842-11.083-36.814-10.5c0,0-16.154-3.525-35.344,6.78-5.858,3.146-19.6,4.258-27.826,4.064,0,0-4.269,7.582,1.741,10.966s20.1-.557,27.291-4.4,20.9-5.51,20.9-5.51,30.823,15.832,31.08,16.132,16.734,4.808,16.734,4.808" transform="translate(-46.213 -45.31)" fill="#ffc08b"/>
        <path id="Trazado_722452" data-name="Trazado 722452" d="M216.032,158.92c-3.085,1.2-5.485,5.122-8.263,6.958a29.008,29.008,0,0,1-12.1,4.37,8.914,8.914,0,0,1-7.5-2.058,65.232,65.232,0,0,0-7.38,3.389c-5.788,2.822-12.443,5.551-19.075,6.2a6.64,6.64,0,0,0,1.83,1.48c6.011,3.384,20.1-.557,27.291-4.4s20.9-5.51,20.9-5.51,30.823,15.832,31.08,16.131,16.734,4.808,16.734,4.808l2.236-22.346s-19.842-11.083-36.814-10.5c0,0-3.453.458-8.268,1.183-.217.1-.44.2-.667.286" transform="translate(-46.776 -45.538)" fill="#f8a769"/>
        <path id="Trazado_722453" data-name="Trazado 722453" d="M278.264,161.99c-15.432-2.466-43.914-7.833-47.975-8.6C217.1,150.9,208.762,166.381,200.835,165.6c-10.643-1.055-17.406-.544-21.25,3.244s-27.174,13.177-27.174,13.177c2.753,6.663,5.643,6.078,5.643,6.078s14.84-1,22.663-2.982a173.537,173.537,0,0,1,17.666-3.221c17.583.652,15.975,4.278,18.086,9.422,3.955,9.629-4.647,15.42-6.613,15.617s-12.761-8.285-28.136-4.973-10.267,11.706-10.267,11.706c4.741-1.36,11.058-2.84,11.058-2.84,6.053.178,23.816,21.1,31.637,19.111,5.255-1.333,43.724-7.1,64.115-20.792Z" transform="translate(-44.087 -44.291)" fill="#ffc08b"/>
        <path id="Trazado_722454" data-name="Trazado 722454" d="M189.426,233.38s.265-2.159-.756-2.253c-1.537-.141-8.213.266-11.235,1.471-2.042.815-1.031,4.154.933,3.622s11.058-2.84,11.058-2.84" transform="translate(-51 -66.848)" fill="#ffe5cf"/>
        <path id="Trazado_722455" data-name="Trazado 722455" d="M179.482,226.749s7.768-3.584,12.327-4a112.821,112.821,0,0,1,14.671-.586,36.249,36.249,0,0,0-14.733-1.206c-8.113,1.041-10.42,3.513-12.265,5.793" transform="translate(-51.917 -63.834)" fill="#f8a769"/>
        <path id="Trazado_722456" data-name="Trazado 722456" d="M156.257,199.427a4.833,4.833,0,0,0,1.637.9c1.662.5,4.092-.1,11.435-.7a82.745,82.745,0,0,0,19.4-3.755h.138c-6.047,1.043-8.537,1.679-17.633,2.768a40.4,40.4,0,0,1-12.284-.213c-.989-.183-2.372-.969-2.85-.9-.63.092-1.156.094-1.215.264-.1.294.592.96,1.372,1.635" transform="translate(-44.799 -56.658)" fill="#f8a769"/>
        <path id="Trazado_722457" data-name="Trazado 722457" d="M164.217,186.691s1.651,4.832-.485,5.666c-1.165.453-10.677,3.237-11.328,2.994-1.736-.65-2.628-3.443.942-4.576,3.486-1.107,5.545-2.033,10.871-4.084" transform="translate(-43.645 -54.002)" fill="#ffe5cf"/>
        <path id="Trazado_722458" data-name="Trazado 722458" d="M167.988,172.558s-.209,3.406-2.642,4.031a87.792,87.792,0,0,1-10.285.278c-2.016-.07-1.738-4.1,1.945-4.309,3.652-.206,5.776-.035,10.982,0" transform="translate(-44.492 -49.885)" fill="#ffe5cf"/>
        <path id="Trazado_722459" data-name="Trazado 722459" d="M165.437,180.318c4.386-.236,8.04-3.187,12.048-4.709a60.5,60.5,0,0,1,6.672-1.844c2.406-.609,4.738-1.456,7.1-2.223,4.385-1.429,8.826-1.421,13.323-2.175A17.871,17.871,0,0,0,210.632,167c1.765-1.018,4.033-2.251,5.034-4.1.08-.149-.058-.386-.241-.314-1.926.753-3.6,2.322-5.368,3.4a17.729,17.729,0,0,1-6.38,2.418c-4.312.754-8.471.778-12.692,2.112-4.337,1.37-8.795,2.46-13.087,3.947-4.334,1.5-8.125,4.224-12.487,5.653-.1.035-.095.206.026.2" transform="translate(-47.826 -47.026)" fill="#f8a769"/>
      </g>
    </g>
  </g>
</svg>
