<svg xmlns="http://www.w3.org/2000/svg" xmlns:xlink="http://www.w3.org/1999/xlink" width="463.993" height="413.108" viewBox="0 0 463.993 413.108">
  <defs>
    <clipPath id="clip-path">
      <rect id="Rectángulo_344727" data-name="Rectángulo 344727" width="463.993" height="413.108" transform="translate(-53)" fill="none"/>
    </clipPath>
  </defs>
  <g id="Grupo_983939" data-name="Grupo 983939" transform="translate(53 -0.002)">
    <g id="Grupo_983938" data-name="Grupo 983938" transform="translate(0 0.002)" clip-path="url(#clip-path)">
      <path id="Trazado_720613" data-name="Trazado 720613" d="M701.386,454.1c20.972,24.41,28.536,35.068,28.536,35.068,25.785,36.443-41.6,32.661-41.6,32.661l-3.782-25.441L672.85,485.733Z" transform="translate(-414.309 -279.615)" fill="#fcaa97"/>
      <path id="Trazado_720614" data-name="Trazado 720614" d="M94.853,467.524c-12.377,13.064-28.192,31.63-28.192,31.63-20.972,32.318,34.38,29.223,34.38,29.223l20.284-36.443Z" transform="translate(-38.125 -287.879)" fill="#fcaa97"/>
      <path id="Trazado_720615" data-name="Trazado 720615" d="M362.21,236.68l-2.383,15.356a7.045,7.045,0,0,1-5.2,5.742l-18.2,4.687,47.1,61.541,35.412-63.6-10.65-2.476a5.672,5.672,0,0,1-4.378-5.2l-.787-13.642Z" transform="translate(-207.154 -145.737)" fill="#fcaa97"/>
      <path id="Trazado_720616" data-name="Trazado 720616" d="M448.634,261.072a5.669,5.669,0,0,1-2.853-4.6l-.787-13.641-1.145-.068-39.424,5.925c14.853,29.7,37.6,16.966,44.209,12.38" transform="translate(-249.025 -149.485)" fill="#c77f6d"/>
      <path id="Trazado_720617" data-name="Trazado 720617" d="M228.34,285.891c3.438,22,25.785,43.663,25.785,43.663,22.691-21.316,25.1-42.632,25.1-42.632a444.913,444.913,0,0,1,47.445,14.1c31.63,30.255,47.1,53.977,47.1,53.977a124.472,124.472,0,0,1-34.381,32.661L323.23,374.249l5.5,131.677H175.738l5.5-123.77L166.8,392.471c-21.66-12.033-38.85-35.068-38.85-35.068C138.607,341.587,183.3,297.58,183.3,297.58c12.033-6.532,45.038-11.689,45.038-11.689" transform="translate(-78.785 -176.039)" fill="#73c0e6"/>
      <path id="Trazado_720618" data-name="Trazado 720618" d="M351.715,70.134a7.471,7.471,0,0,1-1.855-2.653l-5.01-9.979a19.877,19.877,0,0,1-2.3-6.266,20.509,20.509,0,0,1,.931-7.55l4.209-16.649a11.944,11.944,0,0,1,2.255-5.218c1.511-1.671,3.787-2.237,5.672-3.411,4.246-2.644,6.252-8.183,10.431-10.945a20.566,20.566,0,0,1,6.2-2.4L388.013.874c2.528-.672,5.234-1.338,7.678-.427,1.415.528,2.615,1.548,4,2.164,4.929,2.2,10.9-1.121,15.917.846,5.313,2.082,7.366,9.133,12.323,12.017,2.457,1.43,5.524,1.763,7.556,3.8,4.111,4.12,1.205,11.556,2.856,17.288,1.05,3.645,4.011,6.714,3.9,10.533-.112,3.769-3.181,6.7-4.311,10.291-1.241,3.943.354,5.018-1.863,8.462-2.125,3.3-8.258,8.977-11.69,10.658-3.132,1.534-4.365,2.692-7.57,4.042-4.1,1.726-8.663,1.419-13.048,1.085l-30.912-2.357c-4.04-.308-9.052-.63-12.175-3.675-1.257-1.227-1.283-2.565-2.918-3.6-1.789-1.137-4.251-.468-6.036-1.862" transform="translate(-210.871 -0.002)" fill="#87cbed"/>
      <path id="Trazado_720619" data-name="Trazado 720619" d="M437.028,105.45a4.279,4.279,0,0,0-2.3-.3c3.731-23.433-6.725-43.669-28.248-45.194C383.078,58.3,372.312,75.619,371.72,99.4a4.37,4.37,0,0,0-3.366-.821c-3.24.673-4.946,5.651-3.811,11.119s4.682,9.356,7.923,8.683a3.66,3.66,0,0,0,.943-.339c4.129,19.391,15.1,33.728,25.92,34.333,11.8.659,23.015-11.521,29.924-28.27,3.158,1.046,7.331-1.926,9.494-6.856,2.244-5.114,1.475-10.4-1.718-11.8" transform="translate(-224.251 -36.851)" fill="#fcaa97"/>
      <path id="Trazado_720620" data-name="Trazado 720620" d="M458.7,211.368a.358.358,0,0,1-.087-.01.366.366,0,0,1-.269-.442,22.189,22.189,0,0,0,.621-4.767.366.366,0,0,1,.731-.027,22.476,22.476,0,0,1-.641,4.967.366.366,0,0,1-.355.279" transform="translate(-282.222 -126.704)" fill="#382118"/>
      <path id="Trazado_720621" data-name="Trazado 720621" d="M456.569,230.811a5.9,5.9,0,0,1-3.736-1.292.366.366,0,0,1,.454-.574c2.765,2.187,6,.549,6.135.479a.366.366,0,0,1,.339.649,7.479,7.479,0,0,1-3.192.739" transform="translate(-278.747 -140.926)" fill="#382118"/>
      <path id="Trazado_720622" data-name="Trazado 720622" d="M374.122,184.3a.366.366,0,0,1-.241-.09c-.028-.025-2.851-2.553-.916-6.8a.366.366,0,1,1,.666.3c-1.711,3.758.707,5.926.731,5.947a.366.366,0,0,1-.241.642" transform="translate(-229.237 -109.109)" fill="#382118"/>
      <path id="Trazado_720623" data-name="Trazado 720623" d="M543.632,201.535a.366.366,0,0,1-.161-.694c.117-.058,2.876-1.481,2.487-5.474a.366.366,0,1,1,.728-.071,6.1,6.1,0,0,1-2.893,6.2.359.359,0,0,1-.161.038" transform="translate(-334.517 -120.051)" fill="#382118"/>
      <path id="Trazado_720624" data-name="Trazado 720624" d="M510.622,168.626c-.489.76-2.91.073-5.409-1.534s-4.128-3.526-3.64-4.286,2.911-.073,5.409,1.534,4.128,3.526,3.64,4.286" transform="translate(-308.791 -100.058)" fill="#943c26"/>
      <path id="Trazado_720625" data-name="Trazado 720625" d="M411.963,161.922c.279.859,2.8.812,5.622-.1s4.89-2.357,4.611-3.217-2.8-.812-5.622.1-4.89,2.357-4.611,3.217" transform="translate(-253.651 -97.281)" fill="#943c26"/>
      <path id="Trazado_720626" data-name="Trazado 720626" d="M439.716,248.4a119.657,119.657,0,0,0,15.141,1.354c-8.365,7.956-15.141-1.354-15.141-1.354" transform="translate(-270.756 -152.954)" fill="#fff"/>
      <path id="Trazado_720627" data-name="Trazado 720627" d="M507.481,217.331c-.209,1.613-2.63,2.628-5.407,2.269s-4.86-1.959-4.651-3.572,2.63-2.628,5.407-2.269,4.86,1.959,4.651,3.572" transform="translate(-306.281 -131.579)" fill="#ff8382"/>
      <path id="Trazado_720628" data-name="Trazado 720628" d="M405.059,206.637c-.209,1.613,1.873,3.212,4.651,3.572s5.2-.656,5.407-2.269-1.873-3.212-4.651-3.572-5.2.656-5.407,2.269" transform="translate(-249.407 -125.796)" fill="#ff8382"/>
      <path id="Trazado_720629" data-name="Trazado 720629" d="M449.683,121.466a38.452,38.452,0,0,1-8.77-5.494c-1.341-1.092-2.618-2.253-3.856-3.464-1.254-1.212-2.558-2.373-3.9-3.49-1.951-1.632-3.958-3.185-5.932-4.766a59.89,59.89,0,0,1,12.061,9.3c12.377,10.993,29.533,10.854,29.533,10.854-2.517-29.893-47.339-22.809-47.339-22.809a31.992,31.992,0,0,1,3.2,1.329l-.233.281c2.729,2.173,5.555,4.2,8.259,6.358q2.03,1.617,3.939,3.37c1.271,1.187,2.591,2.335,3.969,3.406a38.829,38.829,0,0,0,8.973,5.344,38.306,38.306,0,0,0,10.105,2.544,38.185,38.185,0,0,1-10.012-2.76" transform="translate(-259.53 -62.106)" fill="#943c26"/>
      <path id="Trazado_720630" data-name="Trazado 720630" d="M383.216,92.89c3.818-10.626,13.937-20.721,33.262-18.382,26.475,3.2,30,24.227,30,24.227,2.263-17.294,5.967-44.64-26.081-48.3C376.311,45.4,383.216,92.89,383.216,92.89" transform="translate(-235.724 -30.827)" fill="#87cbed"/>
      <path id="Trazado_720631" data-name="Trazado 720631" d="M383.751,129.975a18.314,18.314,0,0,1,1.185-5.187,21.951,21.951,0,0,1,2.515-4.769,22.49,22.49,0,0,1,3.656-4.036,23.692,23.692,0,0,1,4.537-3.062,31.111,31.111,0,0,1,10.409-3.167,49.743,49.743,0,0,1,10.8-.158,47.914,47.914,0,0,1,5.363.759,38.381,38.381,0,0,1,5.248,1.469,30.674,30.674,0,0,1,9.453,5.4,28.826,28.826,0,0,1,3.811,3.888,29.033,29.033,0,0,1,5.071,9.454,23.531,23.531,0,0,1,1.076,5.207,23.233,23.233,0,0,0-.763-2.522q-.436-1.239-.978-2.431a31.776,31.776,0,0,0-2.5-4.555,29.885,29.885,0,0,0-6.963-7.478,31.659,31.659,0,0,0-9-4.668,37.64,37.64,0,0,0-4.941-1.283,46.607,46.607,0,0,0-5.094-.692,53.044,53.044,0,0,0-10.285.011,32.218,32.218,0,0,0-9.825,2.548,22.851,22.851,0,0,0-8.078,6.073,22.459,22.459,0,0,0-2.861,4.294,21.954,21.954,0,0,0-1.061,2.386,17.49,17.49,0,0,0-.768,2.516" transform="translate(-236.295 -67.351)" fill="#4d99bf"/>
      <path id="Trazado_720632" data-name="Trazado 720632" d="M504.848,192.686a11.656,11.656,0,0,1-6.364-1.918.366.366,0,1,1,.4-.616,10.655,10.655,0,0,0,8.954,1.341.366.366,0,0,1,.262.683,9.725,9.725,0,0,1-3.248.509" transform="translate(-306.84 -117.051)" fill="#382118"/>
      <path id="Trazado_720633" data-name="Trazado 720633" d="M504.14,194.6a2.365,2.365,0,0,0-.24.863,2.407,2.407,0,0,0,4.8.363,2.31,2.31,0,0,0,0-.354c-2.111-.518-2.8-.518-4.557-.873" transform="translate(-310.273 -119.825)" fill="#382118"/>
      <path id="Trazado_720634" data-name="Trazado 720634" d="M419.557,184.221c-4.081,0-6-1.444-6.1-1.524a.366.366,0,0,1,.45-.578c.028.022,3.074,2.279,9.685.936a.366.366,0,1,1,.146.717,20.96,20.96,0,0,1-4.181.448" transform="translate(-254.5 -112.094)" fill="#382118"/>
      <path id="Trazado_720635" data-name="Trazado 720635" d="M425.222,186.759a2.4,2.4,0,1,1-4.7.047,2.322,2.322,0,0,1,.091-.341,14.3,14.3,0,0,0,4.611.294" transform="translate(-258.912 -114.817)" fill="#382118"/>
      <path id="Trazado_720636" data-name="Trazado 720636" d="M349.994,932.384H0l24.426-89.066H325.568Z" transform="translate(0 -519.275)" fill="#dbdbdb"/>
      <path id="Trazado_720637" data-name="Trazado 720637" d="M263.364,493.975h-.029a.366.366,0,0,1-.336-.394c.01-.13,1.035-13.3,1.374-34.7a.366.366,0,0,1,.366-.36h.006a.366.366,0,0,1,.36.372c-.34,21.424-1.366,34.617-1.376,34.748a.366.366,0,0,1-.365.337" transform="translate(-161.942 -282.335)" fill="#382118"/>
      <path id="Trazado_720638" data-name="Trazado 720638" d="M634.875,477.6a.366.366,0,0,1-.363-.32c-.007-.055-.687-5.736-.347-23.775a.354.354,0,0,1,.373-.359.366.366,0,0,1,.359.373c-.34,17.987.334,23.616.341,23.67a.366.366,0,0,1-.318.408l-.046,0" transform="translate(-390.43 -279.029)" fill="#382118"/>
      <path id="Trazado_720639" data-name="Trazado 720639" d="M456.158,425.011a3.5,3.5,0,1,1-3.5-3.5,3.5,3.5,0,0,1,3.5,3.5" transform="translate(-276.573 -259.549)" fill="#4d99bf"/>
      <path id="Trazado_720640" data-name="Trazado 720640" d="M454.368,549.381a3.5,3.5,0,1,1-3.5-3.5,3.5,3.5,0,0,1,3.5,3.5" transform="translate(-275.471 -336.13)" fill="#4d99bf"/>
      <path id="Trazado_720641" data-name="Trazado 720641" d="M457.053,663.909a3.5,3.5,0,1,1-3.5-3.5,3.5,3.5,0,0,1,3.5,3.5" transform="translate(-277.123 -406.651)" fill="#4d99bf"/>
      <path id="Trazado_720642" data-name="Trazado 720642" d="M412.823,330.518l-.586-.483c-.2-.164-19.961-16.722-25.817-44.282l2.148-.457c5.138,24.18,21.228,39.618,24.488,42.54,15.185-9.486,24.174-41.25,24.265-41.574l2.114.589c-.384,1.379-9.592,33.89-25.952,43.289Z" transform="translate(-237.939 -175.672)" fill="#4d99bf"/>
      <path id="Trazado_720643" data-name="Trazado 720643" d="M436.945,531.668a.366.366,0,0,1-.366-.366V404.958l7.348-6.3a.366.366,0,1,1,.476.556l-7.092,6.079V531.3a.366.366,0,0,1-.366.366" transform="translate(-268.824 -245.422)" fill="#382118"/>
      <path id="Trazado_720644" data-name="Trazado 720644" d="M677.87,498.2l-1.155-1.867c14.127-8.745,33.92-32.2,34.118-32.434l1.681,1.413c-.819.974-20.22,23.959-34.643,32.888" transform="translate(-416.688 -285.646)" fill="#4d99bf"/>
      <path id="Trazado_720645" data-name="Trazado 720645" d="M154.771,500.858c-.174-.133-17.473-13.5-29.119-29.253l1.765-1.3c11.459,15.5,28.52,28.686,28.691,28.817Z" transform="translate(-77.37 -289.589)" fill="#4d99bf"/>
      <path id="Trazado_720646" data-name="Trazado 720646" d="M544.587,579.691c-2.029,9.295,1.535,17.966,7.96,19.369s13.279-4.995,15.308-14.289S566.321,566.8,559.9,565.4s-13.279,4.995-15.308,14.289" transform="translate(-334.98 -348.029)" fill="#fff"/>
      <path id="Trazado_720647" data-name="Trazado 720647" d="M262.249,599.675c0,9.514,5.331,17.225,11.908,17.225s11.908-7.712,11.908-17.225-5.331-17.225-11.908-17.225-11.908,7.712-11.908,17.225" transform="translate(-161.48 -358.645)" fill="#fff"/>
      <path id="Trazado_720648" data-name="Trazado 720648" d="M667.84,869a.366.366,0,0,1-.308-.562c.831-1.306,1.633-2.665,2.408-3.98,1.081-1.833,2.2-3.729,3.423-5.523a.366.366,0,0,1,.6.412c-1.211,1.774-2.322,3.659-3.4,5.482-.778,1.32-1.583,2.685-2.421,4a.365.365,0,0,1-.309.169" transform="translate(-410.999 -528.796)" fill="#382118"/>
      <path id="Trazado_720649" data-name="Trazado 720649" d="M698.211,552.367a.366.366,0,0,1-.153-.7c8.195-3.756,25.008-7.212,25.177-7.246a.366.366,0,1,1,.146.717c-.168.035-16.9,3.473-25.018,7.195a.371.371,0,0,1-.152.033" transform="translate(-429.699 -335.225)" fill="#382118"/>
      <path id="Trazado_720650" data-name="Trazado 720650" d="M627.1,546.373l-13.064,4.47c-8.939-11-19.941-7.908-19.941-7.908a44.087,44.087,0,0,0-15.177,9.3A3.28,3.28,0,0,0,582,557.788a39.552,39.552,0,0,0,11.063-4.539c5.157-1.719,7.907,0,7.907,0a81.14,81.14,0,0,0-20.008,12.332,3.262,3.262,0,0,0,2.894,5.658c8.681-2.175,22.272-6.988,22.272-6.988-4.827,4.827-17.6,9.654-22.99,11.544a3.4,3.4,0,0,0,.1,6.456,19.241,19.241,0,0,0,2.257.565c-4.813,3.094.344,4.813.344,4.813,13.065,3.782,30.6-8.251,30.6-8.251l17.534-.688c-1.031-27.848-6.876-32.318-6.876-32.318" transform="translate(-355.839 -334.067)" fill="#99d3f0"/>
      <path id="Trazado_720651" data-name="Trazado 720651" d="M597.251,637.836a.275.275,0,0,1-.024-.548c11.513-1.016,22.839-5.776,22.952-5.824a.274.274,0,1,1,.214.505c-.114.048-11.519,4.842-23.117,5.866h-.025" transform="translate(-367.589 -388.812)" fill="#382118"/>
      <path id="Trazado_720652" data-name="Trazado 720652" d="M674.61,588.4a.275.275,0,0,1-.239-.409c.043-.078,4.3-8.006-3.1-24.161a.274.274,0,1,1,.5-.229c7.536,16.44,3.269,24.331,3.084,24.659a.274.274,0,0,1-.239.14" transform="translate(-413.318 -346.941)" fill="#382118"/>
      <path id="Trazado_720653" data-name="Trazado 720653" d="M150.181,540.752c-1.422,0-6.466-.553-14.993-7.317a.366.366,0,0,1,.455-.573c9.736,7.723,14.8,7.15,14.852,7.144a.366.366,0,0,1,.1.725,3.279,3.279,0,0,1-.41.02" transform="translate(-83.157 -328.063)" fill="#382118"/>
      <path id="Trazado_720654" data-name="Trazado 720654" d="M156.611,535.242c4.126,1.031,9.97-.344,9.97-.344a40.441,40.441,0,0,1,6.92-6.977,8.635,8.635,0,0,1,9.042-.916c13.738,6.769,22.543,22.676,22.543,22.676,2.75,8.6-5.844,7.22-5.844,7.22.926,1.75,1.606,3.1,2.1,4.131a4.845,4.845,0,0,1-6.5,6.455c-2.325-1.137-4.068-2.244-4.068-2.244,1.559,1.994,3.408,4.385,4.649,5.994a3.8,3.8,0,0,1-3.55,6.081,19.726,19.726,0,0,1-6.047-1.851c-2.063,5.5-18.91-8.251-18.91-8.251-5.157-4.469-16.846,0-16.846,0-12.033-18.221,6.532-31.974,6.532-31.974" transform="translate(-89.913 -323.967)" fill="#99d3f0"/>
      <path id="Trazado_720655" data-name="Trazado 720655" d="M251.584,575.193a.274.274,0,0,1-.234-.131c-3.713-6.076-20.056-19.051-20.221-19.181a.274.274,0,0,1,.341-.43c.676.534,16.585,13.166,20.348,19.325a.274.274,0,0,1-.234.417" transform="translate(-142.254 -341.984)" fill="#382118"/>
      <path id="Trazado_720656" data-name="Trazado 720656" d="M235.826,603.829a.274.274,0,0,1-.214-.1c-4.059-5.074-16-14.644-16.116-14.741a.275.275,0,1,1,.343-.429c.12.1,12.1,9.7,16.2,14.827a.274.274,0,0,1-.214.446" transform="translate(-135.092 -362.369)" fill="#382118"/>
      <path id="Trazado_720657" data-name="Trazado 720657" d="M224.4,632.323a.274.274,0,0,1-.171-.06c-6.807-5.446-15.4-13.686-15.49-13.768a.275.275,0,0,1,.38-.4c.086.083,8.665,8.306,15.453,13.736a.274.274,0,0,1-.171.489" transform="translate(-128.481 -380.549)" fill="#382118"/>
      <path id="Trazado_720658" data-name="Trazado 720658" d="M183.792,618.431a.272.272,0,0,1-.144-.041,18.2,18.2,0,0,1-6.282-7.135.274.274,0,0,1,.5-.23,17.953,17.953,0,0,0,6.073,6.9.274.274,0,0,1-.145.508" transform="translate(-109.198 -376.142)" fill="#382118"/>
      <path id="Trazado_720659" data-name="Trazado 720659" d="M403.61,899.92l-7.489-62.194h-2.279l-1.954,4.884-11.071.326-5.536-9.118-6.187.326-3.907,7.489H353.138l-5.21-8.792-7.815.325-4.233,8.467H325.134l-4.885-8.141-7.489.325-4.134,7.473-14.1-.309-4.559-8.792-7.164.326-4.559,8.141-10.746.325-4.559-7.815H255.45l-5.21,9.118-7.164.651-4.559-6.187c-1.628,13.025-9.358,63.031-9.358,63.031Z" transform="translate(-141.106 -512.423)" fill="#deb08e"/>
      <path id="Trazado_720660" data-name="Trazado 720660" d="M229.868,963.8c0,9.667,5.6,17.5,12.5,17.5s12.5-7.837,12.5-17.5-5.6-17.5-12.5-17.5-12.5,7.837-12.5,17.5" transform="translate(-141.542 -582.685)" fill="#fff"/>
      <path id="Trazado_720661" data-name="Trazado 720661" d="M305.338,967.084c0,9.667,5.6,17.5,12.5,17.5s12.5-7.837,12.5-17.5-5.6-17.5-12.5-17.5-12.5,7.837-12.5,17.5" transform="translate(-188.012 -584.706)" fill="#fff"/>
      <path id="Trazado_720662" data-name="Trazado 720662" d="M383.353,967.9c0,9.667,5.6,17.5,12.5,17.5s12.5-7.837,12.5-17.5-5.6-17.5-12.5-17.5-12.5,7.837-12.5,17.5" transform="translate(-236.05 -585.212)" fill="#fff"/>
      <path id="Trazado_720663" data-name="Trazado 720663" d="M457.927,970.447c0,9.667,5.6,17.5,12.5,17.5s12.5-7.837,12.5-17.5-5.6-17.5-12.5-17.5-12.5,7.837-12.5,17.5" transform="translate(-281.969 -586.777)" fill="#fff"/>
      <path id="Trazado_720664" data-name="Trazado 720664" d="M537.586,966.21c0,9.667,5.6,17.5,12.5,17.5s12.5-7.837,12.5-17.5-5.6-17.5-12.5-17.5-12.5,7.837-12.5,17.5" transform="translate(-331.02 -584.168)" fill="#fff"/>
      <path id="Trazado_720665" data-name="Trazado 720665" d="M613.856,965.363c0,9.667,5.6,17.5,12.5,17.5s12.5-7.837,12.5-17.5-5.6-17.5-12.5-17.5-12.5,7.837-12.5,17.5" transform="translate(-377.983 -583.647)" fill="#fff"/>
      <path id="Trazado_720666" data-name="Trazado 720666" d="M402.331,1007.836l-7.946,12.93a5.669,5.669,0,0,1-4.83,2.7h-3.406a5.668,5.668,0,0,1-4.848-2.731l-4.476-7.384a4.347,4.347,0,0,0-7.391-.071l-4.672,7.386a5.668,5.668,0,0,1-4.79,2.638H356.61a5.669,5.669,0,0,1-4.919-2.851l-4.306-7.516a4.347,4.347,0,0,0-7.49-.092l-4.78,7.89a5.67,5.67,0,0,1-4.849,2.732h-3.382a5.669,5.669,0,0,1-4.848-2.731l-4.476-7.384a4.347,4.347,0,0,0-7.391-.071l-4.672,7.386a5.669,5.669,0,0,1-4.791,2.638h-3.393a5.669,5.669,0,0,1-4.895-2.809l-4.193-7.177a4.347,4.347,0,0,0-7.517.016l-4.224,7.3a5.669,5.669,0,0,1-4.907,2.83h-3.306a5.669,5.669,0,0,1-4.848-2.731l-4.475-7.384a4.347,4.347,0,0,0-7.391-.071l-4.672,7.386a5.668,5.668,0,0,1-4.79,2.638h-3.08a6.088,6.088,0,0,1-5.311-3.112l-6.885-13.006Z" transform="translate(-139.664 -620.177)" fill="#deb08e"/>
      <path id="Trazado_720667" data-name="Trazado 720667" d="M403.61,825.345l-7.489-62.194h-2.279l-1.954,4.884-11.071.326-5.536-9.118-6.187.326-3.907,7.489H353.138l-5.21-8.792-7.815.326-4.233,8.466H325.134l-4.885-8.141-7.489.325-4.134,7.473-14.1-.309-4.559-8.792-7.164.326-4.559,8.14-10.746.326-4.559-7.815H255.45l-5.21,9.118-7.164.651-4.559-6.187C236.889,775.2,229.16,825.2,229.16,825.2Z" transform="translate(-141.106 -466.504)" fill="#deb08e"/>
      <path id="Trazado_720668" data-name="Trazado 720668" d="M229.868,889.227c0,9.667,5.6,17.5,12.5,17.5s12.5-7.837,12.5-17.5-5.6-17.5-12.5-17.5-12.5,7.837-12.5,17.5" transform="translate(-141.542 -536.766)" fill="#fff"/>
      <path id="Trazado_720669" data-name="Trazado 720669" d="M305.338,892.51c0,9.667,5.6,17.5,12.5,17.5s12.5-7.837,12.5-17.5-5.6-17.5-12.5-17.5-12.5,7.837-12.5,17.5" transform="translate(-188.012 -538.787)" fill="#fff"/>
      <path id="Trazado_720670" data-name="Trazado 720670" d="M383.353,893.33c0,9.667,5.6,17.5,12.5,17.5s12.5-7.837,12.5-17.5-5.6-17.5-12.5-17.5-12.5,7.837-12.5,17.5" transform="translate(-236.05 -539.292)" fill="#fff"/>
      <path id="Trazado_720671" data-name="Trazado 720671" d="M457.927,895.873c0,9.667,5.6,17.5,12.5,17.5s12.5-7.837,12.5-17.5-5.6-17.5-12.5-17.5-12.5,7.837-12.5,17.5" transform="translate(-281.969 -540.858)" fill="#fff"/>
      <path id="Trazado_720672" data-name="Trazado 720672" d="M537.586,891.636c0,9.667,5.6,17.5,12.5,17.5s12.5-7.837,12.5-17.5-5.6-17.5-12.5-17.5-12.5,7.837-12.5,17.5" transform="translate(-331.02 -538.249)" fill="#fff"/>
      <path id="Trazado_720673" data-name="Trazado 720673" d="M613.856,890.788c0,9.667,5.6,17.5,12.5,17.5s12.5-7.837,12.5-17.5-5.6-17.5-12.5-17.5-12.5,7.837-12.5,17.5" transform="translate(-377.983 -537.727)" fill="#fff"/>
      <path id="Trazado_720674" data-name="Trazado 720674" d="M402.331,933.262l-7.946,12.93a5.669,5.669,0,0,1-4.83,2.7h-3.406a5.668,5.668,0,0,1-4.848-2.731l-4.476-7.384a4.347,4.347,0,0,0-7.391-.071l-4.672,7.386a5.669,5.669,0,0,1-4.79,2.638H356.61a5.669,5.669,0,0,1-4.919-2.851l-4.306-7.516a4.347,4.347,0,0,0-7.49-.091l-4.78,7.89a5.67,5.67,0,0,1-4.849,2.732h-3.382a5.669,5.669,0,0,1-4.848-2.731l-4.476-7.384a4.347,4.347,0,0,0-7.391-.071l-4.672,7.386a5.669,5.669,0,0,1-4.791,2.638h-3.393a5.669,5.669,0,0,1-4.895-2.809l-4.193-7.177a4.347,4.347,0,0,0-7.517.016l-4.224,7.3a5.669,5.669,0,0,1-4.907,2.83h-3.306a5.669,5.669,0,0,1-4.848-2.731l-4.475-7.384a4.347,4.347,0,0,0-7.391-.071l-4.672,7.386a5.669,5.669,0,0,1-4.79,2.638h-3.08a6.088,6.088,0,0,1-5.311-3.112l-6.885-13.006Z" transform="translate(-139.664 -574.258)" fill="#deb08e"/>
      <path id="Trazado_720675" data-name="Trazado 720675" d="M403.61,750.771l-7.489-62.194h-2.279l-1.954,4.884-11.071.326-5.536-9.118-6.187.326-3.907,7.489H353.138l-5.21-8.792-7.815.325-4.233,8.467H325.134l-4.885-8.141-7.489.326-4.134,7.472-14.1-.309-4.559-8.792-7.164.326-4.559,8.141-10.746.326-4.559-7.815H255.45l-5.21,9.118-7.164.651-4.559-6.187c-1.628,13.025-9.358,63.031-9.358,63.031Z" transform="translate(-141.106 -420.584)" fill="#deb08e"/>
      <path id="Trazado_720676" data-name="Trazado 720676" d="M408.86,715.963c-1.085,0-2.132-.045-3.13-.136l-.162-.015-.1-.13a39.306,39.306,0,0,1-2.449-3.871,32.471,32.471,0,0,0-3.253-4.9,11.71,11.71,0,0,1-2.54-.141c-2.036-.259-3.312-.325-3.85.93l-.032.059a55.626,55.626,0,0,0-3.415,6.149l-.073.146-.158.043a18.609,18.609,0,0,1-5.81.357,20.031,20.031,0,0,0-5.887.332l-.088.011a3.01,3.01,0,0,1-1.978-.8l-.034-.039a22.756,22.756,0,0,1-2-3.413,12.912,12.912,0,0,0-3.333-4.692,60.711,60.711,0,0,0-7.545.317c-1.329,2.657-2.707,5.4-4.4,8.106l-.051.065a1.61,1.61,0,0,1-1.29.451l-.04,0a38.609,38.609,0,0,0-8.858,0l-.04,0a3.01,3.01,0,0,1-1.978-.8l-.042-.042-.026-.053a39.807,39.807,0,0,0-2.216-3.747c-.729-1.134-1.481-2.3-2.152-3.615-.626,0-1.237-.024-1.829-.043a20.307,20.307,0,0,0-5.649.349,37.67,37.67,0,0,0-3.492,5.531c-.29.523-.578,1.041-.865,1.544l-.105.184h-.212c-1.19,0-2.428.022-3.625.042a71.433,71.433,0,0,1-11.21-.39l-.15-.022-.091-.121a44.048,44.048,0,0,1-4.168-7.271q-.293-.6-.58-1.179c-.355-.005-.719-.022-1.1-.04a9.779,9.779,0,0,0-4.038.36l-.153.061-.147-.074c-1.572-.786-2.3.33-3.305,2.262a11.454,11.454,0,0,1-1.034,1.734c-.342.682-.688,1.288-1.023,1.874s-.683,1.2-1.022,1.874l-.071.142-.152.045a16.893,16.893,0,0,1-5.544.475,19.52,19.52,0,0,0-4.459.22l-.072.007a3.012,3.012,0,0,1-1.978-.795,14.963,14.963,0,0,1-2.626-4.094,16.7,16.7,0,0,0-1.777-3.042,16.162,16.162,0,0,0-2.757-.041,12.194,12.194,0,0,1-3.979-.281.876.876,0,0,0-.694.21c-.37.592-.74,1.168-1.107,1.738a46.589,46.589,0,0,0-3.658,6.43l-.028.062-.048.048a1.8,1.8,0,0,0-.2.25,1.324,1.324,0,0,1-1,.643.366.366,0,1,1-.115-.722.612.612,0,0,0,.511-.342,2.612,2.612,0,0,1,.232-.3,47.513,47.513,0,0,1,3.685-6.47c.373-.58.749-1.166,1.126-1.769l.051-.065a1.609,1.609,0,0,1,1.29-.451l.1.014a11.344,11.344,0,0,0,3.8.267,15.927,15.927,0,0,1,3.032.066l.139.02.09.108a16.73,16.73,0,0,1,1.959,3.294,14.437,14.437,0,0,0,2.488,3.9,2.256,2.256,0,0,0,1.426.58,20.3,20.3,0,0,1,4.586-.226,16.439,16.439,0,0,0,5.163-.4c.325-.639.652-1.212.969-1.767.335-.587.682-1.193,1.021-1.872l.042-.065a10.47,10.47,0,0,0,.982-1.646c.852-1.631,1.907-3.653,4.133-2.648a10.9,10.9,0,0,1,4.192-.353c.454.021.882.041,1.293.041h.226l.1.2q.34.68.683,1.384a44.231,44.231,0,0,0,4.005,7.033,71.919,71.919,0,0,0,10.943.362c1.13-.02,2.3-.04,3.426-.042.251-.442.5-.895.756-1.351a37.4,37.4,0,0,1,3.645-5.737l.076-.091.116-.029a20.558,20.558,0,0,1,5.967-.4c.657.022,1.336.044,2.03.044h.226l.1.2a39.781,39.781,0,0,0,2.216,3.747,41.035,41.035,0,0,1,2.226,3.759,2.279,2.279,0,0,0,1.4.542,39.227,39.227,0,0,1,8.978,0,.909.909,0,0,0,.725-.209c1.7-2.724,3.087-5.5,4.429-8.183l.087-.175.194-.024a61.014,61.014,0,0,1,7.953-.347h.122l.1.073a13.412,13.412,0,0,1,3.643,5.019,22.363,22.363,0,0,0,1.915,3.284,2.268,2.268,0,0,0,1.4.563,20.721,20.721,0,0,1,6.051-.342,18.327,18.327,0,0,0,5.428-.291,55.238,55.238,0,0,1,3.369-6.053c.8-1.818,2.82-1.562,4.6-1.336a10.155,10.155,0,0,0,2.546.118l.2-.028.131.149a32.013,32.013,0,0,1,3.461,5.161,39.75,39.75,0,0,0,2.3,3.668,44.251,44.251,0,0,0,11.428-.7l.065-.006a1.3,1.3,0,0,0,.666-1.009,3.86,3.86,0,0,1,.614-1.951,2.484,2.484,0,0,0,.417-1.154.366.366,0,0,1,.732,0,3.106,3.106,0,0,1-.507,1.505,3.175,3.175,0,0,0-.525,1.6,1.87,1.87,0,0,1-1.357,1.74,48.9,48.9,0,0,1-8.633.823" transform="translate(-164.757 -433.708)" fill="#382118"/>
      <path id="Trazado_720677" data-name="Trazado 720677" d="M242.053,747.251l-4.925-6.344a.366.366,0,0,1,.578-.449l4.681,6.03,7.164-.618,5.5-9.135h8.3l4.8,7.809,10.909-.313,4.8-8.138,7.974-.344,4.811,8.806,14.43.3,4.347-7.459,8.3-.343,5.152,8.149h10.9l4.456-8.458,8.658-.342,5.494,8.8H370.66l4.111-7.479,6.934-.346,5.836,9.122,11.223-.313,1.967-4.667a.366.366,0,1,1,.674.284l-2.15,5.1-12.107.338-5.83-9.113-6.1.305-4.123,7.5H357.979l-5.484-8.784-7.811.309-4.465,8.475H328.475l-5.141-8.132-7.48.309-4.363,7.485-15.284-.318-4.8-8.777-7.122.307-4.8,8.144-11.735.337-4.807-7.821h-7.48l-5.479,9.1Z" transform="translate(-145.964 -453.039)" fill="#382118"/>
      <path id="Trazado_720678" data-name="Trazado 720678" d="M528.767,775.207a.37.37,0,0,1-.131-.024,8.692,8.692,0,0,0-3.107-.385c-.438,0-.891,0-1.338-.033a.366.366,0,0,1,.047-.731c.425.027.867.029,1.3.032a9.374,9.374,0,0,1,3.364.432.366.366,0,0,1-.131.708" transform="translate(-322.561 -476.614)" fill="#382118"/>
      <path id="Trazado_720679" data-name="Trazado 720679" d="M615.854,785.951a29.753,29.753,0,0,1-4.9-.382l-.116-.019-.083-.083a17.334,17.334,0,0,1-2.969-4.413,18.53,18.53,0,0,0-2.187-3.492c-2.144-1.764-4.972-1.042-6.97-.124a.366.366,0,1,1-.306-.664c3.15-1.448,5.837-1.363,7.768.246l.043.043a19.221,19.221,0,0,1,2.3,3.65,17.085,17.085,0,0,0,2.757,4.154,38.319,38.319,0,0,0,12.189-.314,8.182,8.182,0,0,1,1.259-3.416c.169-.307.337-.61.488-.914a.366.366,0,0,1,.656.325c-.156.314-.328.626-.5.942a7.1,7.1,0,0,0-1.178,3.375v.31l-.306.051a48.492,48.492,0,0,1-7.941.725" transform="translate(-368.287 -477.669)" fill="#382118"/>
      <path id="Trazado_720680" data-name="Trazado 720680" d="M232.41,735.841c0,9.667,5.6,17.5,12.5,17.5s12.5-7.837,12.5-17.5-5.6-17.5-12.5-17.5-12.5,7.837-12.5,17.5" transform="translate(-143.107 -442.318)" fill="#fff"/>
      <path id="Trazado_720681" data-name="Trazado 720681" d="M307.881,739.124c0,9.667,5.6,17.5,12.5,17.5s12.5-7.837,12.5-17.5-5.6-17.5-12.5-17.5-12.5,7.837-12.5,17.5" transform="translate(-189.578 -444.34)" fill="#fff"/>
      <path id="Trazado_720682" data-name="Trazado 720682" d="M385.895,739.944c0,9.667,5.6,17.5,12.5,17.5s12.5-7.837,12.5-17.5-5.6-17.5-12.5-17.5-12.5,7.837-12.5,17.5" transform="translate(-237.616 -444.844)" fill="#fff"/>
      <path id="Trazado_720683" data-name="Trazado 720683" d="M459.622,737.4c0,9.667,5.6,17.5,12.5,17.5s12.5-7.837,12.5-17.5-5.6-17.5-12.5-17.5-12.5,7.837-12.5,17.5" transform="translate(-283.013 -443.279)" fill="#fff"/>
      <path id="Trazado_720684" data-name="Trazado 720684" d="M229.868,770.585c0,9.667,5.6,17.5,12.5,17.5s12.5-7.837,12.5-17.5-5.6-17.5-12.5-17.5-12.5,7.837-12.5,17.5" transform="translate(-141.542 -463.712)" fill="#fff"/>
      <path id="Trazado_720685" data-name="Trazado 720685" d="M305.338,773.869c0,9.667,5.6,17.5,12.5,17.5s12.5-7.837,12.5-17.5-5.6-17.5-12.5-17.5-12.5,7.837-12.5,17.5" transform="translate(-188.012 -465.734)" fill="#fff"/>
      <path id="Trazado_720686" data-name="Trazado 720686" d="M383.353,774.689c0,9.667,5.6,17.5,12.5,17.5s12.5-7.837,12.5-17.5-5.6-17.5-12.5-17.5-12.5,7.837-12.5,17.5" transform="translate(-236.05 -466.239)" fill="#fff"/>
      <path id="Trazado_720687" data-name="Trazado 720687" d="M457.927,777.232c0,9.667,5.6,17.5,12.5,17.5s12.5-7.837,12.5-17.5-5.6-17.5-12.5-17.5-12.5,7.837-12.5,17.5" transform="translate(-281.969 -467.805)" fill="#fff"/>
      <path id="Trazado_720688" data-name="Trazado 720688" d="M537.586,772.994c0,9.667,5.6,17.5,12.5,17.5s12.5-7.837,12.5-17.5-5.6-17.5-12.5-17.5-12.5,7.836-12.5,17.5" transform="translate(-331.02 -465.196)" fill="#fff"/>
      <path id="Trazado_720689" data-name="Trazado 720689" d="M229.868,814.652c0,9.667,5.6,17.5,12.5,17.5s12.5-7.837,12.5-17.5-5.6-17.5-12.5-17.5-12.5,7.837-12.5,17.5" transform="translate(-141.542 -490.846)" fill="#fff"/>
      <path id="Trazado_720690" data-name="Trazado 720690" d="M255.664,805.187a.366.366,0,0,1-.351-.262c-1.423-4.823-7.023-9.217-12.39-7.874a11.933,11.933,0,0,0-8.088,7.565.366.366,0,0,1-.687-.251,12.659,12.659,0,0,1,8.591-8.021c5.763-1.442,11.76,3.233,13.277,8.375a.366.366,0,0,1-.351.47" transform="translate(-144.163 -490.187)" fill="#382118"/>
      <path id="Trazado_720691" data-name="Trazado 720691" d="M255.633,763.926a.365.365,0,0,1-.355-.28c-1.172-4.854-3.431-8.412-6.531-10.29a9.756,9.756,0,0,0-7.464-1.131c-3.517.96-6.509,3.959-8,8.022A.366.366,0,0,1,232.6,760c1.568-4.285,4.745-7.455,8.5-8.478a10.479,10.479,0,0,1,8.028,1.213c3.272,1.981,5.645,5.7,6.863,10.744a.365.365,0,0,1-.27.441.346.346,0,0,1-.086.01" transform="translate(-143.209 -462.552)" fill="#382118"/>
      <path id="Trazado_720692" data-name="Trazado 720692" d="M305.338,817.935c0,9.667,5.6,17.5,12.5,17.5s12.5-7.837,12.5-17.5-5.6-17.5-12.5-17.5-12.5,7.837-12.5,17.5" transform="translate(-188.012 -492.868)" fill="#fff"/>
      <path id="Trazado_720693" data-name="Trazado 720693" d="M383.353,818.756c0,9.667,5.6,17.5,12.5,17.5s12.5-7.837,12.5-17.5-5.6-17.5-12.5-17.5-12.5,7.837-12.5,17.5" transform="translate(-236.05 -493.373)" fill="#fff"/>
      <path id="Trazado_720694" data-name="Trazado 720694" d="M457.927,821.3c0,9.667,5.6,17.5,12.5,17.5s12.5-7.837,12.5-17.5-5.6-17.5-12.5-17.5-12.5,7.837-12.5,17.5" transform="translate(-281.969 -494.938)" fill="#fff"/>
      <path id="Trazado_720695" data-name="Trazado 720695" d="M537.586,817.061c0,9.667,5.6,17.5,12.5,17.5s12.5-7.837,12.5-17.5-5.6-17.5-12.5-17.5-12.5,7.837-12.5,17.5" transform="translate(-331.02 -492.329)" fill="#fff"/>
      <path id="Trazado_720696" data-name="Trazado 720696" d="M613.856,816.214c0,9.667,5.6,17.5,12.5,17.5s12.5-7.837,12.5-17.5-5.6-17.5-12.5-17.5-12.5,7.837-12.5,17.5" transform="translate(-377.983 -491.808)" fill="#fff"/>
      <path id="Trazado_720697" data-name="Trazado 720697" d="M402.331,858.688l-7.946,12.929a5.668,5.668,0,0,1-4.83,2.7h-3.406a5.668,5.668,0,0,1-4.848-2.731l-4.476-7.385a4.347,4.347,0,0,0-7.391-.071l-4.672,7.386a5.669,5.669,0,0,1-4.79,2.638H356.61a5.669,5.669,0,0,1-4.919-2.851l-4.306-7.516a4.347,4.347,0,0,0-7.49-.091l-4.78,7.89a5.67,5.67,0,0,1-4.849,2.732h-3.382a5.669,5.669,0,0,1-4.848-2.731l-4.476-7.385a4.347,4.347,0,0,0-7.391-.071l-4.672,7.386a5.669,5.669,0,0,1-4.791,2.638h-3.393a5.669,5.669,0,0,1-4.895-2.809l-4.193-7.177a4.347,4.347,0,0,0-7.517.016l-4.224,7.3a5.668,5.668,0,0,1-4.907,2.83h-3.306a5.669,5.669,0,0,1-4.848-2.731l-4.475-7.385a4.347,4.347,0,0,0-7.391-.071l-4.672,7.386a5.669,5.669,0,0,1-4.79,2.638h-3.08a6.088,6.088,0,0,1-5.311-3.112l-6.885-13.006Z" transform="translate(-139.664 -528.339)" fill="#deb08e"/>
      <path id="Trazado_720698" data-name="Trazado 720698" d="M231.448,867.668a.366.366,0,0,1-.324-.195l-5.215-9.852a.366.366,0,0,1,.647-.342l5.215,9.852a.366.366,0,0,1-.323.537" transform="translate(-139.077 -527.752)" fill="#382118"/>
      <path id="Trazado_720699" data-name="Trazado 720699" d="M296.454,874.226a.366.366,0,0,1-.328-.2c-.081-.163-.164-.334-.251-.511-1.114-2.277-2.793-5.716-5.552-5.351-3.016.4-5,4.409-5.537,5.627a.366.366,0,0,1-.67-.3c.737-1.675,2.809-5.618,6.11-6.058,3.276-.44,5.1,3.289,6.305,5.755.086.176.169.346.249.507a.366.366,0,0,1-.327.529" transform="translate(-174.926 -534.103)" fill="#382118"/>
      <path id="Trazado_720700" data-name="Trazado 720700" d="M372.672,875.277a.366.366,0,0,1-.32-.188c-.377-.68-.707-1.424-1.026-2.143-1.011-2.282-1.965-4.437-4.394-4.923-2.985-.5-5.193,1.565-6.936,6.492a.366.366,0,1,1-.69-.244c.682-1.93,2.757-7.8,7.758-6.968,2.812.562,3.889,2.994,4.931,5.346.312.7.634,1.432,1,2.084a.365.365,0,0,1-.142.5.361.361,0,0,1-.177.046" transform="translate(-221.231 -533.995)" fill="#382118"/>
      <path id="Trazado_720701" data-name="Trazado 720701" d="M435.955,874.94a.366.366,0,0,1-.349-.475c1.338-4.269,3.781-6.79,6.881-7.1,2.128-.308,3.311,1.371,4.352,2.849.254.361.516.733.784,1.068a13.818,13.818,0,0,1,.967,1.764,14.568,14.568,0,0,0,.678,1.293.366.366,0,1,1-.624.382,15.171,15.171,0,0,1-.714-1.358,13.417,13.417,0,0,0-.9-1.651c-.263-.327-.532-.709-.792-1.079-1.009-1.433-1.96-2.787-3.665-2.544-3.78.378-5.551,4.293-6.271,6.592a.366.366,0,0,1-.349.257" transform="translate(-268.215 -534.06)" fill="#382118"/>
      <path id="Trazado_720702" data-name="Trazado 720702" d="M511.79,875.78a.394.394,0,0,1-.056,0,.366.366,0,0,1-.306-.417,9.01,9.01,0,0,1,1.742-3.474,17.08,17.08,0,0,0,.948-1.477,5.9,5.9,0,0,1,4.49-3.338c3.991-.31,5.6,3.771,6.784,6.757.088.223.174.441.259.65a.366.366,0,0,1-.679.274c-.085-.211-.171-.43-.26-.654-1.158-2.927-2.6-6.579-6.045-6.3a5.185,5.185,0,0,0-3.9,2.956,17.574,17.574,0,0,1-.99,1.544,8.529,8.529,0,0,0-1.621,3.17.366.366,0,0,1-.361.31" transform="translate(-314.91 -533.89)" fill="#382118"/>
      <path id="Trazado_720703" data-name="Trazado 720703" d="M603.551,873.987a.366.366,0,0,1-.336-.221c-.131-.305-.264-.631-.4-.969-1-2.461-2.249-5.523-5.019-5.694-3.031-.181-5.144,4.068-5.835,5.466a.366.366,0,1,1-.656-.323c1.291-2.615,3.379-6.065,6.536-5.873,3.23.2,4.629,3.638,5.652,6.148.136.334.267.656.4.956a.367.367,0,0,1-.191.481.375.375,0,0,1-.145.03" transform="translate(-364.072 -533.466)" fill="#382118"/>
      <path id="Trazado_720704" data-name="Trazado 720704" d="M296.454,948.49a.366.366,0,0,1-.328-.2c-.081-.163-.164-.334-.251-.512-1.114-2.277-2.8-5.713-5.551-5.351-3.016.4-5,4.409-5.537,5.628a.366.366,0,0,1-.67-.3c.737-1.675,2.808-5.618,6.11-6.057,3.273-.443,5.1,3.289,6.305,5.754q.129.265.249.508a.366.366,0,0,1-.327.529" transform="translate(-174.926 -579.831)" fill="#382118"/>
      <path id="Trazado_720705" data-name="Trazado 720705" d="M372.672,949.54a.366.366,0,0,1-.32-.188c-.377-.68-.707-1.424-1.026-2.143-1.011-2.282-1.965-4.437-4.394-4.923-2.985-.5-5.193,1.565-6.936,6.492a.366.366,0,1,1-.69-.244c.682-1.93,2.757-7.8,7.758-6.968,2.812.562,3.889,2.995,4.931,5.346.312.7.634,1.432,1,2.084a.365.365,0,0,1-.142.5.361.361,0,0,1-.177.046" transform="translate(-221.231 -579.722)" fill="#382118"/>
      <path id="Trazado_720706" data-name="Trazado 720706" d="M435.955,949.2a.366.366,0,0,1-.349-.475c1.338-4.269,3.781-6.79,6.881-7.1,2.128-.308,3.311,1.371,4.352,2.849.254.361.516.733.784,1.068a13.818,13.818,0,0,1,.967,1.764,14.559,14.559,0,0,0,.678,1.293.366.366,0,0,1-.624.382,15.172,15.172,0,0,1-.714-1.358,13.421,13.421,0,0,0-.9-1.651c-.263-.327-.532-.709-.792-1.079-1.009-1.434-1.96-2.79-3.665-2.544-3.78.378-5.551,4.293-6.271,6.592a.366.366,0,0,1-.349.257" transform="translate(-268.215 -579.788)" fill="#382118"/>
      <path id="Trazado_720707" data-name="Trazado 720707" d="M511.79,950.044a.394.394,0,0,1-.056,0,.366.366,0,0,1-.306-.417,9.01,9.01,0,0,1,1.742-3.474,17.127,17.127,0,0,0,.948-1.477,5.9,5.9,0,0,1,4.49-3.338c3.991-.312,5.6,3.772,6.784,6.757.088.223.174.441.259.65a.366.366,0,0,1-.679.274c-.085-.211-.171-.43-.26-.654-1.158-2.927-2.6-6.572-6.045-6.3a5.185,5.185,0,0,0-3.9,2.956,17.574,17.574,0,0,1-.99,1.544,8.528,8.528,0,0,0-1.621,3.17.366.366,0,0,1-.361.31" transform="translate(-314.91 -579.618)" fill="#382118"/>
      <path id="Trazado_720708" data-name="Trazado 720708" d="M603.551,948.25a.366.366,0,0,1-.336-.221c-.131-.305-.264-.631-.4-.969-1-2.461-2.249-5.523-5.019-5.694-3.031-.18-5.144,4.068-5.835,5.466a.366.366,0,1,1-.656-.324c1.291-2.614,3.379-6.07,6.536-5.873,3.23.2,4.629,3.637,5.652,6.148.136.334.267.656.4.956a.367.367,0,0,1-.191.481.374.374,0,0,1-.145.03" transform="translate(-364.072 -579.194)" fill="#382118"/>
      <path id="Trazado_720709" data-name="Trazado 720709" d="M331.717,808.767a.366.366,0,0,1-.351-.262c-1.422-4.824-7.021-9.216-12.39-7.874a11.933,11.933,0,0,0-8.089,7.564.366.366,0,1,1-.687-.251,12.659,12.659,0,0,1,8.592-8.021c5.763-1.441,11.761,3.234,13.276,8.375a.366.366,0,0,1-.351.47" transform="translate(-190.992 -492.392)" fill="#382118"/>
      <path id="Trazado_720710" data-name="Trazado 720710" d="M331.687,766.977a.366.366,0,0,1-.355-.28c-1.23-5.1-3.539-8.795-6.675-10.694a8.993,8.993,0,0,0-6.977-1.07c-3.5.956-6.859,4.319-8.34,8.366a.366.366,0,1,1-.687-.252c1.559-4.259,5.112-7.8,8.843-8.822a9.72,9.72,0,0,1,7.541,1.152c3.306,2,5.73,5.857,7.006,11.149a.365.365,0,0,1-.27.441.346.346,0,0,1-.086.01" transform="translate(-190.04 -464.228)" fill="#382118"/>
      <path id="Trazado_720711" data-name="Trazado 720711" d="M408.665,808.767a.366.366,0,0,1-.351-.262c-1.423-4.824-7.024-9.216-12.39-7.874a11.933,11.933,0,0,0-8.089,7.564.366.366,0,1,1-.687-.251,12.66,12.66,0,0,1,8.592-8.021c5.761-1.44,11.76,3.234,13.276,8.375a.366.366,0,0,1-.351.47" transform="translate(-238.373 -492.392)" fill="#382118"/>
      <path id="Trazado_720712" data-name="Trazado 720712" d="M410.424,767.5a.366.366,0,0,1-.355-.28c-1.15-4.765-3.429-8.3-6.589-10.21a10.131,10.131,0,0,0-7.75-1.211c-3.376.921-6.1,3.771-7.653,8.022a.366.366,0,1,1-.687-.252c1.64-4.48,4.536-7.491,8.155-8.478a10.857,10.857,0,0,1,8.313,1.293c2.324,1.407,5.41,4.4,6.922,10.664a.366.366,0,0,1-.27.441.349.349,0,0,1-.086.01" transform="translate(-238.522 -464.751)" fill="#382118"/>
      <path id="Trazado_720713" data-name="Trazado 720713" d="M483.824,812.347a.366.366,0,0,1-.351-.262c-1.423-4.823-7.022-9.215-12.39-7.874a11.932,11.932,0,0,0-8.089,7.564.366.366,0,0,1-.687-.251A12.657,12.657,0,0,1,470.9,803.5c5.763-1.439,11.761,3.234,13.276,8.375a.366.366,0,0,1-.351.47" transform="translate(-284.653 -494.596)" fill="#382118"/>
      <path id="Trazado_720714" data-name="Trazado 720714" d="M540.736,808.37a.366.366,0,0,1-.344-.492,14.7,14.7,0,0,1,9.187-8.822c5.718-1.429,11.959,3.58,13.511,8.844a.366.366,0,1,1-.7.207c-1.431-4.851-7.383-9.654-12.625-8.344a13.933,13.933,0,0,0-8.684,8.366.366.366,0,0,1-.344.24" transform="translate(-332.734 -491.869)" fill="#382118"/>
      <path id="Trazado_720715" data-name="Trazado 720715" d="M483.794,771.078a.365.365,0,0,1-.355-.28c-1.15-4.765-3.429-8.3-6.59-10.209a10.13,10.13,0,0,0-7.749-1.211c-3.376.921-6.1,3.771-7.653,8.022a.366.366,0,1,1-.687-.252c1.64-4.48,4.536-7.491,8.155-8.478a10.856,10.856,0,0,1,8.313,1.293c2.324,1.407,5.41,4.4,6.922,10.664a.366.366,0,0,1-.27.441.349.349,0,0,1-.086.01" transform="translate(-283.7 -466.954)" fill="#382118"/>
    </g>
  </g>
</svg>
