<svg id="Grupo_984331" data-name="Grupo 984331" xmlns="http://www.w3.org/2000/svg" xmlns:xlink="http://www.w3.org/1999/xlink" width="80.141" height="76.011" viewBox="0 0 80.141 76.011">
  <defs>
    <clipPath id="clip-path">
      <rect id="Rectángulo_345034" data-name="Rectángulo 345034" width="80.141" height="76.011" fill="none"/>
    </clipPath>
  </defs>
  <g id="Grupo_984330" data-name="Grupo 984330" clip-path="url(#clip-path)">
    <path id="Trazado_725383" data-name="Trazado 725383" d="M96.881,8.563S62.439,3.12,67.873,37.313c34.5,5.386,29.007-28.75,29.007-28.75" transform="translate(-24.585 -3.013)" fill="#a6c498"/>
    <path id="Trazado_725384" data-name="Trazado 725384" d="M19.189.317S53.63-5.125,48.2,29.067C13.7,34.452,19.189.317,19.189.317" transform="translate(-6.894 0)" fill="#a6c498"/>
    <path id="Trazado_725385" data-name="Trazado 725385" d="M93.886,3.212S58.1-2.5,63.742,33.356C99.593,39,93.886,3.212,93.886,3.212Z" transform="translate(-23.068 -1.052)" fill="none" stroke="#fff" stroke-linecap="round" stroke-linejoin="round" stroke-width="2"/>
    <line id="Línea_3045" data-name="Línea 3045" x1="20.792" y2="20.792" transform="translate(40.674 11.513)" fill="none" stroke="#fff" stroke-linecap="round" stroke-linejoin="round" stroke-width="2"/>
    <path id="Trazado_725386" data-name="Trazado 725386" d="M14.5,3.212S50.288-2.5,44.641,33.356C8.79,39,14.5,3.212,14.5,3.212Z" transform="translate(-5.175 -1.052)" fill="none" stroke="#fff" stroke-linecap="round" stroke-linejoin="round" stroke-width="2"/>
    <line id="Línea_3046" data-name="Línea 3046" x2="19.582" y2="19.582" transform="translate(19.884 12.723)" fill="none" stroke="#fff" stroke-linecap="round" stroke-linejoin="round" stroke-width="2"/>
    <path id="Trazado_725387" data-name="Trazado 725387" d="M63.878,65.758a113.966,113.966,0,0,1-1.413-15.867H60.82a102.31,102.31,0,0,1-1.775,17.742A34.849,34.849,0,0,0,63.878,65.758Z" transform="translate(-21.572 -18.228)" fill="none" stroke="#fff" stroke-linecap="round" stroke-linejoin="round" stroke-width="2"/>
    <path id="Trazado_725388" data-name="Trazado 725388" d="M24.645,76.812l-11.4-6.9A7.54,7.54,0,0,0,2.874,72.381,4.3,4.3,0,0,0,4.279,78.3l9.6,5.931L26.59,92.065c9.746,6.005,23.122,6.2,32.657,1.425A35.725,35.725,0,0,1,79.54,90V67.364l-8.613-4.772c-9.612-5.37-21.893,3.758-21.893,3.758-4.68,3.083-8.631,5.072-14.078,6.108-2.026.385-4.522.358-6.379,1.18a7.8,7.8,0,0,0-4.752,5.288,5.009,5.009,0,0,0,1.886,5.015c2.068,1.4,5.176.9,7.476.609a68.691,68.691,0,0,0,16.569-4.388l.207-.082" transform="translate(-0.816 -22.25)" fill="none" stroke="#fff" stroke-linecap="round" stroke-linejoin="round" stroke-width="2"/>
    <path id="Trazado_725389" data-name="Trazado 725389" d="M31.949,75.911,19.576,68.657A6.668,6.668,0,0,0,10.4,70.836l-.338.728" transform="translate(-3.677 -24.721)" fill="none" stroke="#fff" stroke-linecap="round" stroke-linejoin="round" stroke-width="2"/>
    <path id="Trazado_725390" data-name="Trazado 725390" d="M42.737,73.343,28.575,64.987a6.67,6.67,0,0,0-8.567,1.344" transform="translate(-7.31 -23.381)" fill="none" stroke="#fff" stroke-linecap="round" stroke-linejoin="round" stroke-width="2"/>
  </g>
</svg>
