<svg xmlns="http://www.w3.org/2000/svg" xmlns:xlink="http://www.w3.org/1999/xlink" width="217" height="217" viewBox="0 0 217 217">
  <defs>
    <clipPath id="clip-path">
      <rect id="Rectángulo_345008" data-name="Rectángulo 345008" width="202.139" height="211.444" fill="none"/>
    </clipPath>
  </defs>
  <g id="Grupo_984345" data-name="Grupo 984345" transform="translate(-387 -9808)">
    <circle id="Elipse_5887" data-name="Elipse 5887" cx="108.5" cy="108.5" r="108.5" transform="translate(387 9808)" fill="#06d1d1"/>
    <g id="Grupo_984292" data-name="Grupo 984292" transform="translate(394.431 9808)">
      <g id="Grupo_984291" data-name="Grupo 984291" clip-path="url(#clip-path)">
        <path id="Trazado_725215" data-name="Trazado 725215" d="M124.475,57.245c-13.184,12.9-29.629,17.461-36.731,10.2s-2.172-23.6,11.011-36.5,29.629-17.461,36.732-10.2,2.172,23.6-11.012,36.5" fill="#275114"/>
        <path id="Trazado_725216" data-name="Trazado 725216" d="M58.964,37.25c4.14,17.971,15.52,30.69,25.418,28.41s14.566-18.7,10.427-36.667S79.289-1.7,69.391.583,54.824,19.279,58.964,37.25" fill="#275114"/>
        <path id="Trazado_725217" data-name="Trazado 725217" d="M113.894,37.634c-5.186,17.7-17.291,29.728-27.039,26.872S73.409,44.988,78.6,27.291,95.886-2.437,105.634.419s13.446,19.518,8.26,37.215" fill="#3f9b1c"/>
        <path id="Trazado_725218" data-name="Trazado 725218" d="M94.44,37.431l-.045-.014C91.183,36.275,88.869,33.64,87.7,29.8a18.664,18.664,0,0,1-.793-5.421.823.823,0,0,1,1.646.049,17.261,17.261,0,0,0,.735,4.937c1.025,3.348,2.928,5.537,5.654,6.506a.823.823,0,0,1-.506,1.565" fill="#f4f27b"/>
        <path id="Trazado_725219" data-name="Trazado 725219" d="M94.854,37.63a.823.823,0,0,1,.419-1.591c6.81,1.585,11.507-6.106,11.554-6.184a.823.823,0,1,1,1.412.846,18.679,18.679,0,0,1-3.593,4.137c-3.056,2.607-6.426,3.577-9.746,2.8l-.046-.012" fill="#f4f27b"/>
        <path id="Trazado_725220" data-name="Trazado 725220" d="M91.669,47.27a.4.4,0,0,1-.045-.015c-3.212-1.141-5.526-3.776-6.692-7.621a18.687,18.687,0,0,1-.792-5.421.823.823,0,0,1,1.646.049,17.264,17.264,0,0,0,.735,4.937c1.025,3.348,2.928,5.537,5.654,6.5a.823.823,0,0,1-.506,1.566" fill="#f4f27b"/>
        <path id="Trazado_725221" data-name="Trazado 725221" d="M92.084,47.469a.823.823,0,0,1,.419-1.591c6.81,1.585,11.507-6.106,11.554-6.184a.823.823,0,0,1,1.412.846,18.679,18.679,0,0,1-3.593,4.137c-3.056,2.607-6.426,3.577-9.746,2.8l-.046-.012" fill="#f4f27b"/>
        <path id="Trazado_725222" data-name="Trazado 725222" d="M88.285,57.627a.4.4,0,0,1-.045-.015c-3.212-1.141-5.526-3.776-6.691-7.621a18.668,18.668,0,0,1-.793-5.421.823.823,0,0,1,1.646.049,17.288,17.288,0,0,0,.735,4.937c1.025,3.348,2.928,5.537,5.654,6.505a.823.823,0,0,1-.506,1.566" fill="#f4f27b"/>
        <path id="Trazado_725223" data-name="Trazado 725223" d="M88.7,57.826a.823.823,0,0,1,.419-1.591c2.818.656,5.6-.16,8.271-2.425a17.28,17.28,0,0,0,3.283-3.76.823.823,0,0,1,1.412.847,18.679,18.679,0,0,1-3.593,4.137c-3.056,2.607-6.426,3.577-9.746,2.8l-.046-.012" fill="#f4f27b"/>
        <path id="Trazado_725224" data-name="Trazado 725224" d="M88.488,57.916c-.006.022-12.99,44.33-12.99,44.33-4.388-1.916-6.906-4.464-8.327-8.978C64.977,86.3,73.347,81.039,77.485,76.146c4.652-5.5,8.951-11.227,11-18.23" fill="#f4f27b"/>
        <path id="Trazado_725225" data-name="Trazado 725225" d="M88.253,57.844c-.006.022-12.989,44.33-12.989,44.33,4.728.756,8.223-.03,11.856-3.064,5.608-4.683,1.4-13.628.557-19.981-.947-7.141-1.476-14.282.576-21.285" fill="#ccc76d"/>
        <path id="Trazado_725226" data-name="Trazado 725226" d="M75.324,103.522l-.462-.135a1.617,1.617,0,0,1-1.093-2L96.024,25.433a1.617,1.617,0,0,1,2-1.094l.462.135a1.616,1.616,0,0,1,1.093,2L77.325,102.428a1.618,1.618,0,0,1-2,1.094" fill="#f4f27b"/>
        <path id="Trazado_725227" data-name="Trazado 725227" d="M71.578,88.684A64.559,64.559,0,0,0,178.971,17.369Z" fill="#55c62e"/>
        <path id="Trazado_725228" data-name="Trazado 725228" d="M127.03,51.861l33.7,50.744a64.561,64.561,0,0,0,18.244-85.236Z" fill="#3f9b1c"/>
        <path id="Trazado_725229" data-name="Trazado 725229" d="M76.815,85.206a58.283,58.283,0,0,0,96.919-64.36Z" fill="#fdfae9"/>
        <path id="Trazado_725230" data-name="Trazado 725230" d="M81.892,81.835a52.2,52.2,0,0,0,86.765-57.617Z" fill="#eb3522"/>
        <path id="Trazado_725231" data-name="Trazado 725231" d="M127.413,51.607,154.26,92.036a52.209,52.209,0,0,0,14.4-67.818Z" fill="#ce291d"/>
        <path id="Trazado_725232" data-name="Trazado 725232" d="M107.981,78.988a1.955,1.955,0,1,1-2.709-.547,1.956,1.956,0,0,1,2.709.547" fill="#3a1010"/>
        <path id="Trazado_725233" data-name="Trazado 725233" d="M133.968,75.375a1.955,1.955,0,1,1-2.71-.547,1.954,1.954,0,0,1,2.71.547" fill="#3a1010"/>
        <path id="Trazado_725234" data-name="Trazado 725234" d="M96.351,80.317a1.955,1.955,0,1,1-2.709-.547,1.956,1.956,0,0,1,2.709.547" fill="#3a1010"/>
        <path id="Trazado_725235" data-name="Trazado 725235" d="M163.705,36.6A1.954,1.954,0,1,1,161,36.055a1.954,1.954,0,0,1,2.709.547" fill="#3a1010"/>
        <path id="Trazado_725236" data-name="Trazado 725236" d="M169.68,52.667a1.955,1.955,0,1,1-2.709-.547,1.956,1.956,0,0,1,2.709.547" fill="#3a1010"/>
        <path id="Trazado_725237" data-name="Trazado 725237" d="M154.766,70.949a1.954,1.954,0,1,1-2.709-.547,1.954,1.954,0,0,1,2.709.547" fill="#3a1010"/>
        <path id="Trazado_725238" data-name="Trazado 725238" d="M145.235,56.6a1.954,1.954,0,1,1-2.709-.547,1.956,1.956,0,0,1,2.709.547" fill="#3a1010"/>
        <path id="Trazado_725239" data-name="Trazado 725239" d="M123.743,86.858a1.955,1.955,0,1,1-2.711-.547,1.957,1.957,0,0,1,2.711.547" fill="#3a1010"/>
        <path id="Trazado_725240" data-name="Trazado 725240" d="M138.661,89.649a1.955,1.955,0,1,1-2.71-.547,1.954,1.954,0,0,1,2.71.547" fill="#3a1010"/>
        <path id="Trazado_725241" data-name="Trazado 725241" d="M121.862,67.884a2.529,2.529,0,1,1-3.506-.708,2.528,2.528,0,0,1,3.506.708" fill="#3a1010"/>
        <path id="Trazado_725242" data-name="Trazado 725242" d="M153.626,46.331a2.53,2.53,0,1,1-3.506-.707,2.53,2.53,0,0,1,3.506.707" fill="#3a1010"/>
        <path id="Trazado_725243" data-name="Trazado 725243" d="M1.148,111.986C-.762,105.551-.559,99.178,3.836,94.3c1.9-2.106,3.883-3.044,3.846-6.383C7.639,84.064,4.126,79.5,5.065,75.763c1.8-.037,3.487,1.136,5.286,1.432-.169,4.939-2.844,10.478,1.238,14.82,2.109,2.242,5.215,2.819,7.269,5.167,2.215,2.531,2.988,6.133,3.839,9.388a45.2,45.2,0,0,0,7.309,16.1c8.163,10.712,20.2,10.659,32.01,10.095,1.542-.152,4.924.386,5.91,3.226a6.3,6.3,0,0,1-3.3,7.9c-15.974,6.532-34.044,5.248-47.332-7.093-5.37-4.986-13.23-14.968-16.151-24.807" fill="#f4cf16"/>
        <path id="Trazado_725244" data-name="Trazado 725244" d="M64.514,139.936A79.953,79.953,0,0,0,54,142.525c-8.187,2.252-17.076-.3-23.742-5.781-5.385-4.43-8.867-10.832-11.84-17.286-2.884-6.258-5.4-12.787-9.18-18.5A32.664,32.664,0,0,0,3.668,94.5c.056-.065.111-.131.168-.195,1.9-2.106,3.883-3.044,3.846-6.383C7.639,84.065,4.126,79.5,5.065,75.764c1.8-.037,3.487,1.136,5.286,1.432-.17,4.938-2.844,10.478,1.238,14.819,2.109,2.242,5.214,2.82,7.269,5.167,2.215,2.532,2.987,6.134,3.839,9.388a45.177,45.177,0,0,0,7.309,16.1c8.163,10.712,20.2,10.659,32.01,10.1,1.542-.152,4.923.386,5.91,3.226a6.586,6.586,0,0,1,.142,3.834,13.683,13.683,0,0,0-3.554.113" fill="#ffdc48"/>
        <path id="Trazado_725245" data-name="Trazado 725245" d="M14.038,113.536l4.6,8.857a1.54,1.54,0,0,0,2.18.66,1.823,1.823,0,0,0,.608-2.365l-4.6-8.856a1.541,1.541,0,0,0-2.18-.661,1.823,1.823,0,0,0-.608,2.365" fill="#c9b149"/>
        <path id="Trazado_725246" data-name="Trazado 725246" d="M49.849,141.873l9.36-.471a1.692,1.692,0,0,0,1.524-1.814,1.661,1.661,0,0,0-1.672-1.654l-9.36.471a1.691,1.691,0,0,0-1.524,1.814,1.661,1.661,0,0,0,1.672,1.654" fill="#c9b149"/>
        <path id="Trazado_725247" data-name="Trazado 725247" d="M34.989,138.943l5.329,1.729a1.257,1.257,0,0,0,1.577-.923,1.4,1.4,0,0,0-.851-1.71l-5.329-1.729a1.257,1.257,0,0,0-1.577.923,1.4,1.4,0,0,0,.851,1.71" fill="#c9b149"/>
        <path id="Trazado_725248" data-name="Trazado 725248" d="M9.024,102.477l2.2,5.543a1.234,1.234,0,0,0,1.664.718,1.425,1.425,0,0,0,.662-1.806l-2.2-5.543a1.234,1.234,0,0,0-1.664-.718,1.425,1.425,0,0,0-.662,1.806" fill="#c9b149"/>
        <path id="Trazado_725249" data-name="Trazado 725249" d="M18.267,111c-4.012-5.172-6.047-11.155-3.678-17.472,1.024-2.729,2.532-4.411,1.334-7.487-1.385-3.552-6.228-6.333-6.662-10.179,1.657-.775,3.624-.38,5.393-.845,1.565,4.641,1.021,10.867,6.313,13.21,2.734,1.211,5.81.47,8.53,1.8,2.934,1.434,4.905,4.451,6.828,7.114,3.428,4.746,7.448,9.033,12.38,11.9,11.291,6.565,22.414,1.575,33.15-3.8,1.375-.774,4.692-1.664,6.6.56a6.5,6.5,0,0,1-.3,8.664c-12.509,12.6-29.683,18.833-46.286,12.865-6.71-2.412-17.468-8.425-23.6-16.333" fill="#f4cf16"/>
        <path id="Trazado_725250" data-name="Trazado 725250" d="M86.669,110.858a85.915,85.915,0,0,0-8.829,6.712,26.612,26.612,0,0,1-23.993,4.395c-6.529-1.889-11.985-6.386-16.987-11.139-4.852-4.609-9.456-9.621-14.949-13.354a29.879,29.879,0,0,0-7.41-3.695c.03-.083.057-.166.088-.249,1.024-2.729,2.532-4.411,1.334-7.487-1.385-3.552-6.228-6.333-6.662-10.179,1.657-.775,3.624-.38,5.393-.845,1.565,4.641,1.02,10.867,6.312,13.21,2.735,1.21,5.812.469,8.532,1.8,2.933,1.434,4.9,4.45,6.827,7.114,3.428,4.746,7.448,9.032,12.38,11.9,11.291,6.565,22.413,1.575,33.149-3.8,1.375-.774,4.693-1.664,6.6.56a6.36,6.36,0,0,1,1.468,3.491,14.246,14.246,0,0,0-3.25,1.563" fill="#ffdc48"/>
        <path id="Trazado_725251" data-name="Trazado 725251" d="M30.739,107.143l7.347,6.31a1.52,1.52,0,0,0,2.247-.284,1.841,1.841,0,0,0-.261-2.438l-7.347-6.31a1.52,1.52,0,0,0-2.247.284,1.841,1.841,0,0,0,.261,2.438" fill="#c9b149"/>
        <path id="Trazado_725252" data-name="Trazado 725252" d="M73.769,118.672l8.5-4.278a1.808,1.808,0,0,0,.778-2.306,1.554,1.554,0,0,0-2.125-.844l-8.5,4.279a1.806,1.806,0,0,0-.778,2.305,1.554,1.554,0,0,0,2.125.844" fill="#c9b149"/>
        <path id="Trazado_725253" data-name="Trazado 725253" d="M58.992,122.06l5.536-.587a1.353,1.353,0,0,0,1.138-1.5,1.3,1.3,0,0,0-1.384-1.234l-5.536.588a1.353,1.353,0,0,0-1.138,1.5,1.3,1.3,0,0,0,1.384,1.234" fill="#c9b149"/>
        <path id="Trazado_725254" data-name="Trazado 725254" d="M22.241,98.965l3.971,4.227A1.2,1.2,0,0,0,28,103.173a1.462,1.462,0,0,0-.017-1.943L24.015,97a1.2,1.2,0,0,0-1.791.019,1.462,1.462,0,0,0,.017,1.943" fill="#c9b149"/>
        <path id="Trazado_725255" data-name="Trazado 725255" d="M38.312,102.12c-5.721-2.677-10.009-7.04-10.5-13.838-.21-2.938.445-5.175-1.9-7.343-2.7-2.505-8.181-2.64-10.156-5.868,1.163-1.5,3.084-2.1,4.474-3.374,3.314,3.39,5.4,9.221,11.095,8.747,2.944-.245,5.39-2.4,8.371-2.533,3.214-.142,6.221,1.6,9.04,3.046a37.743,37.743,0,0,0,15.979,4.63C77.528,85.975,85.417,76.112,92.8,66.1c.91-1.36,3.51-3.767,6.129-2.7a6.3,6.3,0,0,1,3.31,7.891c-5.988,17.345-18.776,31.255-36.086,33.98-6.995,1.1-19.095.948-27.843-3.145" fill="#f4cf16"/>
        <path id="Trazado_725256" data-name="Trazado 725256" d="M99.422,68.779A95.643,95.643,0,0,0,94.3,79.069a28.732,28.732,0,0,1-19.644,15.58c-6.618,1.481-13.351.109-19.786-1.712-6.24-1.766-12.424-4.013-18.876-4.684a28.592,28.592,0,0,0-8.151.295c-.007-.089-.017-.177-.023-.266-.211-2.938.444-5.175-1.9-7.343-2.7-2.5-8.182-2.64-10.156-5.868,1.162-1.5,3.083-2.1,4.473-3.374,3.314,3.39,5.4,9.222,11.1,8.747,2.944-.245,5.389-2.4,8.37-2.533,3.214-.142,6.221,1.6,9.04,3.046a37.763,37.763,0,0,0,15.979,4.631c12.805.387,20.694-9.476,28.08-19.492.91-1.359,3.509-3.766,6.128-2.7a5.738,5.738,0,0,1,2.754,2.409,15.883,15.883,0,0,0-2.262,2.976" fill="#ffdc48"/>
        <path id="Trazado_725257" data-name="Trazado 725257" d="M47.874,92.615l9.173,2.075a1.612,1.612,0,0,0,1.893-1.345,1.745,1.745,0,0,0-1.24-2.054l-9.173-2.075a1.613,1.613,0,0,0-1.893,1.345,1.745,1.745,0,0,0,1.24,2.054" fill="#c9b149"/>
        <path id="Trazado_725258" data-name="Trazado 725258" d="M91.11,82.03l5.837-7.953a1.844,1.844,0,0,0-.256-2.44,1.521,1.521,0,0,0-2.248.277l-5.836,7.953a1.844,1.844,0,0,0,.255,2.44,1.521,1.521,0,0,0,2.248-.277" fill="#c9b149"/>
        <path id="Trazado_725259" data-name="Trazado 725259" d="M79.293,92.235,84,89.022a1.449,1.449,0,0,0,.4-1.9,1.214,1.214,0,0,0-1.747-.432l-4.709,3.213a1.45,1.45,0,0,0-.4,1.9,1.213,1.213,0,0,0,1.746.432" fill="#c9b149"/>
        <path id="Trazado_725260" data-name="Trazado 725260" d="M36.9,89.428l5.294,1.852a1.253,1.253,0,0,0,1.6-.887,1.406,1.406,0,0,0-.817-1.729l-5.295-1.852a1.253,1.253,0,0,0-1.594.886,1.406,1.406,0,0,0,.817,1.73" fill="#c9b149"/>
        <path id="Trazado_725261" data-name="Trazado 725261" d="M81.844,116.814l8.651,23.8a12.681,12.681,0,0,0-8.651-23.8" fill="#c9b149"/>
        <path id="Trazado_725262" data-name="Trazado 725262" d="M163.14,118.219c-3,2.6-6.153,5.009-9.324,7.391a69.041,69.041,0,0,1-14.189,8.705,34.531,34.531,0,0,1-3.415,1.236,26.821,26.821,0,0,1-4.77.993c-1.434.158-5.42.523-6.53-.932a6.845,6.845,0,0,1-1.025-3.216c-.724-5.82,2.05-11.9,4.763-16.848q.216-.394.442-.8c.53-.949,1.094-1.932,1.688-2.934a116.182,116.182,0,0,1,7.812-11.663q.5-.638.985-1.237l1.083-1.324a53.657,53.657,0,0,1,4.566-5.059,23.444,23.444,0,0,1,2.542-2.095,17.059,17.059,0,0,1,6.656-2.886,15.3,15.3,0,0,1,15.935,23.174,19.606,19.606,0,0,1-1.995,2.6,57.027,57.027,0,0,1-5.224,4.892" fill="#f6a415"/>
        <path id="Trazado_725263" data-name="Trazado 725263" d="M163.14,118.219c-3,2.6-6.153,5.009-9.324,7.391a96.481,96.481,0,0,1-8.05,5.535q-1.113.672-2.254,1.29a33.361,33.361,0,0,1-12.07,4.109c-1.434.158-5.42.523-6.53-.932-.049-.065-.1-.133-.141-.2l43.195-43.928c.059.055.117.109.175.166a15.282,15.282,0,0,1,2.218,19.076,19.606,19.606,0,0,1-1.995,2.6,57.027,57.027,0,0,1-5.224,4.892" fill="#f28d16"/>
        <path id="Trazado_725264" data-name="Trazado 725264" d="M155.121,99.964a1.645,1.645,0,0,1-2.317.02l-7.578-7.452a23.552,23.552,0,0,1,2.542-2.094l7.332,7.21a1.642,1.642,0,0,1,.021,2.316" fill="#f28d16"/>
        <path id="Trazado_725265" data-name="Trazado 725265" d="M163.6,96.211l-5.562-5.469a1.638,1.638,0,0,0-2.3,2.336l5.562,5.469Z" fill="#f28d16"/>
        <path id="Trazado_725266" data-name="Trazado 725266" d="M145.35,104.5a1.642,1.642,0,0,1-2.316.018l-4.442-4.367c.331-.425.658-.838.985-1.237l1.083-1.324,4.67,4.593a1.643,1.643,0,0,1,.02,2.317" fill="#f28d16"/>
        <path id="Trazado_725267" data-name="Trazado 725267" d="M146.563,113.536,141,108.067a1.638,1.638,0,0,0-2.3,2.336l5.562,5.469Z" fill="#f28d16"/>
        <path id="Trazado_725268" data-name="Trazado 725268" d="M135.408,118.665a1.641,1.641,0,0,1-2.314.019l-4-3.935c.53-.949,1.094-1.932,1.687-2.934l4.611,4.534a1.643,1.643,0,0,1,.018,2.316" fill="#f28d16"/>
        <path id="Trazado_725269" data-name="Trazado 725269" d="M132.765,127.568l-2.5-2.462a1.638,1.638,0,0,0-2.3,2.336l2.5,2.462Z" fill="#f28d16"/>
        <path id="Trazado_725270" data-name="Trazado 725270" d="M168.216,109.536l-5.376-5.286a1.251,1.251,0,1,1,1.754-1.784l5.376,5.287a1.251,1.251,0,0,1-1.754,1.783" fill="#e26d1e"/>
        <path id="Trazado_725271" data-name="Trazado 725271" d="M159.453,115.256l-5.376-5.286a1.251,1.251,0,0,1,1.754-1.784l5.376,5.287a1.251,1.251,0,0,1-1.754,1.783" fill="#e26d1e"/>
        <path id="Trazado_725272" data-name="Trazado 725272" d="M152.377,123.86,147,118.574a1.251,1.251,0,1,1,1.754-1.784l5.376,5.287a1.251,1.251,0,0,1-1.754,1.783" fill="#e26d1e"/>
        <path id="Trazado_725273" data-name="Trazado 725273" d="M145.766,131.145q-1.113.672-2.254,1.29l-5.156-5.07a1.25,1.25,0,0,1,1.753-1.783Z" fill="#e26d1e"/>
        <path id="Trazado_725274" data-name="Trazado 725274" d="M193.47,80.552a10.241,10.241,0,1,1-.122-14.483,10.241,10.241,0,0,1,.122,14.483" fill="#7fa206"/>
        <path id="Trazado_725275" data-name="Trazado 725275" d="M180.037,88.121a5.97,5.97,0,1,1-.071-8.443,5.97,5.97,0,0,1,.071,8.443" fill="#7fa206"/>
        <path id="Trazado_725276" data-name="Trazado 725276" d="M172.266,94.149a4.655,4.655,0,1,1-.055-6.584,4.656,4.656,0,0,1,.055,6.584" fill="#7fa206"/>
        <path id="Trazado_725277" data-name="Trazado 725277" d="M158.629,65.421a8,8,0,1,0,8.883-7.015,8,8,0,0,0-8.883,7.015" fill="#7fa206"/>
        <path id="Trazado_725278" data-name="Trazado 725278" d="M160.047,78.166a4.784,4.784,0,1,0,5.31-4.193,4.785,4.785,0,0,0-5.31,4.193" fill="#7fa206"/>
        <path id="Trazado_725279" data-name="Trazado 725279" d="M193.348,66.069c-.019-.019-.04-.036-.059-.055l-14.358,14.6c.019.019.036.039.056.058a10.241,10.241,0,0,0,14.361-14.605" fill="#647a09"/>
        <path id="Trazado_725280" data-name="Trazado 725280" d="M179.966,79.678c-.019-.019-.039-.037-.059-.055l-8.369,8.51c.019.02.037.04.056.059a5.97,5.97,0,1,0,8.372-8.514" fill="#647a09"/>
        <path id="Trazado_725281" data-name="Trazado 725281" d="M172.211,87.565c-.019-.019-.04-.037-.059-.055l-6.526,6.636c.019.019.037.039.057.058a4.655,4.655,0,0,0,6.528-6.639" fill="#647a09"/>
        <path id="Trazado_725282" data-name="Trazado 725282" d="M166.651,63.89a47.423,47.423,0,0,1-.365,10.462,8,8,0,0,0,1.226-15.946c-.142-.017-.284-.029-.425-.038.425.038-.707,3.731-.436,5.522" fill="#647a09"/>
        <path id="Trazado_725283" data-name="Trazado 725283" d="M169.55,79.282a4.784,4.784,0,0,0-3.243-5.1c-.387,3.111-.906,6.182-1.205,9.315a4.786,4.786,0,0,0,4.448-4.216" fill="#647a09"/>
        <path id="Trazado_725284" data-name="Trazado 725284" d="M164.969,89.2l-.062,0a.865.865,0,0,1-.8-.924l2.119-29.968a.864.864,0,0,1,1.724.122L165.83,88.4a.864.864,0,0,1-.861.8" fill="#7fa206"/>
        <path id="Trazado_725285" data-name="Trazado 725285" d="M193.36,101.688a8,8,0,1,1,6.865-9,8,8,0,0,1-6.865,9" fill="#7fa206"/>
        <path id="Trazado_725286" data-name="Trazado 725286" d="M180.594,100.485a4.784,4.784,0,1,1,4.1-5.38,4.785,4.785,0,0,1-4.1,5.38" fill="#7fa206"/>
        <path id="Trazado_725287" data-name="Trazado 725287" d="M194.756,93.641a47.373,47.373,0,0,0-10.455.542,8,8,0,0,1,15.924-1.495c.019.142.034.283.045.425-.045-.425-3.718.769-5.514.528" fill="#647a09"/>
        <path id="Trazado_725288" data-name="Trazado 725288" d="M179.318,91a4.787,4.787,0,0,1,5.153,3.157c-3.1.439-6.166,1.01-9.295,1.361A4.788,4.788,0,0,1,179.318,91" fill="#647a09"/>
        <path id="Trazado_725289" data-name="Trazado 725289" d="M170.341,96.6a.865.865,0,0,1-.074-1.726L200.2,92.251a.865.865,0,1,1,.151,1.723L170.417,96.6c-.025,0-.051,0-.076,0" fill="#7fa206"/>
        <path id="Trazado_725290" data-name="Trazado 725290" d="M166.165,59.229h0a1.607,1.607,0,1,1,2.272-.019,1.611,1.611,0,0,1-2.272.019" fill="#7fa206"/>
        <path id="Trazado_725291" data-name="Trazado 725291" d="M191.363,67.777h0a1.871,1.871,0,1,1,2.646-.022,1.876,1.876,0,0,1-2.646.022" fill="#7fa206"/>
        <path id="Trazado_725292" data-name="Trazado 725292" d="M198.958,94.447h0a1.871,1.871,0,1,1,2.646-.022,1.876,1.876,0,0,1-2.646.022" fill="#7fa206"/>
        <path id="Trazado_725293" data-name="Trazado 725293" d="M137.509,139.793a1.249,1.249,0,0,1-1.242-1.135L134.995,124.8a1.249,1.249,0,0,1,2.488-.229l1.271,13.86a1.248,1.248,0,0,1-1.129,1.358c-.039,0-.078.005-.116.005" fill="#7fa206"/>
        <path id="Trazado_725294" data-name="Trazado 725294" d="M155.353,141.631h-.039l-13.911-.424a1.249,1.249,0,0,1,.076-2.5l13.911.425a1.249,1.249,0,0,1-.037,2.5" fill="#7fa206"/>
        <path id="Trazado_725295" data-name="Trazado 725295" d="M130.126,148.727h0a2.988,2.988,0,0,1-.128-4.211l16.982-18.051a2.979,2.979,0,1,1,4.339,4.082L134.337,148.6a2.988,2.988,0,0,1-4.211.128" fill="#a6c752"/>
        <path id="Trazado_725296" data-name="Trazado 725296" d="M170.5,127.982a6.548,6.548,0,0,0-2.693-9.191,12.858,12.858,0,0,0-21.018-14.248c-.094.1-.183.2-.274.306a3.406,3.406,0,0,0-4.733,1.82,10.349,10.349,0,1,0-.552,20.673,9.04,9.04,0,0,0,10.865,6.7,10.349,10.349,0,1,0,18.4-6.061" fill="#275114"/>
        <path id="Trazado_725297" data-name="Trazado 725297" d="M170.5,127.982a6.548,6.548,0,0,0-2.693-9.191,12.9,12.9,0,0,0,.167-10.5l-23,24.449a9.047,9.047,0,0,0,7.123,1.307,10.349,10.349,0,1,0,18.4-6.061" fill="#1f3f0f"/>
        <path id="Trazado_725298" data-name="Trazado 725298" d="M52.317,119.794a15.188,15.188,0,1,1-21.47-.63,15.189,15.189,0,0,1,21.47.63" fill="#f6a415"/>
        <path id="Trazado_725299" data-name="Trazado 725299" d="M30.846,119.164c-.02.018-.037.038-.057.057l20.838,22.1c.02-.019.04-.036.06-.054a15.188,15.188,0,0,0-20.841-22.1" fill="#f28d16"/>
        <path id="Trazado_725300" data-name="Trazado 725300" d="M33.112,130.531a2.281,2.281,0,1,1-3.224-.094,2.281,2.281,0,0,1,3.224.094" fill="#f4cf16"/>
        <path id="Trazado_725301" data-name="Trazado 725301" d="M4.915,120.813l25.6-1.7s-10.093,15.22-25.6,1.7" fill="#647a09"/>
        <path id="Trazado_725302" data-name="Trazado 725302" d="M4.913,120.781l25.6-1.7s-12.018-13.751-25.6,1.7" fill="#7fa206"/>
        <path id="Trazado_725303" data-name="Trazado 725303" d="M40.314,98.86A2.564,2.564,0,1,1,36.845,97.8a2.566,2.566,0,0,1,3.469,1.059" fill="#ed2f42"/>
        <path id="Trazado_725304" data-name="Trazado 725304" d="M62.675,88.2a10.335,10.335,0,0,0-18.423.349,10.335,10.335,0,0,0-6.212,19.406h0s8.607,7.463,14.155,6.953c0,0,3.178-.569,4.577-2.346,2.255-.168,4.5-2.487,4.5-2.487,2.793-3.424,2.5-11.247,2.258-14.335a10.3,10.3,0,0,0-.855-7.54" fill="#d21011"/>
        <path id="Trazado_725305" data-name="Trazado 725305" d="M48.695,83.936a10.287,10.287,0,0,0-4.442,4.615c-.032-.005-.064-.008-.1-.012l12.78,24.009c2.2-.264,4.336-2.47,4.336-2.47,2.792-3.425,2.5-11.248,2.258-14.336A10.334,10.334,0,0,0,48.695,83.936" fill="#9e0e0e"/>
        <path id="Trazado_725306" data-name="Trazado 725306" d="M42.575,97.977a2.727,2.727,0,1,1-3.688-1.126,2.726,2.726,0,0,1,3.688,1.126" fill="#e21e28"/>
        <path id="Trazado_725307" data-name="Trazado 725307" d="M44.268,89.189a.644.644,0,0,1-.559-.323c-3.684-6.394-3.593-11.583-3.587-11.8a.645.645,0,0,1,1.289.033,23.649,23.649,0,0,0,3.415,11.123.645.645,0,0,1-.558.967" fill="#b2652b"/>
        <path id="Trazado_725308" data-name="Trazado 725308" d="M73.313,73.476c1.173,2.615,2.18,5.3,3.166,7.99A49.942,49.942,0,0,1,79.538,93.1a25.087,25.087,0,0,1,.142,2.62,19.458,19.458,0,0,1-.309,3.506c-.19,1.025-.77,3.857-2.007,4.321a4.944,4.944,0,0,1-2.438.038c-4.176-.714-7.8-3.9-10.657-6.81-.153-.154-.3-.312-.46-.472-.546-.565-1.108-1.16-1.677-1.78A84.048,84.048,0,0,1,55.7,86.682q-.337-.476-.65-.939l-.689-1.025A38.5,38.5,0,0,1,51.812,80.5a16.922,16.922,0,0,1-.919-2.195,12.312,12.312,0,0,1-.606-5.205A11.054,11.054,0,0,1,69.638,66.92a14.29,14.29,0,0,1,1.382,1.922,41.005,41.005,0,0,1,2.293,4.634" fill="#f6a415"/>
        <path id="Trazado_725309" data-name="Trazado 725309" d="M73.313,73.476c1.173,2.615,2.18,5.3,3.166,7.99a70.14,70.14,0,0,1,2.148,6.723c.154.606.3,1.215.421,1.828a24.084,24.084,0,0,1,.323,9.2c-.19,1.025-.77,3.857-2.007,4.321-.055.02-.112.038-.168.056L55.831,64.559l.152-.086A11.04,11.04,0,0,1,69.638,66.92a14.29,14.29,0,0,1,1.382,1.922,41.005,41.005,0,0,1,2.293,4.634" fill="#f28d16"/>
        <path id="Trazado_725310" data-name="Trazado 725310" d="M59.016,75.212a1.173,1.173,0,0,1,.1.9,1.185,1.185,0,0,1-.566.707L51.812,80.5a16.916,16.916,0,0,1-.918-2.195l6.516-3.566a1.187,1.187,0,0,1,1.606.469" fill="#f28d16"/>
        <path id="Trazado_725311" data-name="Trazado 725311" d="M58.189,68.566l-4.943,2.705a1.183,1.183,0,0,0,1.136,2.076l4.943-2.705Z" fill="#f28d16"/>
        <path id="Trazado_725312" data-name="Trazado 725312" d="M60.115,82.916a1.185,1.185,0,0,1-.471,1.605L55.7,86.681q-.337-.474-.65-.939l-.689-1.024,4.15-2.272a1.187,1.187,0,0,1,1.607.47" fill="#f28d16"/>
        <path id="Trazado_725313" data-name="Trazado 725313" d="M66.616,83.962l-4.943,2.705a1.183,1.183,0,1,0,1.136,2.076l4.943-2.7Z" fill="#f28d16"/>
        <path id="Trazado_725314" data-name="Trazado 725314" d="M67.835,92.747a1.187,1.187,0,0,1-.469,1.6L63.809,96.3c-.546-.565-1.108-1.16-1.677-1.779l4.1-2.243a1.187,1.187,0,0,1,1.6.471" fill="#f28d16"/>
        <path id="Trazado_725315" data-name="Trazado 725315" d="M73.44,96.433l-2.225,1.218a1.183,1.183,0,1,0,1.136,2.075l2.225-1.217Z" fill="#f28d16"/>
        <path id="Trazado_725316" data-name="Trazado 725316" d="M68.368,68.154l-4.777,2.615a.9.9,0,1,1-.868-1.585L67.5,66.569a.9.9,0,1,1,.867,1.585" fill="#e26d1e"/>
        <path id="Trazado_725317" data-name="Trazado 725317" d="M70.5,75.408l-4.777,2.614a.9.9,0,1,1-.868-1.584l4.778-2.615a.9.9,0,0,1,.867,1.585" fill="#e26d1e"/>
        <path id="Trazado_725318" data-name="Trazado 725318" d="M74.968,82.1l-4.777,2.616a.9.9,0,1,1-.868-1.585L74.1,80.512a.9.9,0,1,1,.867,1.584" fill="#e26d1e"/>
        <path id="Trazado_725319" data-name="Trazado 725319" d="M78.627,88.189q.232.909.422,1.828l-4.583,2.508A.9.9,0,0,1,73.6,90.94Z" fill="#e26d1e"/>
        <path id="Trazado_725320" data-name="Trazado 725320" d="M53.594,44.641A7.4,7.4,0,1,1,43.553,41.7a7.4,7.4,0,0,1,10.041,2.938" fill="#7fa206"/>
        <path id="Trazado_725321" data-name="Trazado 725321" d="M56.025,55.51A4.313,4.313,0,1,1,50.172,53.8a4.312,4.312,0,0,1,5.853,1.713" fill="#7fa206"/>
        <path id="Trazado_725322" data-name="Trazado 725322" d="M58.572,62.142a3.363,3.363,0,1,1-4.564-1.336,3.362,3.362,0,0,1,4.564,1.336" fill="#7fa206"/>
        <path id="Trazado_725323" data-name="Trazado 725323" d="M35.86,65.578a5.782,5.782,0,1,0-3-7.607,5.781,5.781,0,0,0,3,7.607" fill="#7fa206"/>
        <path id="Trazado_725324" data-name="Trazado 725324" d="M44.969,67.257a3.456,3.456,0,1,0-1.792-4.547,3.455,3.455,0,0,0,1.792,4.547" fill="#7fa206"/>
        <path id="Trazado_725325" data-name="Trazado 725325" d="M43.553,41.7c-.017.009-.033.02-.051.029l7.1,12.977c.017-.009.035-.017.052-.027a7.4,7.4,0,1,0-7.1-12.979" fill="#647a09"/>
        <path id="Trazado_725326" data-name="Trazado 725326" d="M50.172,53.8l-.051.029,4.14,7.564.052-.027A4.313,4.313,0,0,0,50.172,53.8" fill="#647a09"/>
        <path id="Trazado_725327" data-name="Trazado 725327" d="M54.008,60.807l-.051.029,3.228,5.9c.017-.009.035-.017.052-.027a3.363,3.363,0,0,0-3.229-5.9" fill="#647a09"/>
        <path id="Trazado_725328" data-name="Trazado 725328" d="M36.475,59.711a34.291,34.291,0,0,1,7.159,2.436,5.781,5.781,0,0,0-10.772-4.176c-.041.1-.079.191-.115.286.115-.286,2.433,1.268,3.728,1.454" fill="#647a09"/>
        <path id="Trazado_725329" data-name="Trazado 725329" d="M47.724,60.918a3.457,3.457,0,0,0-4.2,1.179c2.071.917,4.086,1.916,6.19,2.777a3.456,3.456,0,0,0-1.987-3.956" fill="#647a09"/>
        <path id="Trazado_725330" data-name="Trazado 725330" d="M53.029,66.6a.618.618,0,0,1-.222-.041L32.525,58.841a.625.625,0,1,1,.444-1.168l20.282,7.72a.624.624,0,0,1-.222,1.208" fill="#7fa206"/>
        <path id="Trazado_725331" data-name="Trazado 725331" d="M68.188,49.128A5.782,5.782,0,1,1,63.4,42.5a5.784,5.784,0,0,1,4.792,6.626" fill="#7fa206"/>
        <path id="Trazado_725332" data-name="Trazado 725332" d="M64.692,57.706a3.456,3.456,0,1,1-2.864-3.961,3.456,3.456,0,0,1,2.864,3.961" fill="#7fa206"/>
        <path id="Trazado_725333" data-name="Trazado 725333" d="M62.914,46.483a34.235,34.235,0,0,0-1.807,7.343A5.781,5.781,0,0,1,63.4,42.5c.1.017.2.036.3.058-.3-.058-.244,2.732-.785,3.923" fill="#647a09"/>
        <path id="Trazado_725334" data-name="Trazado 725334" d="M57.867,56.609A3.458,3.458,0,0,1,61.126,53.7c-.345,2.239-.589,4.475-1,6.711a3.456,3.456,0,0,1-2.261-3.806" fill="#647a09"/>
        <path id="Trazado_725335" data-name="Trazado 725335" d="M59.269,64.429a.624.624,0,0,1-.612-.752l4.432-21.245a.624.624,0,0,1,1.222.256L59.88,63.932a.625.625,0,0,1-.611.5" fill="#7fa206"/>
        <path id="Trazado_725336" data-name="Trazado 725336" d="M33.15,59.074h0a1.16,1.16,0,1,1,.461-1.575,1.164,1.164,0,0,1-.461,1.575" fill="#7fa206"/>
        <path id="Trazado_725337" data-name="Trazado 725337" d="M44.32,43.432h0a1.352,1.352,0,1,1,.537-1.835,1.356,1.356,0,0,1-.537,1.835" fill="#7fa206"/>
        <path id="Trazado_725338" data-name="Trazado 725338" d="M64.348,43.745h0a1.352,1.352,0,1,1,.537-1.835,1.356,1.356,0,0,1-.537,1.835" fill="#7fa206"/>
        <path id="Trazado_725339" data-name="Trazado 725339" d="M108.536,137.586h0a6.982,6.982,0,0,1-3.5-9.2l8.2-18.264a6.961,6.961,0,1,1,12.7,5.7l-8.2,18.264a6.982,6.982,0,0,1-9.2,3.5" fill="#eb3522"/>
        <path id="Trazado_725340" data-name="Trazado 725340" d="M102.856,139.727h0a6.982,6.982,0,0,1-3.5-9.2l8.2-18.264a6.961,6.961,0,1,1,12.7,5.7l-8.2,18.264a6.982,6.982,0,0,1-9.2,3.5" fill="#ce291d"/>
        <path id="Trazado_725341" data-name="Trazado 725341" d="M107.531,136.737h0a6.981,6.981,0,0,0,9.658,1.9l16.626-11.152a6.961,6.961,0,1,0-7.756-11.562l-16.625,11.153a6.981,6.981,0,0,0-1.9,9.658" fill="#ce291d"/>
        <path id="Trazado_725342" data-name="Trazado 725342" d="M106.771,143.091h0a6.982,6.982,0,0,0,9.659,1.9l16.625-11.152A6.961,6.961,0,0,0,125.3,122.28l-16.625,11.152a6.982,6.982,0,0,0-1.9,9.659" fill="#eb3522"/>
        <path id="Trazado_725343" data-name="Trazado 725343" d="M131.984,120.269c-.819.971-4.009-.374-7.127-3s-4.977-5.548-4.158-6.519,4.01.374,7.126,3,4.977,5.548,4.159,6.519" fill="#7fa206"/>
        <path id="Trazado_725344" data-name="Trazado 725344" d="M126.114,116.665a1.654,1.654,0,0,1-.2-2.331l5.746-6.811a2.073,2.073,0,0,0,.554-1.83c-.412-2.117-3.783-4.367-4.931-4.99a1.655,1.655,0,0,1,1.569-2.914c.594.319,5.819,3.233,6.609,7.265a5.41,5.41,0,0,1-1.26,4.591l-5.757,6.822a1.653,1.653,0,0,1-2.332.2" fill="#7fa206"/>
        <path id="Trazado_725345" data-name="Trazado 725345" d="M103.894,143.633l-1.89-1.6a4.249,4.249,0,0,1-.506-5.97l17.519-20.763a4.249,4.249,0,0,1,5.97-.506l1.891,1.595a4.25,4.25,0,0,1,.506,5.97l-17.52,20.763a4.249,4.249,0,0,1-5.97.506" fill="#eb3522"/>
        <path id="Trazado_725346" data-name="Trazado 725346" d="M126.878,116.394l-1.042-.88-22.984,27.239,1.042.88a4.248,4.248,0,0,0,5.97-.506l17.52-20.763a4.25,4.25,0,0,0-.506-5.97" fill="#ce291d"/>
        <path id="Trazado_725347" data-name="Trazado 725347" d="M97.229,106.179c11.513,21.553,2.52,38.579-10.016,43.136-7.95,2.891-16.989-.384-23.265-5.484C49.3,131.925,49.116,110.518,53.48,93.72c1.472-5.663,4-11.881,9.943-14.048,6.239-2.276,12.654,3.471,16.984,7.206,6.544,5.645,12.7,11.59,16.822,19.3" fill="#a6c752"/>
        <path id="Trazado_725348" data-name="Trazado 725348" d="M97.229,106.179c-4.119-7.711-10.278-13.656-16.822-19.3-4.33-3.735-10.745-9.482-16.984-7.206-.214.077-.422.162-.627.251L87.924,149.04c12.159-4.934,20.6-21.718,9.3-42.861" fill="#418820"/>
        <path id="Trazado_725349" data-name="Trazado 725349" d="M93.891,107.444c9.808,18.362,2.147,32.868-8.534,36.751-6.773,2.462-14.473-.328-19.82-4.673C53.055,129.379,52.9,111.141,56.619,96.83c1.254-4.826,3.408-10.123,8.47-11.969C70.4,82.922,75.87,87.819,79.56,91c5.575,4.809,10.822,9.873,14.331,16.443" fill="#f4f27b"/>
        <path id="Trazado_725350" data-name="Trazado 725350" d="M93.891,107.444C90.382,100.874,85.135,95.81,79.56,91c-3.69-3.182-9.155-8.079-14.471-6.14q-.22.081-.435.171l21.409,58.887c10.3-4.254,17.419-18.52,7.828-36.475" fill="#e1c95b"/>
        <path id="Trazado_725351" data-name="Trazado 725351" d="M90.422,120.917a12.682,12.682,0,1,1-16.252-7.586,12.682,12.682,0,0,1,16.252,7.586" fill="#e1c95b"/>
        <path id="Trazado_725352" data-name="Trazado 725352" d="M87.787,121.875a9.877,9.877,0,1,1-12.658-5.908,9.877,9.877,0,0,1,12.658,5.908" fill="#6e390f"/>
        <path id="Trazado_725353" data-name="Trazado 725353" d="M78.378,123.173a2.261,2.261,0,1,1-2.262-2.262,2.262,2.262,0,0,1,2.262,2.262" fill="#b2652b"/>
        <path id="Trazado_725354" data-name="Trazado 725354" d="M35.29,146.432a65.395,65.395,0,0,0,130.6,0Z" fill="#8e8e8e"/>
        <path id="Trazado_725355" data-name="Trazado 725355" d="M98.753,146.432H35.29A65.4,65.4,0,0,0,98.753,208.3Z" fill="#b2b2b2"/>
        <path id="Trazado_725356" data-name="Trazado 725356" d="M171.471,146.432H29.711a1.947,1.947,0,0,1-1.941-1.94V142.55a1.947,1.947,0,0,1,1.941-1.94h141.76a1.946,1.946,0,0,1,1.94,1.94v1.942a1.946,1.946,0,0,1-1.94,1.94" fill="#c6c6c6"/>
        <path id="Trazado_725357" data-name="Trazado 725357" d="M117.1,211.444h-32a1.946,1.946,0,0,1-1.94-1.941v-1.586a1.946,1.946,0,0,1,1.94-1.94h32a1.946,1.946,0,0,1,1.94,1.94V209.5a1.946,1.946,0,0,1-1.94,1.941" fill="#c6c6c6"/>
        <path id="Trazado_725358" data-name="Trazado 725358" d="M84.076,199.881a2.48,2.48,0,0,1-.634-.082A48.467,48.467,0,0,1,63.03,189.091a47.79,47.79,0,0,1-10.995-14.7,53.011,53.011,0,0,1-5.272-18.6,2.507,2.507,0,0,1,5.006-.273,48.873,48.873,0,0,0,4.852,16.84,42.74,42.74,0,0,0,9.842,13.084,43.536,43.536,0,0,0,18.243,9.512,2.507,2.507,0,0,1-.63,4.933" fill="#c6c6c6"/>
      </g>
    </g>
  </g>
</svg>
