<svg id="Grupo_983983" data-name="Grupo 983983" xmlns="http://www.w3.org/2000/svg" xmlns:xlink="http://www.w3.org/1999/xlink" width="190.946" height="184.281" viewBox="0 0 190.946 184.281">
  <defs>
    <clipPath id="clip-path">
      <rect id="Rectángulo_344758" data-name="Rectángulo 344758" width="190.946" height="184.281" fill="none"/>
    </clipPath>
    <clipPath id="clip-path-3">
      <rect id="Rectángulo_344740" data-name="Rectángulo 344740" width="10.927" height="15.971" fill="none"/>
    </clipPath>
    <clipPath id="clip-path-4">
      <rect id="Rectángulo_344741" data-name="Rectángulo 344741" width="31.928" height="93.282" fill="none"/>
    </clipPath>
    <clipPath id="clip-path-5">
      <rect id="Rectángulo_344742" data-name="Rectángulo 344742" width="9.774" height="9.999" fill="none"/>
    </clipPath>
    <clipPath id="clip-path-6">
      <rect id="Rectángulo_344744" data-name="Rectángulo 344744" width="42.265" height="97.093" fill="none"/>
    </clipPath>
    <clipPath id="clip-path-7">
      <rect id="Rectángulo_344745" data-name="Rectángulo 344745" width="23.671" height="27.54" fill="none"/>
    </clipPath>
    <clipPath id="clip-path-8">
      <rect id="Rectángulo_344747" data-name="Rectángulo 344747" width="17.737" height="31.007" fill="none"/>
    </clipPath>
    <clipPath id="clip-path-9">
      <rect id="Rectángulo_344748" data-name="Rectángulo 344748" width="3.919" height="4.097" fill="none"/>
    </clipPath>
    <clipPath id="clip-path-10">
      <rect id="Rectángulo_344749" data-name="Rectángulo 344749" width="3.385" height="3.208" fill="none"/>
    </clipPath>
    <clipPath id="clip-path-11">
      <rect id="Rectángulo_344750" data-name="Rectángulo 344750" width="3.382" height="3.385" fill="none"/>
    </clipPath>
    <clipPath id="clip-path-12">
      <rect id="Rectángulo_344751" data-name="Rectángulo 344751" width="3.096" height="3.205" fill="none"/>
    </clipPath>
    <clipPath id="clip-path-13">
      <rect id="Rectángulo_344752" data-name="Rectángulo 344752" width="1.603" height="1.427" fill="none"/>
    </clipPath>
    <clipPath id="clip-path-14">
      <rect id="Rectángulo_344753" data-name="Rectángulo 344753" width="1.376" height="1.425" fill="none"/>
    </clipPath>
    <clipPath id="clip-path-15">
      <rect id="Rectángulo_344756" data-name="Rectángulo 344756" width="37.874" height="27.862" fill="none"/>
    </clipPath>
  </defs>
  <g id="Grupo_983982" data-name="Grupo 983982" clip-path="url(#clip-path)">
    <rect id="Rectángulo_344736" data-name="Rectángulo 344736" width="60.133" height="8.074" transform="matrix(0.398, -0.918, 0.918, 0.398, 121.77, 93.55)" fill="#fff"/>
    <g id="Grupo_983981" data-name="Grupo 983981">
      <g id="Grupo_983980" data-name="Grupo 983980" clip-path="url(#clip-path)">
        <path id="Trazado_720716" data-name="Trazado 720716" d="M286.569,78.659l-2.632-1.141a6.02,6.02,0,0,1-3.121-7.894l4.013-9.261a6.02,6.02,0,0,1,7.894-3.121l2.632,1.141a6.02,6.02,0,0,1,3.121,7.894l-4.012,9.261a6.021,6.021,0,0,1-7.895,3.121" transform="translate(-140.096 -28.362)" fill="#fe6e27"/>
        <path id="Trazado_720717" data-name="Trazado 720717" d="M301.189,62.994,228.661,31.568l3.672-8.475a4.362,4.362,0,0,1,5.737-2.268l64.523,27.958a4.362,4.362,0,0,1,2.268,5.737Z" transform="translate(-114.277 -10.227)" fill="#ffbb4d"/>
        <rect id="Rectángulo_344737" data-name="Rectángulo 344737" width="6.375" height="73.094" transform="translate(115.002 27.398) rotate(-66.573)" fill="#ed5d1d"/>
        <path id="Trazado_720718" data-name="Trazado 720718" d="M307.846,55.3,242.224,26.865a1,1,0,0,1-.52-1.317l.049-.112a1,1,0,0,1,1.317-.521l65.622,28.434a1,1,0,0,1,.52,1.317l-.049.112a1,1,0,0,1-1.317.521" transform="translate(-120.754 -12.411)" fill="#f9b046"/>
        <path id="Trazado_720719" data-name="Trazado 720719" d="M120.974,56.11l5.833,19.853,9.528,32.422,1.226,4.173-12.476,3.667-20.279,5.959-1.226-4.173L94.052,85.589,88.219,65.733l26.949-7.918Z" transform="translate(-44.089 -28.042)" fill="#8260c6"/>
        <rect id="Rectángulo_344738" data-name="Rectángulo 344738" width="8.286" height="58.836" transform="translate(44.13 37.692) rotate(-16.375)" fill="#8467c9"/>
        <path id="Trazado_720720" data-name="Trazado 720720" d="M121.216,49.9l4.7,15.983a2.954,2.954,0,0,1-1.787,3.585c-.069.026-.139.05-.21.071l-6.832,2.007-25.5,7.492c-.073.022-.145.039-.216.055a2.96,2.96,0,0,1-3.442-2.051l-4.7-15.981a9.483,9.483,0,0,1,6.4-11.735L109.481,43.5c.2-.058.4-.109.593-.153A9.487,9.487,0,0,1,121.216,49.9" transform="translate(-41.406 -21.548)" fill="#8260c6"/>
        <path id="Trazado_720721" data-name="Trazado 720721" d="M153.221,162.6l4.5,15.307a10.188,10.188,0,0,1-6.881,12.607l-15.46,4.541-3.036.893a10.181,10.181,0,0,1-12.6-6.882l-4.5-15.307a2.951,2.951,0,0,1,1.785-3.585c.069-.026.139-.05.21-.071l21.056-6.188,11.272-3.311c.073-.022.145-.039.217-.056a2.959,2.959,0,0,1,3.442,2.051" transform="translate(-57.533 -80.204)" fill="#8260c6"/>
        <rect id="Rectángulo_344739" data-name="Rectángulo 344739" width="15.798" height="14.891" transform="translate(48.681 20.646) rotate(-16.374)" fill="#8260c6"/>
        <path id="Trazado_720722" data-name="Trazado 720722" d="M114.022,36.5l-9.183,2.779L96.1,41.93l-.507-1.685a.294.294,0,0,1,.2-.366l.186-.057,9.569-2.9,7.461-2.259.139-.043a.294.294,0,0,1,.369.193Z" transform="translate(-47.767 -17.298)" fill="#ed5d1d"/>
        <path id="Trazado_720723" data-name="Trazado 720723" d="M110.478,23.956l-7.783,2.357-9.247,2.8-.171-.576-3.034-10.19A1.638,1.638,0,0,1,91.336,16.3l9.056-2.74,4.84-1.466a1.636,1.636,0,0,1,2.041,1.092l3.032,10.191Z" transform="translate(-45.065 -6.01)" fill="#fe6e27"/>
        <path id="Trazado_720724" data-name="Trazado 720724" d="M95.9,33.057l-.05.015a.429.429,0,0,1-.531-.29L92.745,24.02a.429.429,0,0,1,.29-.531l.05-.015a.429.429,0,0,1,.531.29l2.574,8.762a.429.429,0,0,1-.29.531" transform="translate(-46.342 -11.723)" fill="#ed5d1d"/>
        <path id="Trazado_720725" data-name="Trazado 720725" d="M99.383,32.034l-.05.015a.429.429,0,0,1-.531-.29L96.228,23a.429.429,0,0,1,.29-.531l.05-.015a.429.429,0,0,1,.531.29L99.673,31.5a.429.429,0,0,1-.29.531" transform="translate(-48.082 -11.212)" fill="#ed5d1d"/>
        <path id="Trazado_720726" data-name="Trazado 720726" d="M102.866,31.011l-.05.015a.43.43,0,0,1-.531-.29l-2.574-8.762a.429.429,0,0,1,.29-.531l.051-.015a.428.428,0,0,1,.531.29l2.574,8.762a.429.429,0,0,1-.29.531" transform="translate(-49.823 -10.701)" fill="#ed5d1d"/>
        <path id="Trazado_720727" data-name="Trazado 720727" d="M106.349,29.987,106.3,30a.429.429,0,0,1-.531-.29l-2.574-8.762a.429.429,0,0,1,.29-.531l.05-.015a.429.429,0,0,1,.531.29l2.574,8.762a.429.429,0,0,1-.29.531" transform="translate(-51.564 -10.189)" fill="#ed5d1d"/>
        <path id="Trazado_720728" data-name="Trazado 720728" d="M109.832,28.964l-.05.015a.429.429,0,0,1-.531-.29l-2.574-8.762a.429.429,0,0,1,.29-.531l.05-.015a.429.429,0,0,1,.531.29l2.574,8.762a.429.429,0,0,1-.29.531" transform="translate(-53.304 -9.678)" fill="#ed5d1d"/>
        <path id="Trazado_720729" data-name="Trazado 720729" d="M113.314,27.941l-.05.015a.429.429,0,0,1-.531-.29L110.159,18.9a.429.429,0,0,1,.29-.531l.05-.015a.429.429,0,0,1,.531.29L113.6,27.41a.429.429,0,0,1-.29.531" transform="translate(-55.045 -9.166)" fill="#ed5d1d"/>
        <path id="Trazado_720730" data-name="Trazado 720730" d="M116.8,26.917l-.05.015a.43.43,0,0,1-.531-.29l-2.574-8.762a.429.429,0,0,1,.29-.531l.051-.015a.429.429,0,0,1,.531.29l2.574,8.762a.429.429,0,0,1-.29.531" transform="translate(-56.785 -8.655)" fill="#ed5d1d"/>
        <path id="Trazado_720731" data-name="Trazado 720731" d="M120.28,25.894l-.05.015a.429.429,0,0,1-.531-.29l-2.574-8.762a.429.429,0,0,1,.29-.531l.05-.015a.429.429,0,0,1,.531.29l2.574,8.762a.429.429,0,0,1-.29.531" transform="translate(-58.526 -8.143)" fill="#ed5d1d"/>
        <path id="Trazado_720732" data-name="Trazado 720732" d="M123.763,24.87l-.05.015a.43.43,0,0,1-.531-.29l-2.574-8.762a.429.429,0,0,1,.29-.531l.05-.015a.429.429,0,0,1,.531.29l2.574,8.762a.429.429,0,0,1-.29.531" transform="translate(-60.267 -7.632)" fill="#ed5d1d"/>
        <g id="Grupo_983943" data-name="Grupo 983943" transform="translate(55.328 6.015)" opacity="0.22">
          <g id="Grupo_983942" data-name="Grupo 983942">
            <g id="Grupo_983941" data-name="Grupo 983941" clip-path="url(#clip-path-3)">
              <path id="Trazado_720733" data-name="Trazado 720733" d="M121.53,25.216,112.347,28a11.671,11.671,0,0,0,.557-1.684c.056-.224.107-.449.151-.674.057-.293.106-.584.143-.871a14.363,14.363,0,0,0,.127-1.618q.007-.323-.006-.651a22.282,22.282,0,0,0-2.717-8.936l4.841-1.466a1.635,1.635,0,0,1,2.04,1.093l3.032,10.191.139-.043a.294.294,0,0,1,.369.193Z" transform="translate(-110.603 -12.025)" fill="#c64010"/>
            </g>
          </g>
        </g>
        <g id="Grupo_983946" data-name="Grupo 983946" transform="translate(68.667 21.568)" opacity="0.61">
          <g id="Grupo_983945" data-name="Grupo 983945">
            <g id="Grupo_983944" data-name="Grupo 983944" clip-path="url(#clip-path-4)">
              <path id="Trazado_720734" data-name="Trazado 720734" d="M151.321,69.469l9.528,32.422a2.959,2.959,0,0,1,3.442,2.051l4.5,15.307a10.188,10.188,0,0,1-6.881,12.607L146.446,136.4a36.9,36.9,0,0,0,3.147-13.528c.2-4.329.189-8.721.006-13.138q-.089-2.235-.24-4.474a218.144,218.144,0,0,0-4.949-33.122l-.131-.589c-1.48-6.62-2.805-13.5-4.6-20.226-.715-2.694-1.508-5.363-2.412-7.977A9.486,9.486,0,0,1,148.412,49.9l4.7,15.983a2.955,2.955,0,0,1-1.787,3.585" transform="translate(-137.27 -43.116)" fill="#7458ba"/>
            </g>
          </g>
        </g>
        <path id="Trazado_720735" data-name="Trazado 720735" d="M89.919,62.965c.717-3.257,4.785-5.377,7.582-3.049,3.413,2.842,5.305,9.289,6.171,13.439a12.148,12.148,0,0,1,.143,5.521c-1.057,4.051-5.484,5.564-8.378,2.53-2.358-2.472-3.5-6.159-4.452-9.362-.711-2.391-1.7-6.181-1.065-9.078" transform="translate(-44.836 -29.452)" fill="#8467c9"/>
        <path id="Trazado_720736" data-name="Trazado 720736" d="M210.458,9.47l-13.53,5.942-3.153-8.5a2.561,2.561,0,0,1,1.372-3.236l5.083-2.233,2.8-1.228A2.564,2.564,0,0,1,206.336,1.4L210,8.577Z" transform="translate(-96.761 0)" fill="#fff"/>
        <path id="Trazado_720737" data-name="Trazado 720737" d="M198.1,9.191l2.4,5.872a1.024,1.024,0,0,0,1.361.55l7.476-3.293a1.024,1.024,0,0,0,.5-1.394l-1.762-3.541a1.024,1.024,0,0,0-1.171-.536L202.33,8.016l-.532-.707a1.025,1.025,0,0,0-1.242-.317l-1.935.879a1.024,1.024,0,0,0-.525,1.32" transform="translate(-98.963 -3.407)" fill="#f2f2f2"/>
        <g id="Grupo_983949" data-name="Grupo 983949" transform="translate(103.467)" opacity="0.37">
          <g id="Grupo_983948" data-name="Grupo 983948">
            <g id="Grupo_983947" data-name="Grupo 983947" clip-path="url(#clip-path-5)">
              <path id="Trazado_720738" data-name="Trazado 720738" d="M216.611,8.577c-.782.2-1.587.342-1.945.441-1.048.278-2.524,1.127-3.6.959-.515-2.151-.966-4.627-2.271-6.472a9.744,9.744,0,0,0-1.962-2.062l2.8-1.228A2.564,2.564,0,0,1,212.944,1.4Z" transform="translate(-206.837 0)" fill="#f2f2f2"/>
            </g>
          </g>
        </g>
        <path id="Trazado_720739" data-name="Trazado 720739" d="M214.838,18.326l-16.294,7.152-.732-1.669a4.511,4.511,0,0,1,2.318-5.944l8.032-3.526a4.511,4.511,0,0,1,5.944,2.318Z" transform="translate(-98.668 -6.976)" fill="#fe6e27"/>
        <path id="Trazado_720740" data-name="Trazado 720740" d="M216.328,22.979l-16.846,7.394-.283-.645a.8.8,0,0,1,.412-1.058l15.376-6.749a.8.8,0,0,1,1.059.413Z" transform="translate(-99.518 -10.921)" fill="#ed5d1d"/>
        <path id="Trazado_720741" data-name="Trazado 720741" d="M205.052,40.619,196.7,99.655l-2.212,15.63a6.031,6.031,0,0,1-6.816,5.126l-22.7-3.211a6.028,6.028,0,0,1-5.126-6.816L169.72,40.6a10.5,10.5,0,0,1,6.152-8.131l19.757-8.73a5.64,5.64,0,0,1,3.673-.363,8.3,8.3,0,0,1,5.243,4.828c1.746,3.887,1.083,8.345.507,12.411" transform="translate(-79.856 -11.606)" fill="#70ba73"/>
        <path id="Trazado_720742" data-name="Trazado 720742" d="M187.339,72.411l-.383-.054a3.175,3.175,0,0,1-2.691-3.578l.766-5.418a3.175,3.175,0,0,1,3.578-2.691l.383.055a3.174,3.174,0,0,1,2.691,3.578l-.766,5.418a3.175,3.175,0,0,1-3.578,2.691" transform="translate(-92.073 -30.305)" fill="#63aa63"/>
        <path id="Trazado_720743" data-name="Trazado 720743" d="M208.187,75.36l-.384-.054a3.175,3.175,0,0,1-2.691-3.578l.766-5.418a3.175,3.175,0,0,1,3.578-2.691l.383.055a3.174,3.174,0,0,1,2.691,3.578l-.766,5.418a3.175,3.175,0,0,1-3.578,2.691" transform="translate(-102.492 -31.779)" fill="#63aa63"/>
        <path id="Trazado_720744" data-name="Trazado 720744" d="M229.034,78.31l-.383-.055a3.174,3.174,0,0,1-2.691-3.578l.766-5.418a3.175,3.175,0,0,1,3.578-2.691l.383.055a3.174,3.174,0,0,1,2.691,3.578l-.766,5.418a3.175,3.175,0,0,1-3.578,2.691" transform="translate(-112.911 -33.253)" fill="#63aa63"/>
        <rect id="Rectángulo_344743" data-name="Rectángulo 344743" width="34.321" height="34.986" transform="translate(82.454 81.376) rotate(-81.947)" fill="#63aa63"/>
        <g id="Grupo_983952" data-name="Grupo 983952" transform="translate(83.549 11.774)" opacity="0.32">
          <g id="Grupo_983951" data-name="Grupo 983951">
            <g id="Grupo_983950" data-name="Grupo 983950" clip-path="url(#clip-path-6)">
              <path id="Trazado_720745" data-name="Trazado 720745" d="M208.666,40.775l-8.352,59.036-2.212,15.63a6.031,6.031,0,0,1-6.816,5.126l-22.7-3.211a6.011,6.011,0,0,1-1.569-.444c11.831-9.8,20.205-22.709,25.973-37.387,6.925-17.614,13.069-37.072,9.924-55.99a8.3,8.3,0,0,1,5.243,4.828c1.746,3.887,1.083,8.345.507,12.411" transform="translate(-167.019 -23.536)" fill="#559355"/>
            </g>
          </g>
        </g>
        <path id="Trazado_720746" data-name="Trazado 720746" d="M51.194,209.735l-.431.008a3.522,3.522,0,0,1-3.583-3.462L45.459,106.188a3.522,3.522,0,0,1,3.462-3.583l.431-.008a3.523,3.523,0,0,1,3.582,3.462l1.721,100.093a3.522,3.522,0,0,1-3.461,3.583" transform="translate(-22.719 -51.274)" fill="#ffc673"/>
        <path id="Trazado_720747" data-name="Trazado 720747" d="M56.788,327l-51.037.877q.1-1.265.289-2.5c2.075-13.389,12.3-23.639,24.784-23.854A22.994,22.994,0,0,1,40.1,303.3c8.178,3.4,14.444,11.371,16.315,21.208q.234,1.225.374,2.486" transform="translate(-2.874 -150.689)" fill="#fe6e27"/>
        <path id="Trazado_720748" data-name="Trazado 720748" d="M56.808,350.412a2.987,2.987,0,0,1-2.938,3.041l-50.828.874a2.99,2.99,0,0,1-.1-5.98l50.827-.874a2.989,2.989,0,0,1,3.041,2.938" transform="translate(0 -173.654)" fill="#ed5d1d"/>
        <g id="Grupo_983955" data-name="Grupo 983955" transform="translate(33.137 152.615)" opacity="0.26">
          <g id="Grupo_983954" data-name="Grupo 983954">
            <g id="Grupo_983953" data-name="Grupo 983953" clip-path="url(#clip-path-7)">
              <path id="Trazado_720749" data-name="Trazado 720749" d="M89.914,329.228a2.987,2.987,0,0,1-2.938,3.041l-20.732.356c.481-1.157.929-2.334,1.348-3.512q.449-1.257.847-2.507c.579-1.809,1.08-3.592,1.5-5.277a37.72,37.72,0,0,0,.389-16.244c8.178,3.4,14.444,11.37,16.315,21.208l.227,0a2.989,2.989,0,0,1,3.041,2.938" transform="translate(-66.243 -305.085)" fill="#d3460f"/>
            </g>
          </g>
        </g>
        <path id="Trazado_720750" data-name="Trazado 720750" d="M21.62,314.651c2.785-3.027,7.428-7.054,11.928-7.519,7.768-.8,6.037,9.206,2.653,12.624a18.453,18.453,0,0,1-9.585,4.671c-2.871.567-7.185.6-8.1-2.572a5.03,5.03,0,0,1,.265-3.15,14.459,14.459,0,0,1,2.842-4.054" transform="translate(-9.178 -153.471)" fill="#ff7d50"/>
        <path id="Trazado_720751" data-name="Trazado 720751" d="M187.188,336.985H126.745a6.278,6.278,0,0,1-6.278-6.278v-4.449h73v4.449a6.278,6.278,0,0,1-6.278,6.278" transform="translate(-60.205 -163.052)" fill="#f7ac41"/>
        <path id="Trazado_720752" data-name="Trazado 720752" d="M193.48,142.464l-.355,5.108-.072,1.021-5.769,82.879a10.831,10.831,0,0,1-10.806,10.083H108.837a10.833,10.833,0,0,1-10.808-10.083l-.46-6.6-.585-8.4-.5-7.253-.968-13.9-.72-10.356-2.531-36.375-.072-1.021-.317-4.564-.039-.544Z" transform="translate(-45.896 -71.198)" fill="#ffbb4d"/>
        <path id="Trazado_720753" data-name="Trazado 720753" d="M230.98,142.464l-.355,5.108-.072,1.021-5.769,82.879a10.831,10.831,0,0,1-10.806,10.083H166.869c46.836-19.057,49.14-68.756,45.677-99.092Z" transform="translate(-83.395 -71.198)" fill="#f9b046"/>
        <path id="Trazado_720754" data-name="Trazado 720754" d="M123.461,167.458c11.586-9.228,29.761-12.725,39.024,1.146,13.771,20.616-3.585,50.795-21.151,62.811-14.408,9.856-32.567,1.18-34.282-16.531-1.335-13.788,1.884-29.814,10.214-41.081a34.229,34.229,0,0,1,6.2-6.344" transform="translate(-53.355 -79.636)" fill="#ffc673"/>
        <path id="Trazado_720755" data-name="Trazado 720755" d="M193.481,142.464l-.427,6.129H92.262l-.427-6.129Z" transform="translate(-45.896 -71.198)" fill="#f9ac3d"/>
        <path id="Trazado_720756" data-name="Trazado 720756" d="M193.481,142.464l-.355,5.108H92.19l-.355-5.108Z" transform="translate(-45.896 -71.198)" fill="#f7ac41"/>
        <path id="Trazado_720757" data-name="Trazado 720757" d="M193.484,135.94v3.041a.167.167,0,0,1-.17.167H82.555a.167.167,0,0,1-.167-.167V135.94a3.177,3.177,0,0,1,3.179-3.176h104.74a3.175,3.175,0,0,1,3.176,3.176" transform="translate(-41.175 -66.351)" fill="#ffbb4d"/>
        <path id="Trazado_720758" data-name="Trazado 720758" d="M192.4,132.764v9.971a2.254,2.254,0,0,1-.236,1.011,2.292,2.292,0,0,1-1.23,1.125,2.266,2.266,0,0,1-.82.152h-8.57a2.285,2.285,0,0,1-2.049-1.277,2.248,2.248,0,0,1-.236-1.011v-9.971Z" transform="translate(-89.589 -66.351)" fill="#f9ac3d"/>
        <path id="Trazado_720759" data-name="Trazado 720759" d="M187.511,135.316a4.57,4.57,0,1,1-4.57,4.57,4.57,4.57,0,0,1,4.57-4.57" transform="translate(-91.427 -67.626)" fill="#fff"/>
        <path id="Trazado_720760" data-name="Trazado 720760" d="M139.889,140.423a3.067,3.067,0,0,0-4.758-1.41c-.031.023-.674.518-1.8,1.41-4.145,3.287-14.807,11.934-25.212,22a159.428,159.428,0,0,0-18.34,20.5l-.008.011c-5.831,8.1-8.415,14.631-7.9,19.971.291,3.026,1.78,7.2,7.228,9.95l2.875,1.573-.5-7.253c-2.858-1.576-3.369-3.512-3.5-4.855-.169-1.755.233-4.62,2.531-9.041,3.013-5.8,9.3-14.274,21.843-26.418a350.739,350.739,0,0,1,26.523-22.99,3.072,3.072,0,0,0,1.024-3.453" transform="translate(-40.883 -69.158)" fill="#d17a11"/>
        <path id="Trazado_720761" data-name="Trazado 720761" d="M247.363,179c-1.461,1.114-3.189.907-4.961.155a22.479,22.479,0,0,1-3.439-1.934c-1.375-.9-2.69-1.826-3.841-2.409a.228.228,0,0,0-.3.082.6.6,0,0,1,.059-.022c.849,5.4,1.939,10.775,2.906,16.169.5,2.78.967,5.568,1.35,8.366.4,2.891,1.309,8.6-2.266,8.534-2.656-.054-3.888-5.228-4.574-7.778-.945-3.514-1.819-7.082-2.7-10.628-.508-2.034-1.021-4.061-1.554-6.069-.115-.428-.6-.309-.555.136.319,3.023.55,6.055.8,9.087.184,2.246.381,4.492.626,6.73.327,2.961,1.036,8.838-1.878,9.87-3.537,1.255-4.316-6.277-4.926-9.214-.042-.2-.084-.4-.126-.6-.545-2.593-1.124-5.207-1.672-7.83-.4-1.923-.785-3.855-1.127-5.784-.081-.452-.592-.387-.565.073.135,2.355.368,4.7.626,7.049.41,3.715.879,7.424,1.107,11.135,0,.033.005.065.005.1.14,2.363.174,6.35-2,6.827a1.291,1.291,0,0,1-.8-.084c-3.056-1.279-5.634-13.253-7.1-21.061-.123-.647-.236-1.268-.344-1.848-.005-.03-.01-.057-.015-.087-.084-.455-.6-.377-.562.084.042.55.086,1.149.133,1.783.039.512.079,1.048.12,1.6.444,5.992,1,14.007.734,15.6-.486,2.866-2.737,4.8-4.183,1.661a40.386,40.386,0,0,1-1.25-6.681c-.749-5.338-1.529-12.311-1.949-15.316-.567-4.055-1.492-12.652-2.5-22.337-.42-4.045-.854-8.279-1.284-12.452-.061-.6-.12-1.189-.182-1.783-.138-1.344-.275-2.679-.41-4-.045-.415-.086-.829-.128-1.241-.04-.377-.079-.756-.116-1.13-.14-1.344-.278-2.663-.41-3.944-.015-.147-.029-.29-.044-.434q-.066-.634-.133-1.257c-.008-.065-.012-.13-.02-.2v-.011c-.192-1.813-.373-3.539-.545-5.15h31.367l.682,5.356.216,1.691.5,3.944.145,1.13,1.551,12.183a.415.415,0,0,0,.143.274,92.769,92.769,0,0,1,7.33,6.727c1.289,1.306,2.6,2.7,3.8,4.1,3.856,4.489,6.631,9.027,4.267,10.826" transform="translate(-98.633 -66.351)" fill="#946cd3"/>
        <path id="Trazado_720762" data-name="Trazado 720762" d="M235.521,132.764c-.005,1.783-.01,3.574-.014,5.356q0,.846-.005,1.691c0,1.325-.008,2.644-.013,3.944,0,.379,0,.756,0,1.13-.03,7.537-.074,14.459-.162,19.184-.029,1.509-.064,2.8-.1,3.806-.076,1.956-.137,5.573-.228,9.341-.138,5.665-.339,11.674-.761,12.907a4.344,4.344,0,0,1-.42.913c-1.223,2-3.221.428-3.9-2.056-.515-1.869-.761-13.181-.908-18.986-.012-.463-.53-.479-.567-.016-.44,5.475-1.247,14.28-2.816,19.552a13.083,13.083,0,0,1-1.308,3.153c-.533.842-1.127,1.3-1.795,1.236-1.22-.117-1.878-1.377-2.234-2.883a19.983,19.983,0,0,1-.44-3.76c-.233-6.068.17-12.2-.088-18.285-.02-.46-.533-.463-.567,0-.361,4.836-.986,9.7-1.492,14.481-.209,1.969-.29,5.93-1.36,8.171a3.158,3.158,0,0,1-1.066,1.339,1.941,1.941,0,0,1-1.556.244c-3-.672-2.877-6.6-2.847-9.583.052-5.3-.182-10.6-.155-15.893,0-.45-.494-.509-.565-.068-.9,5.652-1.645,11.435-2.573,17.112a32.838,32.838,0,0,1-1.1,5.1,8.89,8.89,0,0,1-.668,1.534,4.027,4.027,0,0,1-.928,1.16,2.167,2.167,0,0,1-1.077.487c-3.547.5-3.206-5.286-3.1-8.206.3-8.32,1.328-16.61,1.789-24.9l.067.016a.228.228,0,0,0-.314-.046c-1.642,1.09-3.584,3.007-5.583,4.419-2.084,1.466-4.229,2.381-6.171,1.227-2.941-1.747.655-8.014,4.887-13.679q.427-.565.854-1.122c1.721-2.227,3.478-4.305,4.9-5.9.366-.412.709-.791,1.021-1.13.633-.688,1.147-1.225,1.49-1.56a.422.422,0,0,0,.115-.29l.057-2.094.045-1.691.145-5.356Z" transform="translate(-94.663 -66.351)" fill="#9e80d8"/>
        <rect id="Rectángulo_344746" data-name="Rectángulo 344746" width="4.274" height="2.493" transform="matrix(1, -0.012, 0.012, 1, 158.827, 89.378)" fill="#fff"/>
        <path id="Trazado_720763" data-name="Trazado 720763" d="M274.681,255.108c.447-13.262,6.575-42.65,8.447-51.372a3.2,3.2,0,0,1,1.969-2.219l-.021-1.8,10.68-.392.023,1.944a3.033,3.033,0,0,1,2.013,2.485,4.692,4.692,0,0,1-.808,3.393,2.893,2.893,0,0,0-.177.415,4.7,4.7,0,0,0,.511,3.784.682.682,0,0,1,.037.071,2.732,2.732,0,0,1,.029,2.475,5.247,5.247,0,0,0-.383,1.091,7.082,7.082,0,0,0,.463,4.265c.04.11.088.216.132.316a2.694,2.694,0,0,1-.037,2.362c-2.393,4.658,2.861,8.03,5.789,10.5l4.554,3.836a7.278,7.278,0,0,1,2.434,3.776c3.932,15.832,1.814,32.087.447,39.462a5.487,5.487,0,0,1-5.53,4.132l-23.122.27a5.674,5.674,0,0,1-5.329-3.09c-3.358-7.558-2.12-25.7-2.12-25.7" transform="translate(-137.164 -99.615)" fill="#4ccfe1"/>
        <path id="Trazado_720764" data-name="Trazado 720764" d="M295.4,193.038l9.927-.116a1.042,1.042,0,0,0,1.029-1.1l-.386-6.742-11.4.133-.228,6.749a1.042,1.042,0,0,0,1.054,1.077" transform="translate(-147.101 -92.496)" fill="#fe6e27"/>
        <path id="Trazado_720765" data-name="Trazado 720765" d="M313.985,194.373h.059a.487.487,0,0,0,.479-.491l-.047-4.016a.486.486,0,0,0-.49-.479h-.059a.487.487,0,0,0-.479.491l.047,4.016a.486.486,0,0,0,.49.479" transform="translate(-156.65 -94.649)" fill="#ed5d1d"/>
        <path id="Trazado_720766" data-name="Trazado 720766" d="M308.5,194.437h.059a.487.487,0,0,0,.479-.491l-.047-4.016a.487.487,0,0,0-.491-.479h-.059a.486.486,0,0,0-.479.491l.047,4.016a.486.486,0,0,0,.491.479" transform="translate(-153.909 -94.681)" fill="#ed5d1d"/>
        <path id="Trazado_720767" data-name="Trazado 720767" d="M303.016,194.5h.06a.486.486,0,0,0,.479-.491l-.047-4.016a.487.487,0,0,0-.491-.479h-.059a.487.487,0,0,0-.479.491l.047,4.016a.486.486,0,0,0,.49.479" transform="translate(-151.168 -94.713)" fill="#ed5d1d"/>
        <path id="Trazado_720768" data-name="Trazado 720768" d="M297.532,194.565h.059a.487.487,0,0,0,.479-.491l-.047-4.016a.486.486,0,0,0-.49-.479h-.06a.487.487,0,0,0-.479.491l.047,4.016a.486.486,0,0,0,.49.479" transform="translate(-148.427 -94.745)" fill="#ed5d1d"/>
        <path id="Trazado_720769" data-name="Trazado 720769" d="M320.277,170.395a45.594,45.594,0,0,0,9.331,15.794.371.371,0,0,0,.286.121l2.311-.027a.388.388,0,0,0,.317-.605c-6.859-10.27-7.28-17.122-7.28-17.122l-3.514,1.3Z" transform="translate(-160.063 -84.238)" fill="#ed5d1d"/>
        <path id="Trazado_720770" data-name="Trazado 720770" d="M270.968,171.744l9.555-.112a1.07,1.07,0,0,0,1.081,1.056l12.464-.146a1.067,1.067,0,0,0,1.056-1.081l-.027-2.315s-.224-3.915,6.186-3.99l.178-.016,3.914-.324.9-.075a1.087,1.087,0,0,0,1.073-1.071l.066-4.4a1.091,1.091,0,0,0-1.117-1.109l-1-.063-3.92-.24-18.2.2a5.484,5.484,0,0,0-3.243,1.1,56.661,56.661,0,0,0-9.922,10.758,1.153,1.153,0,0,0,.958,1.816" transform="translate(-134.835 -78.895)" fill="#fff"/>
        <path id="Trazado_720771" data-name="Trazado 720771" d="M332.925,157.865l.085,7.29,3.914-.334.9-.079a1.086,1.086,0,0,0,1.073-1.07l.067-4.4a1.092,1.092,0,0,0-1.117-1.109l-1-.063Z" transform="translate(-166.384 -78.895)" fill="#fe6e27"/>
        <path id="Trazado_720772" data-name="Trazado 720772" d="M340.762,158.343l.079,6.716.9-.078a1.087,1.087,0,0,0,1.074-1.071l.066-4.4a1.091,1.091,0,0,0-1.117-1.109Z" transform="translate(-170.301 -79.134)" fill="#ed5d1d"/>
        <path id="Trazado_720773" data-name="Trazado 720773" d="M304.452,217.185a2.14,2.14,0,0,0,2.161,2.112l5.73-.067a.7.7,0,0,0-.036-.071,4.7,4.7,0,0,1-.511-3.784,2.893,2.893,0,0,1,.177-.415l-5.409.064a2.143,2.143,0,0,0-2.112,2.161" transform="translate(-152.154 -107.429)" fill="#5de3ed"/>
        <path id="Trazado_720774" data-name="Trazado 720774" d="M304.635,232.848a2.139,2.139,0,0,0,2.162,2.111l5.7-.066a.237.237,0,0,0,.05,0,7.081,7.081,0,0,1-.463-4.265l-5.335.063a2.143,2.143,0,0,0-2.112,2.162" transform="translate(-152.245 -115.258)" fill="#5de3ed"/>
        <path id="Trazado_720775" data-name="Trazado 720775" d="M310.031,280.234c2.165,3.431,1.784,9.152,1.921,13.107a134.658,134.658,0,0,1-.771,17.77c-.294,2.919-.822,5.393-3.653,6.735-3.982,1.889-9.105,1.51-13.355,1.007a15.312,15.312,0,0,1-4.373-1.009c-4.006-1.755-4.978-6.626-5.1-10.561a94.489,94.489,0,0,1,1.079-16.112c.519-3.713.717-9.006,3.446-11.839,1.738-1.8,4.254-1.923,6.6-2.054a44.322,44.322,0,0,1,9.325-.033,6.718,6.718,0,0,1,4.879,2.988" transform="translate(-142.268 -138.434)" fill="#5de3ed"/>
        <g id="Grupo_983958" data-name="Grupo 983958" transform="translate(145.189 145.28)" opacity="0.26">
          <g id="Grupo_983957" data-name="Grupo 983957">
            <g id="Grupo_983956" data-name="Grupo 983956" clip-path="url(#clip-path-8)">
              <path id="Trazado_720776" data-name="Trazado 720776" d="M294.717,291.617c-3.212,2.91-4.388,10.366-4.468,13.561-.123,4.9,1.21,12.3,5.716,15.071a7.465,7.465,0,0,0,10.8-3.075,14.249,14.249,0,0,0,1.189-5.579c.267-6.192-1.654-17.222-7.8-20.464a4.389,4.389,0,0,0-5.438.486" transform="translate(-290.241 -290.423)" fill="#fff"/>
            </g>
          </g>
        </g>
        <g id="Grupo_983961" data-name="Grupo 983961" transform="translate(146.228 121.735)" opacity="0.26">
          <g id="Grupo_983960" data-name="Grupo 983960">
            <g id="Grupo_983959" data-name="Grupo 983959" clip-path="url(#clip-path-9)">
              <path id="Trazado_720777" data-name="Trazado 720777" d="M292.875,243.946a1.959,1.959,0,0,1,2.77-.033,2.036,2.036,0,0,1,.59,1.379l0,.178a2.024,2.024,0,0,1-.558,1.392,1.958,1.958,0,0,1-2.77.032,2.035,2.035,0,0,1-.59-1.378l0-.178a2.019,2.019,0,0,1,.557-1.392" transform="translate(-292.318 -243.355)" fill="#fff"/>
            </g>
          </g>
        </g>
        <g id="Grupo_983964" data-name="Grupo 983964" transform="translate(150.54 125.427)" opacity="0.26">
          <g id="Grupo_983963" data-name="Grupo 983963">
            <g id="Grupo_983962" data-name="Grupo 983962" clip-path="url(#clip-path-10)">
              <path id="Trazado_720778" data-name="Trazado 720778" d="M301.395,251.221a1.664,1.664,0,0,1,1.128-.483l.178,0a1.652,1.652,0,0,1,1.138.456,1.6,1.6,0,0,1,.027,2.266,1.664,1.664,0,0,1-1.128.483l-.178,0a1.653,1.653,0,0,1-1.139-.456,1.6,1.6,0,0,1-.026-2.267" transform="translate(-300.938 -250.736)" fill="#fff"/>
            </g>
          </g>
        </g>
        <g id="Grupo_983967" data-name="Grupo 983967" transform="translate(145.582 127.622)" opacity="0.26">
          <g id="Grupo_983966" data-name="Grupo 983966">
            <g id="Grupo_983965" data-name="Grupo 983965" clip-path="url(#clip-path-11)">
              <path id="Trazado_720779" data-name="Trazado 720779" d="M291.483,255.787l.176-.18a1.654,1.654,0,0,1,1.128-.483,1.631,1.631,0,0,1,1.139.456,1.612,1.612,0,0,1,.483,1.128,1.671,1.671,0,0,1-.456,1.139l-.176.18a1.652,1.652,0,0,1-1.128.482,1.6,1.6,0,0,1-1.621-1.584,1.67,1.67,0,0,1,.456-1.139" transform="translate(-291.026 -255.124)" fill="#fff"/>
            </g>
          </g>
        </g>
        <g id="Grupo_983970" data-name="Grupo 983970" transform="translate(142.163 135.322)" opacity="0.26">
          <g id="Grupo_983969" data-name="Grupo 983969">
            <g id="Grupo_983968" data-name="Grupo 983968" clip-path="url(#clip-path-12)">
              <path id="Trazado_720780" data-name="Trazado 720780" d="M285.721,270.517a1.6,1.6,0,0,1,.038,3.2,1.6,1.6,0,0,1-.038-3.2" transform="translate(-284.191 -270.517)" fill="#fff"/>
            </g>
          </g>
        </g>
        <g id="Grupo_983973" data-name="Grupo 983973" transform="translate(144.3 125.688)" opacity="0.26">
          <g id="Grupo_983972" data-name="Grupo 983972">
            <g id="Grupo_983971" data-name="Grupo 983971" clip-path="url(#clip-path-13)">
              <path id="Trazado_720781" data-name="Trazado 720781" d="M289.168,251.261l.178,0a.712.712,0,1,1,.017,1.424l-.178,0a.712.712,0,0,1-.017-1.425" transform="translate(-288.464 -251.258)" fill="#fff"/>
            </g>
          </g>
        </g>
        <g id="Grupo_983976" data-name="Grupo 983976" transform="translate(146.919 134.386)" opacity="0.26">
          <g id="Grupo_983975" data-name="Grupo 983975">
            <g id="Grupo_983974" data-name="Grupo 983974" clip-path="url(#clip-path-14)">
              <path id="Trazado_720782" data-name="Trazado 720782" d="M294.38,268.646a.713.713,0,0,1,.017,1.425.713.713,0,0,1-.017-1.425" transform="translate(-293.7 -268.646)" fill="#fff"/>
            </g>
          </g>
        </g>
        <rect id="Rectángulo_344754" data-name="Rectángulo 344754" width="55.724" height="27.862" transform="translate(41.849 156.136)" fill="#fed466"/>
        <rect id="Rectángulo_344755" data-name="Rectángulo 344755" width="55.724" height="7.865" transform="translate(41.849 156.135)" fill="#70ba73"/>
        <path id="Trazado_720783" data-name="Trazado 720783" d="M91.488,333.972c0-.011,0-.022-.006-.034a1.028,1.028,0,0,0-.728-.728,1.043,1.043,0,0,0-1.283,1.283,1.03,1.03,0,0,0,.728.728l.034.007a1.021,1.021,0,0,0,1.255-1.255" transform="translate(-44.696 -166.508)" fill="#f4bc4a"/>
        <path id="Trazado_720784" data-name="Trazado 720784" d="M100.344,340.967a1.777,1.777,0,0,0-2.514,0,1.981,1.981,0,0,0-.52,1.257,1.8,1.8,0,0,0,.52,1.257,1.778,1.778,0,0,0,2.514,0,1.977,1.977,0,0,0,.521-1.257,1.8,1.8,0,0,0-.521-1.257" transform="translate(-48.631 -170.143)" fill="#f4bc4a"/>
        <path id="Trazado_720785" data-name="Trazado 720785" d="M106.224,334.237a.779.779,0,1,0,.779.779.788.788,0,0,0-.779-.779" transform="translate(-52.697 -167.04)" fill="#f4bc4a"/>
        <path id="Trazado_720786" data-name="Trazado 720786" d="M114.951,341.559a1.455,1.455,0,0,0-1.428-.377,2.659,2.659,0,0,0-.454.2,1.506,1.506,0,1,0,2.06,2.06,2.659,2.659,0,0,0,.2-.454,1.455,1.455,0,0,0-.377-1.428" transform="translate(-56.14 -170.48)" fill="#f4bc4a"/>
        <path id="Trazado_720787" data-name="Trazado 720787" d="M122.58,332.372a1.3,1.3,0,0,0-1.832,0,1.3,1.3,0,0,0,0,1.832,1.3,1.3,0,0,0,1.832,0,1.3,1.3,0,0,0,0-1.832" transform="translate(-60.155 -165.918)" fill="#f4bc4a"/>
        <path id="Trazado_720788" data-name="Trazado 720788" d="M134.387,334.673a1.191,1.191,0,0,0,0,2.38,1.191,1.191,0,0,0,0-2.38" transform="translate(-66.587 -167.257)" fill="#f4bc4a"/>
        <path id="Trazado_720789" data-name="Trazado 720789" d="M128.977,355.293a1.212,1.212,0,0,0,0,2.423,1.212,1.212,0,0,0,0-2.423" transform="translate(-63.873 -177.563)" fill="#f4bc4a"/>
        <path id="Trazado_720790" data-name="Trazado 720790" d="M110.979,354.606a1.033,1.033,0,0,0-1.46,0,1.033,1.033,0,0,0,0,1.46,1.033,1.033,0,0,0,1.46,0,1.033,1.033,0,0,0,0-1.46" transform="translate(-54.583 -177.068)" fill="#f4bc4a"/>
        <path id="Trazado_720791" data-name="Trazado 720791" d="M93.309,359.644a1.17,1.17,0,0,0,0,2.338,1.17,1.17,0,0,0,0-2.338" transform="translate(-46.068 -179.737)" fill="#f4bc4a"/>
        <path id="Trazado_720792" data-name="Trazado 720792" d="M145.7,349.218a1.863,1.863,0,0,0-2.636,0,1.4,1.4,0,0,0-.386.6,1.409,1.409,0,0,0-.161.718,1.882,1.882,0,0,0,.546,1.318,1.864,1.864,0,0,0,2.636,0,2.079,2.079,0,0,0,.546-1.318,1.885,1.885,0,0,0-.546-1.318" transform="translate(-71.222 -174.254)" fill="#f4bc4a"/>
        <path id="Trazado_720793" data-name="Trazado 720793" d="M154.653,336.24a.856.856,0,0,0-.117-.43,1.284,1.284,0,0,0-.353-.548l-.01-.009-.349-.269a1.285,1.285,0,0,0-.641-.2.87.87,0,0,0-.458,0,.856.856,0,0,0-.435.118,1.287,1.287,0,0,0-.554.356l-.27.349-.174.412a1.306,1.306,0,0,0-.031.687,1.694,1.694,0,0,0,.339.815,1.3,1.3,0,0,0,.484.444l.411.174.458.062.458-.062a1.928,1.928,0,0,0,1.03-.792l.008-.014.172-.407a1.292,1.292,0,0,0,.031-.679" transform="translate(-75.579 -167.295)" fill="#f4bc4a"/>
        <path id="Trazado_720794" data-name="Trazado 720794" d="M165.358,347.353a1.813,1.813,0,0,0-2.563,0,2.017,2.017,0,0,0-.531,1.282,1.832,1.832,0,0,0,.531,1.282,1.813,1.813,0,0,0,2.563,0,2.016,2.016,0,0,0,.531-1.282,1.832,1.832,0,0,0-.531-1.282" transform="translate(-81.093 -173.329)" fill="#f4bc4a"/>
        <path id="Trazado_720795" data-name="Trazado 720795" d="M158.807,355.935a1.78,1.78,0,0,0-2.517,0,1.984,1.984,0,0,0-.521,1.258,1.8,1.8,0,0,0,.521,1.259,1.78,1.78,0,0,0,2.517,0,1.977,1.977,0,0,0,.521-1.259,1.8,1.8,0,0,0-.521-1.258" transform="translate(-77.847 -177.623)" fill="#f4bc4a"/>
        <path id="Trazado_720796" data-name="Trazado 720796" d="M180.8,358.646a1.741,1.741,0,0,0-.4-.7,1.475,1.475,0,0,0-1.469-.388l-.361.152c-.114.084-.226.171-.335.261a1.534,1.534,0,0,0-.4.678,1.536,1.536,0,0,0,2.568,1.495,1.533,1.533,0,0,0,.4-.678,1.55,1.55,0,0,0,0-.817" transform="translate(-88.849 -178.666)" fill="#f4bc4a"/>
        <path id="Trazado_720797" data-name="Trazado 720797" d="M184.041,342.474a2.029,2.029,0,0,0-.523-.9,2.111,2.111,0,0,0-1.438-.6,2.089,2.089,0,0,0-2.032,2.032q.036.27.073.54a2.029,2.029,0,0,0,.523.9,2.111,2.111,0,0,0,1.437.6,2.089,2.089,0,0,0,2.033-2.033q-.036-.27-.073-.54" transform="translate(-89.981 -170.41)" fill="#f4bc4a"/>
        <path id="Trazado_720798" data-name="Trazado 720798" d="M169.875,335.948a1.265,1.265,0,0,0,0,2.528,1.265,1.265,0,0,0,0-2.528" transform="translate(-84.287 -167.895)" fill="#f4bc4a"/>
        <path id="Trazado_720799" data-name="Trazado 720799" d="M186.483,331.144a1.138,1.138,0,0,0-1.609,0,1.138,1.138,0,0,0,0,1.609,1.138,1.138,0,0,0,1.609,0,1.138,1.138,0,0,0,0-1.609" transform="translate(-92.227 -165.327)" fill="#f4bc4a"/>
        <path id="Trazado_720800" data-name="Trazado 720800" d="M138.564,361a.79.79,0,1,0,.79.79.8.8,0,0,0-.79-.79" transform="translate(-68.854 -180.415)" fill="#f4bc4a"/>
        <path id="Trazado_720801" data-name="Trazado 720801" d="M90.1,350.008a1.343,1.343,0,0,0-1.9,0,1.342,1.342,0,0,0,0,1.9,1.342,1.342,0,0,0,1.9,0,1.343,1.343,0,0,0,0-1.9" transform="translate(-43.883 -174.725)" fill="#f4bc4a"/>
        <g id="Grupo_983979" data-name="Grupo 983979" transform="translate(59.698 156.135)" opacity="0.11">
          <g id="Grupo_983978" data-name="Grupo 983978">
            <g id="Grupo_983977" data-name="Grupo 983977" clip-path="url(#clip-path-15)">
              <path id="Trazado_720802" data-name="Trazado 720802" d="M157.214,312.123v27.862H119.339a100.328,100.328,0,0,0,13.751-5.877q.567-.3,1.12-.616c.28-.159.557-.321.832-.483a25.311,25.311,0,0,0,11.272-13.02,34.754,34.754,0,0,0,1.941-7.865Z" transform="translate(-119.34 -312.123)" fill="#666"/>
            </g>
          </g>
        </g>
      </g>
    </g>
  </g>
</svg>
