<svg id="Grupo_984025" data-name="Grupo 984025" xmlns="http://www.w3.org/2000/svg" xmlns:xlink="http://www.w3.org/1999/xlink" width="177.444" height="181.425" viewBox="0 0 177.444 181.425">
  <defs>
    <clipPath id="clip-path">
      <rect id="Rectángulo_344796" data-name="Rectángulo 344796" width="177.445" height="181.425" fill="none"/>
    </clipPath>
    <clipPath id="clip-path-3">
      <rect id="Rectángulo_344765" data-name="Rectángulo 344765" width="15.772" height="7.707" fill="none"/>
    </clipPath>
    <clipPath id="clip-path-4">
      <rect id="Rectángulo_344766" data-name="Rectángulo 344766" width="5.042" height="6.787" fill="none"/>
    </clipPath>
    <clipPath id="clip-path-5">
      <rect id="Rectángulo_344768" data-name="Rectángulo 344768" width="8.924" height="12.848" fill="none"/>
    </clipPath>
    <clipPath id="clip-path-6">
      <path id="Trazado_720858" data-name="Trazado 720858" d="M379.58,141.2v3.11l47.977,16.811s6.387-3.2,6.387-18.1-6.387-17.417-6.387-17.417Z" transform="translate(-379.58 -125.607)" fill="none"/>
    </clipPath>
    <radialGradient id="radial-gradient" cx="0.011" cy="0.522" r="2.422" gradientTransform="translate(-3.743 7.923) rotate(180) scale(0.653 1)" gradientUnits="objectBoundingBox">
      <stop offset="0" stop-color="#ffa978"/>
      <stop offset="0.326" stop-color="#fa8362"/>
      <stop offset="0.901" stop-color="#f23838"/>
      <stop offset="1" stop-color="#f23838"/>
    </radialGradient>
    <clipPath id="clip-path-8">
      <rect id="Rectángulo_344771" data-name="Rectángulo 344771" width="10.145" height="20.942" fill="none"/>
    </clipPath>
    <clipPath id="clip-path-9">
      <rect id="Rectángulo_344781" data-name="Rectángulo 344781" width="11.308" height="6.185" fill="none"/>
    </clipPath>
    <clipPath id="clip-path-10">
      <rect id="Rectángulo_344783" data-name="Rectángulo 344783" width="6.241" height="16.302" fill="none"/>
    </clipPath>
    <clipPath id="clip-path-11">
      <rect id="Rectángulo_344785" data-name="Rectángulo 344785" width="6.043" height="29.788" fill="none"/>
    </clipPath>
    <clipPath id="clip-path-12">
      <rect id="Rectángulo_344787" data-name="Rectángulo 344787" width="6.043" height="32.21" fill="none"/>
    </clipPath>
    <clipPath id="clip-path-13">
      <rect id="Rectángulo_344792" data-name="Rectángulo 344792" width="3.846" height="31.076" fill="none"/>
    </clipPath>
    <clipPath id="clip-path-14">
      <rect id="Rectángulo_344794" data-name="Rectángulo 344794" width="3.846" height="6.235" fill="none"/>
    </clipPath>
  </defs>
  <g id="Grupo_984024" data-name="Grupo 984024" clip-path="url(#clip-path)">
    <g id="Grupo_983998" data-name="Grupo 983998">
      <g id="Grupo_983997" data-name="Grupo 983997" clip-path="url(#clip-path)">
        <path id="Trazado_720838" data-name="Trazado 720838" d="M253.129,87.632c-1,2.454-3.31,3.833-5.155,3.08s-2.529-3.352-1.527-5.805,3.31-3.833,5.155-3.08,2.529,3.352,1.527,5.805" transform="translate(-166.223 -55.155)" fill="#747c89"/>
        <path id="Trazado_720839" data-name="Trazado 720839" d="M256.779,85.737c-1.121,2.746-3.7,4.29-5.77,3.448s-2.831-3.751-1.709-6.5,3.7-4.29,5.77-3.448,2.831,3.751,1.709,6.5" transform="translate(-168.114 -53.391)" fill="#555f6d"/>
        <path id="Rectángulo_344764" data-name="Rectángulo 344764" d="M9.863,0h0a9.863,9.863,0,0,1,9.863,9.863V21.425a9.863,9.863,0,0,1-9.863,9.863h0A9.863,9.863,0,0,1,0,21.425V9.863A9.863,9.863,0,0,1,9.863,0Z" transform="translate(65.595 4.654)" fill="#ffb7a9"/>
        <path id="Trazado_720840" data-name="Trazado 720840" d="M216.692,45.849v6.076a1.556,1.556,0,0,0,1.551,1.551h3.878a15.283,15.283,0,0,1,1.551.04,21.324,21.324,0,0,0,2.618,0,.309.309,0,0,1,.1-.013v.814a5.353,5.353,0,0,0-.771.037,23.922,23.922,0,0,1-2.9,0,16.724,16.724,0,0,0-1.721-.044h-3.914a1.726,1.726,0,0,1-1.72-1.721V45.849Z" transform="translate(-145.526 -30.982)" fill="#de7f97"/>
        <path id="Trazado_720841" data-name="Trazado 720841" d="M202.294,34.391l2.715-2.844V19.136h-2.715Z" transform="translate(-136.699 -12.931)" fill="#de7f97"/>
        <path id="Trazado_720842" data-name="Trazado 720842" d="M200.73,53.708a3.5,3.5,0,1,0-3.5,3.5,3.5,3.5,0,0,0,3.5-3.5" transform="translate(-130.915 -33.929)" fill="#ffb7a9"/>
        <path id="Trazado_720843" data-name="Trazado 720843" d="M216.547,97.28a4.848,4.848,0,0,1-4.848-4.848V80.8a4.848,4.848,0,1,1,9.7,0V92.432a4.848,4.848,0,0,1-4.848,4.848" transform="translate(-143.054 -51.322)" fill="#ffb7a9"/>
        <path id="Trazado_720844" data-name="Trazado 720844" d="M216.547,87.118A4.848,4.848,0,0,1,211.7,82.27V70.635a4.848,4.848,0,0,1,9.7,0V82.27a4.848,4.848,0,0,1-4.848,4.848" transform="translate(-143.054 -44.455)" fill="#e67f92"/>
        <path id="Trazado_720845" data-name="Trazado 720845" d="M210.051,0h4.213c4.266,0,7.757,1.551,7.757,5.817v4.326H206.313c-2.812,0-4.019,1.65-4.019,3.668V5.817c0-4.266,3.49-5.817,7.757-5.817" transform="translate(-136.699)" fill="#a45666"/>
        <path id="Trazado_720846" data-name="Trazado 720846" d="M219.615,78.679a4.145,4.145,0,0,0,4.154,4.265h3.865a4.846,4.846,0,0,0,4.7-4.244l.526-5.087a3.777,3.777,0,0,0-3.827-4.244h-4.912a4.416,4.416,0,0,0-4.378,4.265Z" transform="translate(-148.402 -46.876)" fill="#de7f97"/>
        <g id="Grupo_983990" data-name="Grupo 983990" transform="translate(71.165 14.866)" opacity="0.4">
          <g id="Grupo_983989" data-name="Grupo 983989">
            <g id="Grupo_983988" data-name="Grupo 983988" clip-path="url(#clip-path-3)">
              <path id="Trazado_720847" data-name="Trazado 720847" d="M219.473,45.848v6.076a1.556,1.556,0,0,0,1.551,1.551H224.9a15.282,15.282,0,0,1,1.551.04,21.324,21.324,0,0,0,2.618,0,15.282,15.282,0,0,1,1.551-.04h3.07a1.556,1.556,0,0,0,1.552-1.551V45.848Z" transform="translate(-219.473 -45.848)" fill="#afbdc6"/>
            </g>
          </g>
        </g>
        <g id="Grupo_983993" data-name="Grupo 983993" transform="translate(74.268 15.222)" opacity="0.5">
          <g id="Grupo_983992" data-name="Grupo 983992">
            <g id="Grupo_983991" data-name="Grupo 983991" clip-path="url(#clip-path-4)">
              <path id="Trazado_720848" data-name="Trazado 720848" d="M231.078,53.732h3.006l-2.036-6.787h-3.006Z" transform="translate(-229.042 -46.945)" fill="#fff"/>
            </g>
          </g>
        </g>
        <rect id="Rectángulo_344767" data-name="Rectángulo 344767" width="21.848" height="1.422" transform="translate(65.09 13.962)" fill="#555f6d"/>
        <path id="Trazado_720849" data-name="Trazado 720849" d="M208.495,85.739c1.312,3.206,4.333,5.005,6.747,4.019s3.309-4.384,2-7.59-4.333-5.005-6.747-4.019-3.309,4.384-2,7.59" transform="translate(-140.48 -52.627)" fill="#e67f92"/>
        <path id="Trazado_720850" data-name="Trazado 720850" d="M253.814,85.457c-.932,2.283-3.079,3.566-4.8,2.866s-2.353-3.118-1.421-5.4,3.079-3.566,4.8-2.866,2.353,3.118,1.421,5.4" transform="translate(-167.022 -53.969)" fill="#f8d385"/>
        <path id="Trazado_720851" data-name="Trazado 720851" d="M225.719,75.853a5.076,5.076,0,0,0,4.913,4.389h2.18a5.076,5.076,0,0,0,4.913-4.389l.46-4.071a3.865,3.865,0,0,0-3.921-4.389H229.18a3.866,3.866,0,0,0-3.921,4.389Z" transform="translate(-152.199 -45.54)" fill="#ffea91"/>
        <g id="Grupo_983996" data-name="Grupo 983996" transform="translate(73.075 21.853)" opacity="0.2" style="mix-blend-mode: multiply;isolation: isolate">
          <g id="Grupo_983995" data-name="Grupo 983995">
            <g id="Grupo_983994" data-name="Grupo 983994" clip-path="url(#clip-path-5)">
              <path id="Trazado_720852" data-name="Trazado 720852" d="M234.285,67.394h-4.717a4.173,4.173,0,0,0-4.176,4.788l.37,3.273c.3,2.633,2.162,4.788,4.144,4.788h3.6Z" transform="translate(-225.361 -67.394)" fill="#de7f97"/>
            </g>
          </g>
        </g>
        <path id="Trazado_720853" data-name="Trazado 720853" d="M220.8,84.527c.963,2.359,3.183,3.685,4.957,2.962s2.432-3.223,1.469-5.582-3.183-3.685-4.957-2.962-2.432,3.223-1.469,5.582" transform="translate(-148.904 -53.213)" fill="#ffea91"/>
        <path id="Trazado_720854" data-name="Trazado 720854" d="M212.066,85.569c1.161,2.843,3.836,4.441,5.974,3.569s2.931-3.883,1.77-6.726-3.835-4.441-5.974-3.569-2.931,3.883-1.77,6.726" transform="translate(-142.941 -53.117)" fill="#555f6d"/>
        <path id="Trazado_720855" data-name="Trazado 720855" d="M219.857,90.476c.571,1.4,1.886,2.184,2.937,1.755s1.441-1.91.87-3.307-1.885-2.184-2.936-1.755-1.441,1.91-.87,3.307" transform="translate(-148.39 -58.824)" fill="#474341"/>
        <path id="Trazado_720856" data-name="Trazado 720856" d="M211.072,57.886a.851.851,0,0,1-.745-.438L203.8,45.683a.851.851,0,0,1,1.488-.826l6.528,11.764a.851.851,0,0,1-.744,1.264" transform="translate(-137.644 -30.016)" fill="#555f6d"/>
        <path id="Trazado_720857" data-name="Trazado 720857" d="M183.1,136.308h-2.968V125.344a5.731,5.731,0,0,1,5.724-5.724v2.968a2.759,2.759,0,0,0-2.756,2.756Z" transform="translate(-121.725 -80.833)" fill="#3898a0"/>
      </g>
    </g>
    <g id="Grupo_984000" data-name="Grupo 984000" transform="translate(123.081 40.729)">
      <g id="Grupo_983999" data-name="Grupo 983999" clip-path="url(#clip-path-6)">
        <rect id="Rectángulo_344770" data-name="Rectángulo 344770" width="54.363" height="35.515" transform="translate(0 0)" fill="url(#radial-gradient)"/>
      </g>
    </g>
    <g id="Grupo_984023" data-name="Grupo 984023">
      <g id="Grupo_984022" data-name="Grupo 984022" clip-path="url(#clip-path)">
        <path id="Trazado_720859" data-name="Trazado 720859" d="M240.859,366.54a6.772,6.772,0,0,1-6.745-6.257c-1.755-22.973-4.245-39.713-6.062-51.935-1.453-9.764-2.5-16.819-2.5-22.4a6.772,6.772,0,0,1,13.544,0c0,4.58.987,11.22,2.354,20.409,1.848,12.425,4.379,29.441,6.17,52.9a6.772,6.772,0,0,1-6.237,7.268c-.175.013-.35.02-.523.02" transform="translate(-152.414 -188.651)" fill="#257072"/>
        <path id="Trazado_720860" data-name="Trazado 720860" d="M84.246,383.025H79.285a1.214,1.214,0,0,1,0-2.427h4.961c3.52,0,6.039-.882,7.927-2.775,6.4-6.418,6.346-24.937,6.238-61.832-.015-5.15-.03-10.475-.03-16.25a1.213,1.213,0,1,1,2.427,0c0,5.772.016,11.1.031,16.243.109,37.565.164,56.421-6.947,63.552-2.341,2.348-5.5,3.489-9.646,3.489" transform="translate(-52.757 -201.728)" fill="#605354"/>
        <path id="Trazado_720861" data-name="Trazado 720861" d="M197.647,380.015a6.772,6.772,0,0,1-6.772-6.772V302.751a6.772,6.772,0,0,1,13.544,0v70.493a6.772,6.772,0,0,1-6.772,6.772" transform="translate(-128.983 -200.006)" fill="#3898a0"/>
        <path id="Trazado_720862" data-name="Trazado 720862" d="M262.194,161.659a10.281,10.281,0,0,1-9.105-5.983l-8.377-19.769a3.438,3.438,0,1,1,6.331-2.683l8.377,19.769a3.528,3.528,0,0,0,2.847,1.787l12.141-.592a3.438,3.438,0,1,1,.335,6.868l-12.14.592q-.2.01-.409.01" transform="translate(-165.178 -88.608)" fill="#ffb7a9"/>
        <g id="Grupo_984003" data-name="Grupo 984003" transform="translate(79.19 42.448)" opacity="0.5">
          <g id="Grupo_984002" data-name="Grupo 984002">
            <g id="Grupo_984001" data-name="Grupo 984001" clip-path="url(#clip-path-8)">
              <path id="Trazado_720863" data-name="Trazado 720863" d="M250.825,133.006a3.438,3.438,0,0,0-6.332,2.683l6.94,16.162,1.767-8.127,1.165-2.431Z" transform="translate(-244.22 -130.908)" fill="#e67f92"/>
            </g>
          </g>
        </g>
        <path id="Trazado_720864" data-name="Trazado 720864" d="M274.078,539.763v-4.43a3.576,3.576,0,0,0-3.566-3.565H256.787a3.576,3.576,0,0,0-3.566,3.565v4.43Z" transform="translate(-171.113 -359.338)" fill="#894730"/>
        <path id="Trazado_720865" data-name="Trazado 720865" d="M340.752,193.017a5.521,5.521,0,1,0-5.521,5.521,5.521,5.521,0,0,0,5.521-5.521" transform="translate(-222.8 -126.699)" fill="#e67f92"/>
        <path id="Trazado_720866" data-name="Trazado 720866" d="M148.786,287.55a5.521,5.521,0,1,0-5.521,5.521,5.521,5.521,0,0,0,5.521-5.521" transform="translate(-93.08 -190.579)" fill="#ffb7a9"/>
        <path id="Trazado_720867" data-name="Trazado 720867" d="M181.8,172.311a8.505,8.505,0,0,0,8.481,8.481h10.7a8.506,8.506,0,0,0,8.481-8.481V131.221c0-4.664-1.66-8.48-6.324-8.48H190.28a8.505,8.505,0,0,0-8.481,8.48Z" transform="translate(-122.85 -82.941)" fill="#fb3"/>
        <path id="Rectángulo_344772" data-name="Rectángulo 344772" d="M1.55,0H2.9a1.55,1.55,0,0,1,1.55,1.55v0A1.551,1.551,0,0,1,2.9,3.1H1.55A1.55,1.55,0,0,1,0,1.551v0A1.55,1.55,0,0,1,1.55,0Z" transform="translate(114.959 64.093)" fill="#e67f92"/>
        <rect id="Rectángulo_344773" data-name="Rectángulo 344773" width="2.726" height="3.384" transform="translate(120.288 55.998)" fill="#555f6d"/>
        <rect id="Rectángulo_344774" data-name="Rectángulo 344774" width="2.923" height="7.541" transform="matrix(0.982, -0.19, 0.19, 0.982, 115.922, 48.946)" fill="#605354"/>
        <rect id="Rectángulo_344775" data-name="Rectángulo 344775" width="3.515" height="6.686" transform="translate(117.451 54.377)" fill="#605354"/>
        <path id="Trazado_720868" data-name="Trazado 720868" d="M320.06,165.653h10.545v-6.8h3.515v11.668H320.06Z" transform="translate(-216.279 -107.347)" fill="#605354"/>
        <path id="Trazado_720869" data-name="Trazado 720869" d="M338.925,114.781l12.322-2.387-4.784-17.268-9.6,1.859Z" transform="translate(-227.637 -64.281)" fill="#ff5757"/>
        <rect id="Rectángulo_344776" data-name="Rectángulo 344776" width="3.243" height="11.828" transform="translate(110.109 63.162)" fill="#605354"/>
        <path id="Trazado_720870" data-name="Trazado 720870" d="M357.224,201.324l1.591-.3-1.568-6.27h-1.675Z" transform="translate(-240.276 -131.602)" fill="#605354"/>
        <path id="Trazado_720871" data-name="Trazado 720871" d="M343.212,150.767l12.322-2.387Z" transform="translate(-231.923 -100.267)" fill="#605354"/>
        <path id="Trazado_720872" data-name="Trazado 720872" d="M341.362,149.8a.888.888,0,0,1-.168-1.759l12.321-2.387a.887.887,0,1,1,.338,1.743l-12.321,2.387a.887.887,0,0,1-.17.016" transform="translate(-230.074 -98.417)" fill="#605354"/>
        <path id="Trazado_720873" data-name="Trazado 720873" d="M326.928,198.436a.726.726,0,0,0,1,.852l4.924-1.489a1.74,1.74,0,0,0,1.162-1.565v-.27a1.217,1.217,0,0,0-1.214-1.213h-4.18a1.425,1.425,0,0,0-1.371,1.2Z" transform="translate(-220.912 -131.602)" fill="#ffb7a9"/>
        <path id="Rectángulo_344777" data-name="Rectángulo 344777" d="M1.55,0h.944a1.55,1.55,0,0,1,1.55,1.55v0A1.551,1.551,0,0,1,2.494,3.1H1.55A1.55,1.55,0,0,1,0,1.551v0A1.55,1.55,0,0,1,1.55,0Z" transform="translate(110.948 70.767)" fill="#e67f92"/>
        <path id="Rectángulo_344778" data-name="Rectángulo 344778" d="M1.55,0h.944a1.55,1.55,0,0,1,1.55,1.55v0A1.551,1.551,0,0,1,2.494,3.1H1.55A1.55,1.55,0,0,1,0,1.551v0A1.55,1.55,0,0,1,1.55,0Z" transform="translate(111.352 67.936)" fill="#e67f92"/>
        <path id="Rectángulo_344779" data-name="Rectángulo 344779" d="M1.55,0h.944A1.551,1.551,0,0,1,4.045,1.551v0A1.551,1.551,0,0,1,2.494,3.1H1.55A1.55,1.55,0,0,1,0,1.551v0A1.55,1.55,0,0,1,1.55,0Z" transform="translate(111.622 70.767)" fill="#ffb7a9"/>
        <path id="Rectángulo_344780" data-name="Rectángulo 344780" d="M1.55,0H2.9A1.551,1.551,0,0,1,4.45,1.551v0A1.551,1.551,0,0,1,2.9,3.1H1.55A1.55,1.55,0,0,1,0,1.551v0A1.55,1.55,0,0,1,1.55,0Z" transform="translate(112.027 67.936)" fill="#ffb7a9"/>
        <g id="Grupo_984006" data-name="Grupo 984006" transform="translate(109.231 30.845)" opacity="0.5">
          <g id="Grupo_984005" data-name="Grupo 984005">
            <g id="Grupo_984004" data-name="Grupo 984004" clip-path="url(#clip-path-9)">
              <path id="Trazado_720874" data-name="Trazado 720874" d="M348.177,101.311H337.368l-.5-4.326,9.6-1.859Z" transform="translate(-336.868 -95.126)" fill="#fff"/>
            </g>
          </g>
        </g>
        <path id="Rectángulo_344782" data-name="Rectángulo 344782" d="M1.55,0H3.708a1.55,1.55,0,0,1,1.55,1.55v0A1.551,1.551,0,0,1,3.708,3.1H1.55A1.55,1.55,0,0,1,0,1.551v0A1.55,1.55,0,0,1,1.55,0Z" transform="translate(114.15 63.149)" fill="#ffb7a9"/>
        <g id="Grupo_984009" data-name="Grupo 984009" transform="translate(110.296 32.445)" opacity="0.3" style="mix-blend-mode: multiply;isolation: isolate">
          <g id="Grupo_984008" data-name="Grupo 984008">
            <g id="Grupo_984007" data-name="Grupo 984007" clip-path="url(#clip-path-10)">
              <path id="Trazado_720875" data-name="Trazado 720875" d="M341.822,115.777a.651.651,0,0,0,.782.572l3.2-.625a.732.732,0,0,0,.577-.839l-2.5-14.247a.7.7,0,0,0-.823-.566l-2.284.445a.785.785,0,0,0-.618.844Z" transform="translate(-340.15 -100.06)" fill="#929799"/>
            </g>
          </g>
        </g>
        <g id="Grupo_984012" data-name="Grupo 984012" transform="translate(58.949 50.705)" opacity="0.5">
          <g id="Grupo_984011" data-name="Grupo 984011">
            <g id="Grupo_984010" data-name="Grupo 984010" clip-path="url(#clip-path-11)">
              <rect id="Rectángulo_344784" data-name="Rectángulo 344784" width="6.043" height="29.788" fill="#e67f92"/>
            </g>
          </g>
        </g>
        <path id="Trazado_720876" data-name="Trazado 720876" d="M195.9,297.835c-21.294,0-28.592-32.035-30.745-45.843a1.1,1.1,0,1,1,2.172-.339c1.157,7.415,3.469,18.181,7.915,27.355,5.387,11.115,12.4,16.707,20.843,16.628,5.616-.055,10.465-3.285,14.412-9.6,3.289-5.264,5.963-12.648,7.947-21.944a192.208,192.208,0,0,0,3.673-34.827,1.1,1.1,0,0,1,2.2,0,194.788,194.788,0,0,1-3.721,35.286c-2.038,9.548-4.807,17.168-8.233,22.65-4.371,7-9.84,10.574-16.255,10.636H195.9" transform="translate(-111.592 -154.179)" fill="#605354"/>
        <path id="Trazado_720877" data-name="Trazado 720877" d="M211.308,539.763v-4.43a3.576,3.576,0,0,0-3.566-3.565H194.017a3.576,3.576,0,0,0-3.566,3.565v4.43Z" transform="translate(-128.696 -359.338)" fill="#a55b3d"/>
        <path id="Trazado_720878" data-name="Trazado 720878" d="M209.543,225.4v24.407a10.142,10.142,0,0,1-10.113,10.112h-7.518A10.142,10.142,0,0,1,181.8,249.808V225.4Z" transform="translate(-122.85 -152.313)" fill="#3898a0"/>
        <path id="Trazado_720879" data-name="Trazado 720879" d="M148.481,191.3a3.438,3.438,0,0,1-3.261-3.607l.971-19.31a24.218,24.218,0,0,1,3.016-9.859l9-14.889a3.438,3.438,0,1,1,5.885,3.557l-9,14.889a17.756,17.756,0,0,0-2.033,6.647l-.971,19.311a3.439,3.439,0,0,1-3.606,3.262" transform="translate(-98.128 -95.939)" fill="#ffb7a9"/>
        <path id="Trazado_720880" data-name="Trazado 720880" d="M170.094,180.155l-6.584-2.4,1.55-2.565,4.767.647,1.34,2.542Z" transform="translate(-110.491 -118.384)" fill="#e67f92"/>
        <path id="Trazado_720881" data-name="Trazado 720881" d="M172.484,151.15,164.514,146l6.327-11.866c1.217-2.263,4.365-2.43,6.628-1.213l3.376,2.9Z" transform="translate(-111.169 -89.315)" fill="#ffb81a"/>
        <path id="Trazado_720882" data-name="Trazado 720882" d="M239.167,141.779l8.374-4.461-5.31-12.355c-1.023-2.357-4.147-2.788-6.5-1.765l-3.607,2.606Z" transform="translate(-156.854 -82.898)" fill="#ffb81a"/>
        <path id="Rectángulo_344786" data-name="Rectángulo 344786" d="M7.472,0h0a7.472,7.472,0,0,1,7.472,7.472V42.523a7.471,7.471,0,0,1-7.471,7.471h0A7.472,7.472,0,0,1,0,42.522V7.472A7.472,7.472,0,0,1,7.472,0Z" transform="translate(71.67 47.856)" fill="#3898a0"/>
        <path id="Trazado_720883" data-name="Trazado 720883" d="M192.576,173.429h4.342a5.731,5.731,0,0,0,5.724-5.724V124.5c0-3.156-2.568-4.876-5.724-4.876h-4.342l-2.5,2.12h6.844a2.759,2.759,0,0,1,2.756,2.756V167.7a2.759,2.759,0,0,1-2.756,2.756h-4.342Z" transform="translate(-128.441 -80.832)" fill="#3898a0"/>
        <path id="Trazado_720884" data-name="Trazado 720884" d="M236.07,172.546h4.342a5.731,5.731,0,0,0,5.724-5.724V124.036a5.731,5.731,0,0,0-5.724-5.724h-2.584v1.423h2.584a2.759,2.759,0,0,1,2.756,2.756v44.331a2.759,2.759,0,0,1-2.756,2.756H236.07Z" transform="translate(-159.523 -79.949)" fill="#3898a0"/>
        <path id="Trazado_720885" data-name="Trazado 720885" d="M191.551,121.589c-.018.424-.212,1.007-1.484,1.007s-4.17.689-5.442,2.792l-.654-1.255s3.216-3.286,3.216-3.233,3.869.336,3.869.336Z" transform="translate(-124.318 -81.697)" fill="#3898a0"/>
        <g id="Grupo_984015" data-name="Grupo 984015" transform="translate(58.949 73.088)" opacity="0.3" style="mix-blend-mode: multiply;isolation: isolate">
          <g id="Grupo_984014" data-name="Grupo 984014">
            <g id="Grupo_984013" data-name="Grupo 984013" clip-path="url(#clip-path-12)">
              <path id="Trazado_720886" data-name="Trazado 720886" d="M185.3,257.612h.2a10.1,10.1,0,0,1-3.7-7.8V225.4h6.042Z" transform="translate(-181.799 -225.402)" fill="#e67f92"/>
            </g>
          </g>
        </g>
        <path id="Trazado_720887" data-name="Trazado 720887" d="M29.93,286.812a3.346,3.346,0,1,0,3.345-3.346,3.345,3.345,0,0,0-3.345,3.346" transform="translate(-20.225 -191.55)" fill="#a8adb0"/>
        <circle id="Elipse_5880" data-name="Elipse 5880" cx="3.346" cy="3.346" r="3.346" transform="translate(9.705 91.916)" fill="none" stroke="#675153" stroke-miterlimit="10" stroke-width="5.483"/>
        <rect id="Rectángulo_344788" data-name="Rectángulo 344788" width="5.167" height="7.112" transform="translate(8.676 99.891)" fill="#a8adb0"/>
        <rect id="Rectángulo_344789" data-name="Rectángulo 344789" width="8.359" height="7.112" rx="3.556" transform="translate(7.081 103.249)" fill="#584244"/>
        <rect id="Rectángulo_344790" data-name="Rectángulo 344790" width="11.708" height="3.11" rx="1.555" transform="translate(5.406 98.164)" fill="#584244"/>
        <path id="Trazado_720888" data-name="Trazado 720888" d="M21.73,403.16V336.192a7.133,7.133,0,0,0-7.112-7.112H7.112A7.133,7.133,0,0,0,0,336.192v64.4a3.5,3.5,0,0,0,3.289,2.571Z" transform="translate(0 -222.374)" fill="#e24d4d"/>
        <path id="Trazado_720889" data-name="Trazado 720889" d="M55.412,398.65c-3.345,0-7.755-.326-10.352-2.872a7.479,7.479,0,0,1-2.137-5.569V340.6c0-12.1-.868-15.6-1.263-16.565a1.219,1.219,0,0,1-.873-2.022,1.6,1.6,0,0,1,1.764-.448c1.012.376,1.6,1.625,2.04,4.31a102.064,102.064,0,0,1,.759,14.725v49.611a5.084,5.084,0,0,0,1.409,3.836c2.36,2.314,7.373,2.215,10.368,2.157.461-.009.885-.017,1.257-.017a1.214,1.214,0,0,1,0,2.427c-.359,0-.766.008-1.21.017-.536.01-1.131.022-1.763.022" transform="translate(-27.36 -217.225)" fill="#605354"/>
        <g id="Grupo_984018" data-name="Grupo 984018" transform="translate(1.366 112.633)" opacity="0.4">
          <g id="Grupo_984017" data-name="Grupo 984017">
            <g id="Grupo_984016" data-name="Grupo 984016" clip-path="url(#clip-path-13)">
              <path id="Rectángulo_344791" data-name="Rectángulo 344791" d="M1.923,0h0A1.923,1.923,0,0,1,3.846,1.923v27.23a1.923,1.923,0,0,1-1.923,1.923h0A1.923,1.923,0,0,1,0,29.153V1.923A1.923,1.923,0,0,1,1.923,0Z" transform="translate(0 0)" fill="#fff"/>
            </g>
          </g>
        </g>
        <g id="Grupo_984021" data-name="Grupo 984021" transform="translate(1.366 148.286)" opacity="0.4">
          <g id="Grupo_984020" data-name="Grupo 984020">
            <g id="Grupo_984019" data-name="Grupo 984019" clip-path="url(#clip-path-14)">
              <path id="Rectángulo_344793" data-name="Rectángulo 344793" d="M1.923,0h0A1.923,1.923,0,0,1,3.846,1.923V4.312A1.923,1.923,0,0,1,1.923,6.235h0A1.923,1.923,0,0,1,0,4.312V1.923A1.923,1.923,0,0,1,1.923,0Z" transform="translate(0 0)" fill="#fff"/>
            </g>
          </g>
        </g>
        <path id="Trazado_720890" data-name="Trazado 720890" d="M363.942,101.009a16.3,16.3,0,0,0,1.279,4.585c.2.577-.714.822-.909.25A17.026,17.026,0,0,1,363,101.009c-.02-.608.922-.605.942,0" transform="translate(-245.295 -67.949)" fill="#fff"/>
        <path id="Trazado_720891" data-name="Trazado 720891" d="M367.867,120.253a.472.472,0,0,1,.666,0,1.042,1.042,0,0,1,.161.244s.086.242.074.228a.481.481,0,0,1,0,.666.472.472,0,0,1-.666,0,1.035,1.035,0,0,1-.161-.244s-.087-.242-.075-.227a.481.481,0,0,1,0-.666" transform="translate(-248.493 -81.167)" fill="#fff"/>
        <path id="Trazado_720892" data-name="Trazado 720892" d="M405.152,150.6a.737.737,0,1,0,.737-.737.737.737,0,0,0-.737.737" transform="translate(-273.779 -101.266)" fill="#fe9d71"/>
        <path id="Trazado_720893" data-name="Trazado 720893" d="M397.741,162.012a.571.571,0,1,0,.571-.571.571.571,0,0,0-.571.571" transform="translate(-268.771 -109.093)" fill="#fe9d71"/>
        <path id="Trazado_720894" data-name="Trazado 720894" d="M389.134,164.216a.357.357,0,1,0,.357-.357.357.357,0,0,0-.357.357" transform="translate(-262.955 -110.727)" fill="#fe9d71"/>
        <path id="Trazado_720895" data-name="Trazado 720895" d="M393.25,152.489a.357.357,0,1,0,.357-.357.357.357,0,0,0-.357.357" transform="translate(-265.736 -102.802)" fill="#fe9d71"/>
        <path id="Trazado_720896" data-name="Trazado 720896" d="M409.7,163.114a.357.357,0,1,0,.357-.357.357.357,0,0,0-.357.357" transform="translate(-276.85 -109.982)" fill="#fe9d71"/>
        <path id="Trazado_720897" data-name="Trazado 720897" d="M437.431,145.981a.357.357,0,1,0,.357-.357.357.357,0,0,0-.357.357" transform="translate(-295.591 -98.405)" fill="#fe9d71"/>
        <path id="Trazado_720898" data-name="Trazado 720898" d="M400.607,198a.737.737,0,1,1,.737.737.737.737,0,0,1-.737-.737" transform="translate(-270.708 -133.297)" fill="#fe9d71"/>
        <path id="Trazado_720899" data-name="Trazado 720899" d="M395.981,189.946a.571.571,0,1,1,.571.571.571.571,0,0,1-.571-.571" transform="translate(-267.582 -127.969)" fill="#fe9d71"/>
        <path id="Trazado_720900" data-name="Trazado 720900" d="M389.134,193.915a.357.357,0,1,1,.357.357.357.357,0,0,1-.357-.357" transform="translate(-262.955 -130.796)" fill="#fe9d71"/>
        <path id="Trazado_720901" data-name="Trazado 720901" d="M392.148,201.543a.357.357,0,1,1,.357.357.357.357,0,0,1-.357-.357" transform="translate(-264.992 -135.95)" fill="#fe9d71"/>
        <path id="Trazado_720902" data-name="Trazado 720902" d="M409.7,195.016a.357.357,0,1,1,.357.357.357.357,0,0,1-.357-.357" transform="translate(-276.85 -131.54)" fill="#fe9d71"/>
        <path id="Trazado_720903" data-name="Trazado 720903" d="M384.777,186.751a.357.357,0,1,1,.357.357.357.357,0,0,1-.357-.357" transform="translate(-260.011 -125.955)" fill="#fe9d71"/>
      </g>
    </g>
  </g>
</svg>
